<?xml version="1.0" encoding="UTF-8" standalone="no"?>
<svg
    xmlns:dc="http://purl.org/dc/elements/1.1/"
    xmlns:cc="http://creativecommons.org/ns#"
    xmlns:rdf="http://www.w3.org/1999/02/22-rdf-syntax-ns#"
    xmlns:svg="http://www.w3.org/2000/svg"
    xmlns="http://www.w3.org/2000/svg" viewBox="0 0 45 45" style="enable-background:new 0 0 45 45;" width="100" height="100" xml:space="preserve" version="1.1" id="svg2">
    <defs id="defs6">
        <clipPath id="clipPath16" clipPathUnits="userSpaceOnUse">
            <path id="path18" d="M 0,36 36,36 36,0 0,0 0,36 Z"/>
        </clipPath>
    </defs>
    <g transform="matrix(1.25,0,0,-1.25,0,45)" id="g10">
        <g id="g12">
            <g clip-path="url(#clipPath16)" id="g14">
                <g transform="translate(9.9985,26)" id="g32">
                    <path id="path34" style="fill:#664500;fill-opacity:1;fill-rule:nonzero;stroke:none" d="m 0,0 c -0.448,0 -0.855,0.303 -0.969,0.757 -0.134,0.535 0.19,1.077 0.724,1.212 0.036,0.01 3.593,0.962 5.352,4.478 C 5.354,6.941 5.953,7.143 6.449,6.895 6.943,6.648 7.143,6.047 6.896,5.553 4.715,1.191 0.425,0.075 0.244,0.03 0.162,0.009 0.081,0 0,0"/>
                </g>
                <g transform="translate(26,26)" id="g36">
                    <path id="path38" style="fill:#664500;fill-opacity:1;fill-rule:nonzero;stroke:none" d="m 0,0 c -0.08,0 -0.161,0.01 -0.242,0.03 -0.182,0.045 -4.472,1.161 -6.653,5.523 -0.247,0.494 -0.046,1.095 0.448,1.342 0.493,0.247 1.093,0.046 1.342,-0.448 C -3.348,2.93 0.21,1.979 0.246,1.969 0.779,1.832 1.104,1.289 0.968,0.754 0.853,0.302 0.447,0 0,0"/>
                </g>
            </g>
        </g>
    </g>
</svg>
