<?xml version="1.0" encoding="UTF-8" standalone="no"?>
<svg
    xmlns:dc="http://purl.org/dc/elements/1.1/"
    xmlns:cc="http://creativecommons.org/ns#"
    xmlns:rdf="http://www.w3.org/1999/02/22-rdf-syntax-ns#"
    xmlns:svg="http://www.w3.org/2000/svg"
    xmlns="http://www.w3.org/2000/svg" viewBox="0 0 45 45" style="enable-background:new 0 0 45 45;" width="100" height="100" xml:space="preserve" version="1.1" id="svg2">
    <defs id="defs6">
        <clipPath id="clipPath16" clipPathUnits="userSpaceOnUse">
            <path id="path18" d="M 0,36 36,36 36,0 0,0 0,36 Z"/>
        </clipPath>
    </defs>
    <g transform="matrix(1.25,0,0,-1.25,0,45)" id="g10">
        <g id="g12">
            <g clip-path="url(#clipPath16)" id="g14">
                <g transform="translate(30,20.9995)" id="g28">
                    <path id="path30" style="fill:#664500;fill-opacity:1;fill-rule:nonzero;stroke:none" d="M 0,0 C -0.124,0 -0.25,0.023 -0.371,0.072 -5.6,2.163 -7.743,5.312 -7.832,5.446 -8.139,5.905 -8.015,6.526 -7.555,6.833 -7.096,7.139 -6.477,7.016 -6.17,6.559 -6.151,6.531 -4.24,3.773 0.371,1.929 0.884,1.724 1.134,1.142 0.929,0.629 0.773,0.238 0.396,0 0,0"/>
                </g>
                <g transform="translate(6.0005,20.9995)" id="g32">
                    <path id="path34" style="fill:#664500;fill-opacity:1;fill-rule:nonzero;stroke:none" d="m 0,0 c -0.397,0 -0.772,0.238 -0.929,0.629 -0.205,0.513 0.044,1.095 0.557,1.3 C 4.24,3.773 6.151,6.531 6.17,6.559 6.478,7.015 7.099,7.136 7.557,6.829 8.013,6.521 8.137,5.904 7.832,5.446 7.743,5.312 5.599,2.163 0.371,0.072 0.249,0.023 0.124,0 0,0"/>
                </g>
            </g>
        </g>
    </g>
</svg>
