<?xml version="1.0" encoding="UTF-8" standalone="no"?>
<svg
    xmlns:dc="http://purl.org/dc/elements/1.1/"
    xmlns:cc="http://creativecommons.org/ns#"
    xmlns:rdf="http://www.w3.org/1999/02/22-rdf-syntax-ns#"
    xmlns:svg="http://www.w3.org/2000/svg"
    xmlns="http://www.w3.org/2000/svg" viewBox="0 0 45 45" style="enable-background:new 0 0 45 45;" width="100" height="100" xml:space="preserve" version="1.1" id="svg2">
    <defs id="defs6">
        <clipPath id="clipPath16" clipPathUnits="userSpaceOnUse">
            <path id="path18" d="M 0,36 36,36 36,0 0,0 0,36 Z"/>
        </clipPath>
    </defs>
    <g transform="matrix(1.25,0,0,-1.25,0,45)" id="g10">
        <g id="g12">
            <g clip-path="url(#clipPath16)" id="g14">
                <g transform="translate(6,23)" id="g24">
                    <path id="path26" style="fill:#664500;fill-opacity:1;fill-rule:nonzero;stroke:none" d="m 0,0 c -0.552,0 -1,0.448 -1,1 0,0.551 0.445,0.998 0.996,1 C 0.151,2.002 3.564,2.086 6.2,5.6 6.531,6.04 7.158,6.132 7.6,5.8 8.042,5.469 8.131,4.842 7.8,4.4 4.538,0.05 0.184,0 0,0"/>
                </g>
                <g transform="translate(30,23)" id="g28">
                    <path id="path30" style="fill:#664500;fill-opacity:1;fill-rule:nonzero;stroke:none" d="m 0,0 c -0.184,0 -4.537,0.05 -7.8,4.4 -0.332,0.442 -0.242,1.069 0.2,1.4 0.442,0.333 1.068,0.242 1.4,-0.2 C -3.56,2.079 -0.139,2.001 0.006,2 0.556,1.994 1,1.544 0.997,0.995 0.994,0.444 0.55,0 0,0"/>
                </g>
            </g>
        </g>
    </g>
</svg>
