<?xml version="1.0" encoding="UTF-8" standalone="no"?>
<svg
    xmlns:dc="http://purl.org/dc/elements/1.1/"
    xmlns:cc="http://creativecommons.org/ns#"
    xmlns:rdf="http://www.w3.org/1999/02/22-rdf-syntax-ns#"
    xmlns:svg="http://www.w3.org/2000/svg"
    xmlns="http://www.w3.org/2000/svg" viewBox="0 0 45 45" style="enable-background:new 0 0 45 45;" width="100" height="100" xml:space="preserve" version="1.1" id="svg2">
    <defs id="defs6">
        <clipPath id="clipPath16" clipPathUnits="userSpaceOnUse">
            <path id="path18" d="M 0,36 36,36 36,0 0,0 0,36 Z"/>
        </clipPath>
    </defs>
    <g transform="matrix(1.25,0,0,-1.25,0,45)" id="g10">
        <g id="g12">
            <g clip-path="url(#clipPath16)" id="g14">
                <g transform="translate(20.001,23)" id="g24">
                    <path id="path26" style="fill:#664500;fill-opacity:1;fill-rule:nonzero;stroke:none" d="M 0,0 C -0.055,0 -0.109,0.004 -0.165,0.014 -0.71,0.105 -1.078,0.62 -0.987,1.165 -0.594,3.529 1.583,8 6.999,8 c 0.553,0 1,-0.448 1,-1 0,-0.552 -0.447,-1 -1,-1 C 1.904,6 1.02,1.046 0.985,0.835 0.904,0.347 0.48,0 0,0"/>
                </g>
                <g transform="translate(15.999,23)" id="g28">
                    <path id="path30" style="fill:#664500;fill-opacity:1;fill-rule:nonzero;stroke:none" d="M 0,0 C -0.479,0 -0.902,0.345 -0.985,0.833 -1.021,1.044 -1.94,6 -6.999,6 c -0.552,0 -1,0.448 -1,1 0,0.552 0.448,1 1,1 C -1.583,8 0.593,3.529 0.987,1.165 1.078,0.62 0.71,0.105 0.166,0.014 0.11,0.004 0.054,0 0,0"/>
                </g>
            </g>
        </g>
    </g>
</svg>
