<?xml version="1.0" encoding="UTF-8" standalone="no"?>
<svg
    xmlns:dc="http://purl.org/dc/elements/1.1/"
    xmlns:cc="http://creativecommons.org/ns#"
    xmlns:rdf="http://www.w3.org/1999/02/22-rdf-syntax-ns#"
    xmlns:svg="http://www.w3.org/2000/svg"
    xmlns="http://www.w3.org/2000/svg" viewBox="0 0 45 45" style="enable-background:new 0 0 45 45;" width="100" height="100" xml:space="preserve" version="1.1" id="svg2">
    <defs id="defs6">
        <clipPath id="clipPath16" clipPathUnits="userSpaceOnUse">
            <path id="path18" d="M 0,36 36,36 36,0 0,0 0,36 Z"/>
        </clipPath>
    </defs>
    <g transform="matrix(1.25,0,0,-1.25,0,45)" id="g10">
        <g id="g12">
            <g clip-path="url(#clipPath16)" id="g14">
                <g transform="translate(5.999,25)" id="g32">
                    <path id="path34" style="fill:#664500;fill-opacity:1;fill-rule:nonzero;stroke:none" d="m 0,0 c -0.208,0 -0.419,0.065 -0.599,0.2 -0.442,0.331 -0.531,0.958 -0.2,1.4 3.262,4.35 7.616,4.4 7.8,4.4 0.552,0 1,-0.448 1,-1 C 8.001,4.449 7.556,4.002 7.005,4 6.85,3.998 3.436,3.914 0.801,0.4 0.604,0.138 0.304,0 0,0"/>
                </g>
                <g transform="translate(29.001,22)" id="g36">
                    <path id="path38" style="fill:#664500;fill-opacity:1;fill-rule:nonzero;stroke:none" d="M 0,0 C -0.305,0 -0.605,0.138 -0.801,0.4 -3.393,3.856 -7.762,3.028 -7.805,3.02 -8.352,2.909 -8.873,3.263 -8.982,3.804 -9.09,4.345 -8.738,4.872 -8.197,4.98 -7.967,5.028 -2.54,6.052 0.799,1.6 1.131,1.158 1.041,0.531 0.599,0.2 0.419,0.065 0.209,0 0,0"/>
                </g>
            </g>
        </g>
    </g>
</svg>
