<?xml version="1.0" encoding="UTF-8" standalone="no"?>
<svg
    xmlns:dc="http://purl.org/dc/elements/1.1/"
    xmlns:cc="http://creativecommons.org/ns#"
    xmlns:rdf="http://www.w3.org/1999/02/22-rdf-syntax-ns#"
    xmlns:svg="http://www.w3.org/2000/svg"
    xmlns="http://www.w3.org/2000/svg" viewBox="0 0 45 45" style="enable-background:new 0 0 45 45;" width="100" height="100" xml:space="preserve" version="1.1" id="svg2">
    <defs id="defs6">
        <clipPath id="clipPath16" clipPathUnits="userSpaceOnUse">
            <path id="path18" d="M 0,36 36,36 36,0 0,0 0,36 Z"/>
        </clipPath>
    </defs>
    <g transform="matrix(1.25,0,0,-1.25,0,45)" id="g10">
        <g id="g12">
            <g clip-path="url(#clipPath16)" id="g14">
                <g transform="translate(13.1136,29.9984)" id="g36">
                    <path id="path38" style="fill:#664500;fill-opacity:1;fill-rule:nonzero;stroke:none" d="m 0,0 c 0.552,-0.021 0.982,-0.486 0.961,-1.038 -0.022,-0.55 -0.484,-0.98 -1.034,-0.961 -0.156,0.004 -3.57,0.053 -6.339,-3.357 C -6.76,-5.782 -7.39,-5.85 -7.819,-5.501 -8.248,-5.153 -8.313,-4.523 -7.964,-4.094 -4.536,0.126 -0.183,0.007 0,0"/>
                </g>
                <g transform="translate(22.5166,28.3258)" id="g40">
                    <path id="path42" style="fill:#664500;fill-opacity:1;fill-rule:nonzero;stroke:none" d="M 0,0 C 0.181,0.033 4.473,0.763 8.461,-2.933 8.867,-3.309 8.891,-3.942 8.515,-4.346 8.14,-4.753 7.508,-4.776 7.102,-4.4 3.874,-1.409 0.495,-1.944 0.352,-1.969 -0.19,-2.061 -0.708,-1.698 -0.803,-1.157 -0.899,-0.615 -0.541,-0.098 0,0"/>
                </g>
            </g>
        </g>
    </g>
</svg>
