<?xml version="1.0" encoding="UTF-8" standalone="no"?>
<svg
    xmlns:dc="http://purl.org/dc/elements/1.1/"
    xmlns:cc="http://creativecommons.org/ns#"
    xmlns:rdf="http://www.w3.org/1999/02/22-rdf-syntax-ns#"
    xmlns:svg="http://www.w3.org/2000/svg"
    xmlns="http://www.w3.org/2000/svg" viewBox="0 0 45 45" style="enable-background:new 0 0 45 45;" width="100" height="100" xml:space="preserve" version="1.1" id="svg2">
    <defs id="defs6">
        <clipPath id="clipPath16" clipPathUnits="userSpaceOnUse">
            <path id="path18" d="M 0,36 36,36 36,0 0,0 0,36 Z"/>
        </clipPath>
    </defs>
    <g transform="matrix(1.25,0,0,-1.25,0,45)" id="g10">
        <g id="g12">
            <g clip-path="url(#clipPath16)" id="g14">
                <g transform="translate(24.3271,12.3779)" id="g24">
                    <path id="path26" style="fill:#664500;fill-opacity:1;fill-rule:nonzero;stroke:none" d="m 0,0 c -0.153,0.132 -0.368,0.159 -0.551,0.069 l -4,-2 c -1.871,-0.935 -6.727,-0.947 -6.776,-0.947 l -10e-4,0 c -0.276,0 -0.499,-0.224 -0.499,-0.5 0,-0.184 0.1,-0.347 0.25,-0.433 l 0,0 10e-4,0 0,0 0.001,-10e-4 c 0.071,-0.041 0.153,-0.064 0.24,-0.066 l 0.008,0 7,0 c 2.658,0 4.089,2.186 4.474,3.342 C 0.211,-0.344 0.153,-0.133 0,0"/>
                </g>
            </g>
        </g>
    </g>
</svg>
