<?xml version="1.0" encoding="UTF-8" standalone="no"?>
<svg
    xmlns:dc="http://purl.org/dc/elements/1.1/"
    xmlns:cc="http://creativecommons.org/ns#"
    xmlns:rdf="http://www.w3.org/1999/02/22-rdf-syntax-ns#"
    xmlns:svg="http://www.w3.org/2000/svg"
    xmlns="http://www.w3.org/2000/svg" viewBox="0 0 45 45" style="enable-background:new 0 0 45 45;" width="100" height="100" xml:space="preserve" version="1.1" id="svg2">
    <defs id="defs6">
        <clipPath id="clipPath16" clipPathUnits="userSpaceOnUse">
            <path id="path18" d="M 0,36 36,36 36,0 0,0 0,36 Z"/>
        </clipPath>
    </defs>
    <g transform="matrix(1.25,0,0,-1.25,0,45)" id="g10">
        <g id="g12">
            <g clip-path="url(#clipPath16)" id="g14">
                <g transform="translate(25.4541,5.209)" id="g40">
                    <path id="path42" style="fill:#664500;fill-opacity:1;fill-rule:nonzero;stroke:none" d="m 0,0 c -0.118,0.257 -2.939,6.291 -7.21,6.291 -4.249,0 -7.546,-6.007 -7.684,-6.262 -0.113,-0.209 -0.063,-0.468 0.119,-0.621 0.093,-0.078 0.207,-0.117 0.321,-0.117 0.11,0 0.22,0.036 0.311,0.109 0.032,0.025 3.163,2.48 6.933,2.48 3.743,0 6.388,-2.43 6.414,-2.454 0.175,-0.162 0.442,-0.18 0.634,-0.04 C 0.032,-0.475 0.1,-0.218 0,0"/>
                </g>
            </g>
        </g>
    </g>
</svg>
