<?xml version="1.0" encoding="UTF-8" standalone="no"?>
<svg
    xmlns:dc="http://purl.org/dc/elements/1.1/"
    xmlns:cc="http://creativecommons.org/ns#"
    xmlns:rdf="http://www.w3.org/1999/02/22-rdf-syntax-ns#"
    xmlns:svg="http://www.w3.org/2000/svg"
    xmlns="http://www.w3.org/2000/svg" viewBox="0 0 45 45" style="enable-background:new 0 0 45 45;" width="100" height="100" xml:space="preserve" version="1.1" id="svg2">
    <defs id="defs6">
        <clipPath id="clipPath16" clipPathUnits="userSpaceOnUse">
            <path id="path18" d="M 0,36 36,36 36,0 0,0 0,36 Z"/>
        </clipPath>
    </defs>
    <g transform="matrix(1.25,0,0,-1.25,0,45)" id="g10">
        <g id="g12">
            <g clip-path="url(#clipPath16)" id="g14">
                <g transform="translate(10.5146,12.3789)" id="g24">
                    <path id="path26" style="fill:#664500;fill-opacity:1;fill-rule:nonzero;stroke:none" d="m 0,0 c 0.045,-0.179 1.168,-4.379 7.485,-4.379 6.318,0 7.441,4.2 7.485,4.379 0.055,0.217 -0.043,0.442 -0.237,0.554 C 14.538,0.665 14.294,0.632 14.134,0.477 14.115,0.458 12.18,-1.379 7.485,-1.379 2.791,-1.379 0.855,0.458 0.837,0.477 0.741,0.571 0.613,0.621 0.485,0.621 0.401,0.621 0.316,0.6 0.239,0.557 0.043,0.445 -0.055,0.218 0,0"/>
                </g>
            </g>
        </g>
    </g>
</svg>
