<?xml version="1.0" encoding="UTF-8" standalone="no"?>
<svg
    xmlns:dc="http://purl.org/dc/elements/1.1/"
    xmlns:cc="http://creativecommons.org/ns#"
    xmlns:rdf="http://www.w3.org/1999/02/22-rdf-syntax-ns#"
    xmlns:svg="http://www.w3.org/2000/svg"
    xmlns="http://www.w3.org/2000/svg" viewBox="0 0 45 45" style="enable-background:new 0 0 45 45;" width="100" height="100" xml:space="preserve" version="1.1" id="svg2">
    <defs id="defs6">
        <clipPath id="clipPath16" clipPathUnits="userSpaceOnUse">
            <path id="path18" d="M 0,36 36,36 36,0 0,0 0,36 Z"/>
        </clipPath>
    </defs>
    <g transform="matrix(1.25,0,0,-1.25,0,45)" id="g10">
        <g id="g12">
            <g clip-path="url(#clipPath16)" id="g14">
                <g transform="translate(18,6)" id="g40">
                    <path id="path42" style="fill:#664500;fill-opacity:1;fill-rule:nonzero;stroke:none" d="M 0,0 C -0.304,0 -0.591,0.138 -0.781,0.375 L -3.975,4.367 -6.2,1.4 C -6.374,1.168 -6.64,1.023 -6.929,1.003 -7.219,0.981 -7.503,1.088 -7.707,1.293 l -1,1 c -0.391,0.391 -0.391,1.023 0,1.414 0.391,0.391 1.023,0.391 1.414,0 L -7.108,3.523 -4.8,6.6 c 0.186,0.248 0.475,0.395 0.784,0.4 0.296,0.01 0.603,-0.133 0.797,-0.375 L 0,2.601 3.219,6.625 C 3.412,6.866 3.703,7 4.016,7 4.325,6.995 4.614,6.848 4.8,6.6 L 7.108,3.523 7.293,3.707 c 0.391,0.391 1.023,0.391 1.414,0 0.391,-0.391 0.391,-1.023 0,-1.414 l -1,-1 C 7.502,1.088 7.229,0.979 6.929,1.003 6.64,1.023 6.374,1.168 6.2,1.4 L 3.975,4.367 0.781,0.375 C 0.591,0.138 0.304,0 0,0"/>
                </g>
            </g>
        </g>
    </g>
</svg>
