<?xml version="1.0" encoding="UTF-8" standalone="no"?>
<svg
    xmlns:dc="http://purl.org/dc/elements/1.1/"
    xmlns:cc="http://creativecommons.org/ns#"
    xmlns:rdf="http://www.w3.org/1999/02/22-rdf-syntax-ns#"
    xmlns:svg="http://www.w3.org/2000/svg"
    xmlns="http://www.w3.org/2000/svg" viewBox="0 0 45 45" style="enable-background:new 0 0 45 45;" width="100" height="100" xml:space="preserve" version="1.1" id="svg2">
    <defs id="defs6">
        <clipPath id="clipPath16" clipPathUnits="userSpaceOnUse">
            <path id="path18" d="M 0,36 36,36 36,0 0,0 0,36 Z"/>
        </clipPath>
    </defs>
    <g transform="matrix(1.25,0,0,-1.25,0,45)" id="g10">
        <g id="g12">
            <g clip-path="url(#clipPath16)" id="g14">
                <g transform="translate(7,14.7373)" id="g24">
                    <path id="path26" style="fill:#664500;fill-opacity:1;fill-rule:nonzero;stroke:none" d="m 0,0 c 0,-3.964 4.596,-9 11,-9 6.404,0 11,5 11,9 0,0 -10.333,-2.756 -22,0"/>
                </g>
                <g transform="translate(12,12.9971)" id="g28">
                    <path id="path30" style="fill:#5d9040;fill-opacity:1;fill-rule:nonzero;stroke:none" d="m 0,0 0,-6.961 c 0,-3 2,-6 6,-6 4,0 6,3 6,6 l 0,6.92 C 5.709,-1.333 0,0 0,0"/>
                </g>
                <g transform="translate(20.9697,4.9307)" id="g40">
                    <path id="path42" style="fill:#ffffff;fill-opacity:1;fill-rule:nonzero;stroke:none" d="m 0,0 c 0,1.368 -1.379,1.901 -2.487,2.329 -0.738,0.284 -1.434,0.554 -1.434,0.943 0,0.643 0.862,0.675 1.034,0.675 0.61,0 0.912,-0.228 1.18,-0.429 0.205,-0.156 0.418,-0.316 0.713,-0.316 0.55,0 0.801,0.388 0.801,0.747 0,0.717 -0.879,1.224 -1.812,1.437 l 0,0.384 c 0,0.504 -0.411,0.916 -0.916,0.916 -0.505,0 -0.916,-0.412 -0.916,-0.916 l 0,-0.415 C -4.952,5.03 -5.636,4.21 -5.636,3.176 c 0,-1.279 1.261,-1.803 2.373,-2.265 0.797,-0.331 1.549,-0.643 1.549,-1.132 0,-0.357 -0.448,-0.743 -1.173,-0.743 -0.731,0 -1.15,0.292 -1.519,0.551 -0.256,0.178 -0.497,0.347 -0.785,0.347 -0.42,0 -0.748,-0.354 -0.748,-0.804 0,-0.663 0.907,-1.322 2.102,-1.554 l 0,-0.459 c 0,-0.504 0.411,-0.914 0.917,-0.914 0.505,0 0.915,0.41 0.915,0.914 l -0.003,0.487 C -0.746,-2.089 0,-1.205 0,0"/>
                </g>
            </g>
        </g>
    </g>
</svg>
