<?xml version="1.0" encoding="UTF-8" standalone="no"?>
<svg
    xmlns:dc="http://purl.org/dc/elements/1.1/"
    xmlns:cc="http://creativecommons.org/ns#"
    xmlns:rdf="http://www.w3.org/1999/02/22-rdf-syntax-ns#"
    xmlns:svg="http://www.w3.org/2000/svg"
    xmlns="http://www.w3.org/2000/svg" viewBox="0 0 45 45" style="enable-background:new 0 0 45 45;" width="100" height="100" xml:space="preserve" version="1.1" id="svg2">
    <defs id="defs6">
        <clipPath id="clipPath16" clipPathUnits="userSpaceOnUse">
            <path id="path18" d="M 0,36 36,36 36,0 0,0 0,36 Z"/>
        </clipPath>
    </defs>
    <g transform="matrix(1.25,0,0,-1.25,0,45)" id="g10">
        <g id="g12">
            <g clip-path="url(#clipPath16)" id="g14">
                <g transform="translate(26.001,9)" id="g40">
                    <path id="path42" style="fill:#664500;fill-opacity:1;fill-rule:nonzero;stroke:none" d="m 0,0 c -0.305,0 -0.605,0.138 -0.801,0.4 -0.025,0.034 -2.782,3.6 -7.2,3.6 -4.418,0 -7.174,-3.566 -7.202,-3.602 -0.333,-0.438 -0.961,-0.526 -1.4,-0.195 -0.44,0.332 -0.529,0.956 -0.198,1.397 0.135,0.179 3.362,4.4 8.8,4.4 5.437,0 8.665,-4.221 8.8,-4.4 C 1.131,1.158 1.041,0.531 0.599,0.2 0.419,0.065 0.209,0 0,0"/>
                </g>
            </g>
        </g>
    </g>
</svg>
