<?xml version="1.0" encoding="UTF-8" standalone="no"?>
<svg
    xmlns:dc="http://purl.org/dc/elements/1.1/"
    xmlns:cc="http://creativecommons.org/ns#"
    xmlns:rdf="http://www.w3.org/1999/02/22-rdf-syntax-ns#"
    xmlns:svg="http://www.w3.org/2000/svg"
    xmlns="http://www.w3.org/2000/svg" viewBox="0 0 45 45" style="enable-background:new 0 0 45 45;" width="100" height="100" xml:space="preserve" version="1.1" id="svg2">
    <defs id="defs6">
        <clipPath id="clipPath16" clipPathUnits="userSpaceOnUse">
            <path id="path18" d="M 0,36 36,36 36,0 0,0 0,36 Z"/>
        </clipPath>
    </defs>
    <g transform="matrix(1.25,0,0,-1.25,0,45)" id="g10">
        <g id="g12">
            <g clip-path="url(#clipPath16)" id="g14">
                <g transform="translate(25.4854,6.1211)" id="g24">
                    <path id="path26" style="fill:#664500;fill-opacity:1;fill-rule:nonzero;stroke:none" d="m 0,0 c -0.045,0.179 -1.168,4.379 -7.485,4.379 -6.318,0 -7.441,-4.2 -7.485,-4.379 -0.055,-0.217 0.043,-0.442 0.237,-0.554 0.195,-0.109 0.439,-0.079 0.599,0.077 0.019,0.019 1.954,1.856 6.649,1.856 4.694,0 6.63,-1.837 6.648,-1.856 0.096,-0.094 0.224,-0.144 0.352,-0.144 0.084,0 0.169,0.021 0.246,0.064 C -0.043,-0.445 0.055,-0.218 0,0"/>
                </g>
            </g>
        </g>
    </g>
</svg>
