<?xml version="1.0" encoding="UTF-8" standalone="no"?>
<svg
    xmlns:dc="http://purl.org/dc/elements/1.1/"
    xmlns:cc="http://creativecommons.org/ns#"
    xmlns:rdf="http://www.w3.org/1999/02/22-rdf-syntax-ns#"
    xmlns:svg="http://www.w3.org/2000/svg"
    xmlns="http://www.w3.org/2000/svg" viewBox="0 0 45 45" style="enable-background:new 0 0 45 45;" width="100" height="100" xml:space="preserve" version="1.1" id="svg2">
    <defs id="defs6">
        <clipPath id="clipPath16" clipPathUnits="userSpaceOnUse">
            <path id="path18" d="M 0,36 36,36 36,0 0,0 0,36 Z"/>
        </clipPath>
    </defs>
    <g transform="matrix(1.25,0,0,-1.25,0,45)" id="g10">
        <g id="g12">
            <g clip-path="url(#clipPath16)" id="g14">
                <g transform="translate(20.8711,8)" id="g40">
                    <path id="path42" style="fill:#664500;fill-opacity:1;fill-rule:nonzero;stroke:none" d="m 0,0 c 1.335,0.412 2.629,1.156 2.629,2.5 0,2.619 -4.912,2.968 -5.472,2.999 C -3.117,5.525 -3.352,5.306 -3.37,5.031 -3.387,4.758 -3.18,4.521 -2.906,4.501 -2.871,4.499 0.629,4.202 0.629,2.5 0.629,0.798 -2.871,0.501 -2.906,0.499 -2.92,0.498 -2.931,0.49 -2.943,0.488 -2.996,0.482 -3.044,0.471 -3.09,0.448 -3.097,0.445 -3.102,0.44 -3.108,0.437 -3.155,0.411 -3.197,0.381 -3.233,0.34 -3.247,0.325 -3.257,0.309 -3.269,0.292 -3.291,0.26 -3.313,0.229 -3.328,0.19 -3.34,0.161 -3.346,0.13 -3.352,0.099 -3.357,0.075 -3.369,0.055 -3.37,0.031 -3.371,0.021 -3.366,0.011 -3.366,0 c 0,-0.011 -0.005,-0.021 -0.004,-0.031 10e-4,-0.025 0.013,-0.045 0.018,-0.069 0.006,-0.031 0.011,-0.06 0.023,-0.089 0.013,-0.031 0.031,-0.057 0.049,-0.084 0.017,-0.025 0.032,-0.05 0.053,-0.072 0.022,-0.023 0.05,-0.041 0.077,-0.06 0.025,-0.017 0.046,-0.034 0.074,-0.047 0.032,-0.015 0.066,-0.021 0.1,-0.027 0.024,-0.006 0.045,-0.018 0.07,-0.02 0.035,-0.002 3.535,-0.299 3.535,-2.001 0,-1.702 -3.5,-1.999 -3.535,-2.001 -0.274,-0.02 -0.481,-0.257 -0.464,-0.53 0.017,-0.265 0.237,-0.469 0.498,-0.469 0.01,0 0.02,0 0.029,0.001 0.56,0.031 5.472,0.38 5.472,2.999 0,1.344 -1.294,2.088 -2.629,2.5"/>
                </g>
            </g>
        </g>
    </g>
</svg>
