<?xml version="1.0" encoding="UTF-8" standalone="no"?>
<svg
    xmlns:dc="http://purl.org/dc/elements/1.1/"
    xmlns:cc="http://creativecommons.org/ns#"
    xmlns:rdf="http://www.w3.org/1999/02/22-rdf-syntax-ns#"
    xmlns:svg="http://www.w3.org/2000/svg"
    xmlns="http://www.w3.org/2000/svg" viewBox="0 0 45 45" style="enable-background:new 0 0 45 45;" width="100" height="100" xml:space="preserve" version="1.1" id="svg2">
    <defs id="defs6">
        <clipPath id="clipPath16" clipPathUnits="userSpaceOnUse">
            <path id="path18" d="M 0,36 36,36 36,0 0,0 0,36 Z"/>
        </clipPath>
    </defs>
    <g transform="matrix(1.25,0,0,-1.25,0,45)" id="g10">
        <g id="g12">
            <g clip-path="url(#clipPath16)" id="g14">
                <g transform="translate(18,14)" id="g32">
                    <path id="path34" style="fill:#664500;fill-opacity:1;fill-rule:nonzero;stroke:none" d="m 0,0 c -3.623,0 -6.027,0.422 -9,1 -0.679,0.131 -2,0 -2,-2 0,-4 4.595,-9 11,-9 6.404,0 11,5 11,9 C 11,1 9.679,1.132 9,1 6.027,0.422 3.623,0 0,0"/>
                </g>
                <g transform="translate(9,13)" id="g36">
                    <path id="path38" style="fill:#ffffff;fill-opacity:1;fill-rule:nonzero;stroke:none" d="m 0,0 c 0,0 3,-1 9,-1 6,0 9,1 9,1 C 18,0 16.656,-6.75 9,-6.75 1.344,-6.75 0,0 0,0"/>
                </g>
                <g transform="translate(18,8.4062)" id="g40">
                    <path id="path42" style="fill:#664500;fill-opacity:1;fill-rule:nonzero;stroke:none" d="M 0,0 C -3.596,0 -6.272,0.372 -7.937,0.745 L -8.763,2.616 C -7.939,2.305 -4.874,1.719 0,1.719 c 4.954,0 8.037,0.616 8.864,0.937 L 8.163,0.814 C 6.53,0.435 3.745,0 0,0"/>
                </g>
            </g>
        </g>
    </g>
</svg>
