<?xml version="1.0" encoding="UTF-8" standalone="no"?>
<svg
    xmlns:dc="http://purl.org/dc/elements/1.1/"
    xmlns:cc="http://creativecommons.org/ns#"
    xmlns:rdf="http://www.w3.org/1999/02/22-rdf-syntax-ns#"
    xmlns:svg="http://www.w3.org/2000/svg"
    xmlns="http://www.w3.org/2000/svg" viewBox="0 0 45 45" style="enable-background:new 0 0 45 45;" width="100" height="100" xml:space="preserve" version="1.1" id="svg2">
    <defs id="defs6">
        <clipPath id="clipPath16" clipPathUnits="userSpaceOnUse">
            <path id="path18" d="M 0,36 36,36 36,0 0,0 0,36 Z"/>
        </clipPath>
    </defs>
    <g transform="matrix(1.25,0,0,-1.25,0,45)" id="g10">
        <g id="g12">
            <g clip-path="url(#clipPath16)" id="g14">
                <g transform="translate(27.335,12.3711)" id="g52">
                    <path id="path54" style="fill:#664500;fill-opacity:1;fill-rule:nonzero;stroke:none" d="m 0,0 c -0.178,0.161 -0.444,0.171 -0.635,0.029 -0.039,-0.029 -3.922,-2.9 -8.7,-2.9 -4.766,0 -8.662,2.871 -8.7,2.9 -0.191,0.142 -0.457,0.13 -0.635,-0.029 -0.177,-0.16 -0.217,-0.424 -0.094,-0.628 0.129,-0.215 3.217,-5.243 9.429,-5.243 6.212,0 9.301,5.028 9.429,5.243 C 0.217,-0.423 0.178,-0.16 0,0"/>
                </g>
                <g transform="translate(27.335,12.3711)" id="g56">
                    <path id="path58" style="fill:#664500;fill-opacity:1;fill-rule:nonzero;stroke:none" d="m 0,0 c -0.178,0.161 -0.444,0.171 -0.635,0.029 -0.039,-0.029 -3.922,-2.9 -8.7,-2.9 -4.766,0 -8.662,2.871 -8.7,2.9 -0.191,0.142 -0.457,0.13 -0.635,-0.029 -0.177,-0.16 -0.217,-0.424 -0.094,-0.628 0.129,-0.215 3.217,-5.243 9.429,-5.243 6.212,0 9.301,5.028 9.429,5.243 C 0.217,-0.423 0.178,-0.16 0,0"/>
                </g>
                <g transform="translate(18.0001,9.409)" id="g60">
                    <path id="path62" style="fill:#65471b;fill-opacity:1;fill-rule:nonzero;stroke:none" d="m 0,0 c -0.148,0 -0.291,0.011 -0.437,0.016 l 0,-4.516 0.874,0 0,4.517 C 0.291,0.012 0.148,0 0,0"/>
                </g>
                <g transform="translate(22.0001,10)" id="g64">
                    <path id="path66" style="fill:#ffffff;fill-opacity:1;fill-rule:nonzero;stroke:none" d="m 0,0 c 0.016,0.004 -1.45,-0.378 -2.446,-0.486 -0.366,-0.042 -0.737,-0.075 -1.117,-0.088 l 0,-4.517 1.563,0 c 1.1,0 2,0.9 2,2 l 0,1.262 0,0 L 0,0 Z"/>
                </g>
                <g transform="translate(14.0001,10)" id="g68">
                    <path id="path70" style="fill:#ffffff;fill-opacity:1;fill-rule:nonzero;stroke:none" d="m 0,0 c -0.016,0.004 1.45,-0.378 2.446,-0.486 0.366,-0.042 0.737,-0.075 1.117,-0.088 l 0,-4.517 -1.563,0 c -1.1,0 -2,0.9 -2,2 l 0,1.262 0,0 L 0,0 Z"/>
                </g>
                <g transform="translate(27.335,12.3711)" id="g72">
                    <path id="path74" style="fill:#65471b;fill-opacity:1;fill-rule:nonzero;stroke:none" d="m 0,0 c -0.178,0.161 -0.444,0.171 -0.635,0.029 -0.029,-0.022 -2.259,-1.668 -5.411,-2.47 -0.443,-0.112 -1.864,-0.43 -3.286,-0.43 -1.424,0 -2.849,0.318 -3.292,0.43 -3.152,0.802 -5.381,2.448 -5.411,2.47 -0.19,0.142 -0.457,0.132 -0.635,-0.029 -0.177,-0.16 -0.217,-0.423 -0.093,-0.628 0.096,-0.162 1.884,-3.067 5.428,-4.481 l 0,1.829 c -0.016,0.004 1.45,-0.378 2.446,-0.486 0.366,-0.042 0.737,-0.075 1.117,-0.088 l 0,-10e-4 c 0.146,-0.005 0.289,-0.016 0.437,-0.016 0.148,0 0.291,0.011 0.438,0.016 l 0,10e-4 c 0.379,0.013 0.75,0.046 1.116,0.088 0.996,0.108 2.462,0.49 2.446,0.486 l 0,-1.829 c 3.544,1.414 5.332,4.319 5.429,4.481 C 0.217,-0.423 0.178,-0.16 0,0"/>
                </g>
            </g>
        </g>
    </g>
</svg>
