<?xml version="1.0" encoding="UTF-8" standalone="no"?>
<svg
    xmlns:dc="http://purl.org/dc/elements/1.1/"
    xmlns:cc="http://creativecommons.org/ns#"
    xmlns:rdf="http://www.w3.org/1999/02/22-rdf-syntax-ns#"
    xmlns:svg="http://www.w3.org/2000/svg"
    xmlns="http://www.w3.org/2000/svg" viewBox="0 0 45 45" style="enable-background:new 0 0 45 45;" width="100" height="100" xml:space="preserve" version="1.1" id="svg2">
    <defs id="defs6">
        <clipPath id="clipPath16" clipPathUnits="userSpaceOnUse">
            <path id="path18" d="M 0,36 36,36 36,0 0,0 0,36 Z"/>
        </clipPath>
    </defs>
    <g transform="matrix(1.25,0,0,-1.25,0,45)" id="g10">
        <g id="g12">
            <g clip-path="url(#clipPath16)" id="g14">
                <g transform="translate(23.2539,12.4229)" id="g40">
                    <path id="path42" style="fill:#664500;fill-opacity:1;fill-rule:nonzero;stroke:none" d="m 0,0 c -0.187,0.11 -0.432,0.087 -0.597,-0.06 -0.009,-0.007 -1.013,-0.863 -4.657,-0.863 -3.641,0 -4.645,0.854 -4.646,0.854 -0.16,0.16 -0.405,0.19 -0.601,0.082 -0.195,-0.112 -0.293,-0.339 -0.238,-0.557 0.011,-0.044 1.145,-4.379 5.485,-4.379 4.34,0 5.474,4.335 5.485,4.379 C 0.284,-0.331 0.187,-0.113 0,0"/>
                </g>
            </g>
        </g>
    </g>
</svg>
