<?xml version="1.0" encoding="UTF-8" standalone="no"?>
<svg
    xmlns:dc="http://purl.org/dc/elements/1.1/"
    xmlns:cc="http://creativecommons.org/ns#"
    xmlns:rdf="http://www.w3.org/1999/02/22-rdf-syntax-ns#"
    xmlns:svg="http://www.w3.org/2000/svg"
    xmlns="http://www.w3.org/2000/svg" viewBox="0 0 45 45" style="enable-background:new 0 0 45 45;" width="100" height="100" xml:space="preserve" version="1.1" id="svg2">
    <defs id="defs6">
        <clipPath id="clipPath16" clipPathUnits="userSpaceOnUse">
            <path id="path18" d="M 0,36 36,36 36,0 0,0 0,36 Z"/>
        </clipPath>
    </defs>
    <g transform="matrix(1.25,0,0,-1.25,0,45)" id="g10">
        <g id="g12">
            <g clip-path="url(#clipPath16)" id="g14">
                <g transform="translate(9.4473,11.1055)" id="g40">
                    <path id="path42" style="fill:#664500;fill-opacity:1;fill-rule:nonzero;stroke:none" d="m 0,0 c -0.246,0.492 0.003,0.895 0.553,0.895 l 18,0 c 0.55,0 0.799,-0.403 0.552,-0.895 0,0 -2.552,-5.105 -9.552,-5.105 C 2.553,-5.105 0,0 0,0"/>
                </g>
                <g transform="translate(19,10)" id="g44">
                    <path id="path46" style="fill:#f2abba;fill-opacity:1;fill-rule:nonzero;stroke:none" d="M 0,0 C -2.77,0 -5.157,-0.922 -6.292,-2.256 -4.8,-3.211 -2.747,-4 0,-4 2.747,-4 4.801,-3.211 6.292,-2.256 5.157,-0.922 2.771,0 0,0"/>
                </g>
            </g>
        </g>
    </g>
</svg>
