<?xml version="1.0" encoding="UTF-8" standalone="no"?>
<svg
    xmlns:dc="http://purl.org/dc/elements/1.1/"
    xmlns:cc="http://creativecommons.org/ns#"
    xmlns:rdf="http://www.w3.org/1999/02/22-rdf-syntax-ns#"
    xmlns:svg="http://www.w3.org/2000/svg"
    xmlns="http://www.w3.org/2000/svg" viewBox="0 0 45 45" style="enable-background:new 0 0 45 45;" width="100" height="100" xml:space="preserve" version="1.1" id="svg2">
    <defs id="defs6">
        <clipPath id="clipPath16" clipPathUnits="userSpaceOnUse">
            <path id="path18" d="M 0,36 36,36 36,0 0,0 0,36 Z"/>
        </clipPath>
    </defs>
    <g transform="matrix(1.25,0,0,-1.25,0,45)" id="g10">
        <g id="g12">
            <g clip-path="url(#clipPath16)" id="g14">
                <g transform="translate(18,14.5)" id="g24">
                    <path id="path26" style="fill:#664500;fill-opacity:1;fill-rule:nonzero;stroke:none" d="m 0,0 c -9.333,0 -10.485,-8.354 -10.496,-8.438 -0.022,-0.17 0.046,-0.339 0.179,-0.449 C -10.227,-8.961 -10.114,-9 -10,-9 c 0.053,0 0.106,0.009 0.158,0.025 C -9.783,-8.955 -3.874,-7 0,-7 c 5.595,0 9.745,-1.933 9.786,-1.952 0.161,-0.077 0.359,-0.06 0.507,0.047 0.147,0.107 0.226,0.286 0.203,0.467 C 10.485,-8.354 9.333,0 0,0"/>
                </g>
                <g transform="translate(18,13)" id="g36">
                    <path id="path38" style="fill:#ffffff;fill-opacity:1;fill-rule:nonzero;stroke:none" d="m 0,0 c 4,0 6,-2 6,-2 l -12,0 c 0,0 2,2 6,2"/>
                </g>
            </g>
        </g>
    </g>
</svg>
