<?xml version="1.0" encoding="UTF-8" standalone="no"?>
<svg
    xmlns:dc="http://purl.org/dc/elements/1.1/"
    xmlns:cc="http://creativecommons.org/ns#"
    xmlns:rdf="http://www.w3.org/1999/02/22-rdf-syntax-ns#"
    xmlns:svg="http://www.w3.org/2000/svg"
    xmlns="http://www.w3.org/2000/svg" viewBox="0 0 45 45" style="enable-background:new 0 0 45 45;" width="100" height="100" xml:space="preserve" version="1.1" id="svg2">
    <defs id="defs6">
        <clipPath id="clipPath16" clipPathUnits="userSpaceOnUse">
            <path id="path18" d="M 0,36 36,36 36,0 0,0 0,36 Z"/>
        </clipPath>
    </defs>
    <g transform="matrix(1.25,0,0,-1.25,0,45)" id="g10">
        <g id="g12">
            <g clip-path="url(#clipPath16)" id="g14">
                <g transform="translate(18,5)" id="g32">
                    <path id="path34" style="fill:#664500;fill-opacity:1;fill-rule:nonzero;stroke:none" d="m 0,0 c -2.347,0 -3.575,1.16 -3.707,1.293 -0.391,0.391 -0.391,1.023 0,1.414 0.387,0.387 1.013,0.391 1.404,0.01 C -2.251,2.67 -1.497,2 0,2 1.519,2 2.273,2.689 2.305,2.719 2.703,3.093 3.332,3.082 3.713,2.689 4.092,2.297 4.093,1.679 3.707,1.293 3.575,1.16 2.347,0 0,0"/>
                </g>
            </g>
        </g>
    </g>
</svg>
