<?xml version="1.0" encoding="UTF-8" standalone="no"?>
<svg
    xmlns:dc="http://purl.org/dc/elements/1.1/"
    xmlns:cc="http://creativecommons.org/ns#"
    xmlns:rdf="http://www.w3.org/1999/02/22-rdf-syntax-ns#"
    xmlns:svg="http://www.w3.org/2000/svg"
    xmlns="http://www.w3.org/2000/svg" viewBox="0 0 45 45" style="enable-background:new 0 0 45 45;" width="100" height="100" xml:space="preserve" version="1.1" id="svg2">
    <defs id="defs6">
        <clipPath id="clipPath16" clipPathUnits="userSpaceOnUse">
            <path id="path18" d="M 0,36 36,36 36,0 0,0 0,36 Z"/>
        </clipPath>
    </defs>
    <g transform="matrix(1.25,0,0,-1.25,0,45)" id="g10">
        <g id="g12">
            <g clip-path="url(#clipPath16)" id="g14">
                <g transform="translate(33.1748,8.6914)" id="g32">
                    <path id="path34" style="fill:#e75a70;fill-opacity:1;fill-rule:nonzero;stroke:none" d="M 0,0 -3.671,3.789 C -4.486,1.904 -6.53,-1.548 -10.86,-3.006 l 3.685,-3.685 c 1.728,-1.728 5,-2 7,0 2,2 1.904,4.962 0.175,6.691"/>
                </g>
                <g transform="translate(29.5035,12.4803)" id="g36">
                    <path id="path38" style="fill:#664500;fill-opacity:1;fill-rule:nonzero;stroke:none" d="M 0,0 C 0.324,0.749 0.461,1.257 0.466,1.277 0.6,1.812 0.276,2.353 -0.258,2.488 -0.794,2.623 -1.335,2.299 -1.473,1.765 -1.548,1.469 -3.422,-5.48 -11.503,-5.48 c -8.082,0 -9.956,6.949 -10.031,7.245 -0.138,0.534 -0.678,0.858 -1.215,0.723 -0.534,-0.135 -0.858,-0.676 -0.724,-1.211 0.021,-0.087 2.301,-8.757 11.97,-8.757 1.649,0 3.069,0.266 4.314,0.685 C -2.858,-5.337 -0.814,-1.885 0,0"/>
                </g>
            </g>
        </g>
    </g>
</svg>
