<?xml version="1.0" encoding="UTF-8"?>
<svg enable-background="new 0 0 45 45" version="1.1" viewBox="0 0 45 45" xml:space="preserve" xmlns="http://www.w3.org/2000/svg" xmlns:cc="http://creativecommons.org/ns#" xmlns:dc="http://purl.org/dc/elements/1.1/" xmlns:rdf="http://www.w3.org/1999/02/22-rdf-syntax-ns#"><metadata><rdf:RDF><cc:Work rdf:about=""><dc:format>image/svg+xml</dc:format><dc:type rdf:resource="http://purl.org/dc/dcmitype/StillImage"/><dc:title/></cc:Work></rdf:RDF></metadata><g transform="translate(.21811 -1.2988)" enable-background="new 0 0 45 45" fill="#664500"><g transform="matrix(1.0702 0 0 -1.25 26.668 34.772)"><path d="m0.19932 0.46849c-1.5079-0.29985-3.7317-0.55359-5.2003 2.4275-0.172 0.525 0.114 1.09 0.64 1.261 0.523 0.172 1.078-0.109 1.256-0.624 0.044-0.116 0.80367-1.1638 1.5108-1.4067 0.70709-0.24293 2.4046 0.22943 1.8393 1.1193-1.0674 1.6803 0.46213 2.1011 1.6103 1.0133 1.3728-1.3006-0.078403-3.4768-1.656-3.7905z" fill="#664500"/></g><g transform="matrix(-1.0702 0 0 -1.25 17.896 34.772)"><path d="m0.19932 0.46849c-1.5079-0.29985-3.7317-0.55359-5.2003 2.4275-0.172 0.525 0.114 1.09 0.64 1.261 0.523 0.172 1.078-0.109 1.256-0.624 0.044-0.116 0.80367-1.1638 1.5108-1.4067 0.70709-0.24293 2.4046 0.22943 1.8393 1.1193-1.0674 1.6803 0.46213 2.1011 1.6103 1.0133 1.3728-1.3006-0.078403-3.4768-1.656-3.7905z" fill="#664500"/></g></g></svg>
