<?xml version="1.0" encoding="UTF-8"?>
<svg enable-background="new 0 0 45 45" version="1.1" viewBox="0 0 45 45" xml:space="preserve" xmlns="http://www.w3.org/2000/svg" xmlns:cc="http://creativecommons.org/ns#" xmlns:dc="http://purl.org/dc/elements/1.1/" xmlns:rdf="http://www.w3.org/1999/02/22-rdf-syntax-ns#"><metadata><rdf:RDF><cc:Work rdf:about=""><dc:format>image/svg+xml</dc:format><dc:type rdf:resource="http://purl.org/dc/dcmitype/StillImage"/><dc:title/></cc:Work></rdf:RDF></metadata><g transform="matrix(.64513 0 0 .77439 8.1117 5.8293)"><g transform="matrix(1.774 0 0 -2.391 32.346 39.031)"><path d="m-5.485 4.379c-2.9502 0-6.9192-4.5951-4.088-4.5951 0.98037 0.026913 0.46298 0.2991 4.107 0.2991" fill="#664500"/></g><g transform="matrix(-1.774 0 0 -2.391 12.851 39.031)"><path d="m-5.485 4.379c-2.9502 0-6.9192-4.5951-4.088-4.5951 0.98037 0.026913 0.46298 0.2991 4.107 0.2991" fill="#664500"/></g></g><path d="m22.719 40.506c-5.8118-0.01165-6.0248-8.4767-2.4577-8.4767 0.93982 0 1.4981 0.9325 2.4254 0.9325 0.77914 0 1.5156-0.89293 2.4817-0.89293 3.4674 0 3.3307 8.4487-2.4494 8.4371z" fill="#e75a70"/></svg>
