<?xml version="1.0" encoding="UTF-8"?>
<svg enable-background="new 0 0 45 45" version="1.1" viewBox="0 0 45 45" xml:space="preserve" xmlns="http://www.w3.org/2000/svg" xmlns:cc="http://creativecommons.org/ns#" xmlns:dc="http://purl.org/dc/elements/1.1/" xmlns:rdf="http://www.w3.org/1999/02/22-rdf-syntax-ns#"><metadata><rdf:RDF><cc:Work rdf:about=""><dc:format>image/svg+xml</dc:format><dc:type rdf:resource="http://purl.org/dc/dcmitype/StillImage"/><dc:title/></cc:Work></rdf:RDF></metadata><g><g transform="matrix(1.7267 0 0 -.97285 29.289 33.975)" fill="#664500"><path d="m0 0c0-2.763-1.791-3-4-3-2.21 0-4 0.237-4 3 0 2.761 1.79 6 4 6 2.209 0 4-3.239 4-6" fill="#664500"/></g><g transform="matrix(.84177 0 0 -1.25 37.534 42.635)" fill="#77b255"><path d="m0 0c0-1.104-8.059-2-18-2s-18 0.896-18 2 8.059 2 18 2 18-0.896 18-2" fill="#77b255"/></g><g transform="matrix(2.067 0 0 -2.6781 28.583 37.837)" fill="#77b255"><path d="m0 0c0-1.657 0.86072-2-3-2-3.8607 0-3 0.343-3 2s1.343 2 3 2 3-0.343 3-2" fill="#77b255"/></g></g></svg>
