<svg xmlns:dc="http://purl.org/dc/elements/1.1/" xmlns:cc="http://creativecommons.org/ns#" xmlns:rdf="http://www.w3.org/1999/02/22-rdf-syntax-ns#" xmlns:svg="http://www.w3.org/2000/svg" xmlns="http://www.w3.org/2000/svg" viewBox="0 0 45 45" style="enable-background:new 0 0 45 45;" width="100" height="100" xml:space="preserve" version="1.1" id="svg2"><metadata id="metadata8"><rdf:RDF><cc:Work rdf:about=""><dc:format>image/svg+xml</dc:format><dc:type rdf:resource="http://purl.org/dc/dcmitype/StillImage"/></cc:Work></rdf:RDF></metadata><defs id="defs6"><clipPath id="clipPath16" clipPathUnits="userSpaceOnUse"><path id="path18" d="M 0,36 36,36 36,0 0,0 0,36 Z"/></clipPath></defs><g transform="matrix(1.25,0,0,-1.25,0,45)" id="g10"><g id="g12"><g clip-path="url(#clipPath16)" id="g14"><g transform="translate(28,12.875)" id="g32"><path id="path34" style="fill:#ea596e;fill-opacity:1;fill-rule:nonzero;stroke:none" d="m 0,0 c 0,-4.487 -3.097,-9.375 -10,-9.375 -6.904,0 -10,4.888 -10,9.375 0,4.487 3.096,5.625 10,5.625 C -3.097,5.625 0,4.487 0,0"/></g><g transform="translate(15,11.4004)" id="g36"><path id="path38" style="fill:#662113;fill-opacity:1;fill-rule:nonzero;stroke:none" d="M 0,0 C 0,-1.857 -0.34,-2.4 -1.5,-2.4 -2.66,-2.4 -3,-1.857 -3,0 -3,1.856 -2.66,2.399 -1.5,2.399 -0.34,2.399 0,1.856 0,0"/></g><g transform="translate(24,11.4004)" id="g40"><path id="path42" style="fill:#662113;fill-opacity:1;fill-rule:nonzero;stroke:none" d="M 0,0 C 0,-1.857 -0.34,-2.4 -1.5,-2.4 -2.66,-2.4 -3,-1.857 -3,0 -3,1.856 -2.66,2.399 -1.5,2.399 -0.34,2.399 0,1.856 0,0"/></g></g></g></g></svg>
