<svg xmlns="http://www.w3.org/2000/svg" viewBox="0 0 45 45" width="100" height="100"><defs><clipPath id="a" clipPathUnits="userSpaceOnUse"><path d="M0 36h36V0H0v36z"/></clipPath></defs><g clip-path="url(#a)" transform="matrix(1.25 0 0 -1.25 0 45)"><path d="M9.998 26a1 1 0 00-.244 1.969c.036.01 3.593.962 5.352 4.478a1 1 0 101.789-.894c-2.181-4.362-6.471-5.478-6.652-5.523a.976.976 0 00-.245-.03M26 26c-.08 0-.161.01-.242.03-.182.045-4.472 1.161-6.653 5.523a1 1 0 001.79.894c1.757-3.517 5.315-4.468 5.351-4.478A1.001 1.001 0 0026 26" fill="#664500"/></g></svg>