<svg xmlns="http://www.w3.org/2000/svg" viewBox="0 0 45 45" width="100" height="100"><defs><clipPath id="a" clipPathUnits="userSpaceOnUse"><path d="M0 36h36V0H0v36z"/></clipPath></defs><g clip-path="url(#a)" transform="matrix(1.25 0 0 -1.25 0 45)"><path d="M29 26c-5.554 0-7.802 4.367-7.895 4.553a1 1 0 001.788.898C22.967 31.306 24.713 28 29 28a1 1 0 100-2M7 26a1 1 0 000 2c5.083 0 5.996 3.12 6.033 3.253.145.528.692.848 1.219.709a.995.995 0 00.718-1.205C14.921 30.563 13.704 26 7 26" fill="#664500"/></g></svg>