<svg xmlns="http://www.w3.org/2000/svg" viewBox="0 0 45 45" width="100" height="100"><defs><clipPath id="a" clipPathUnits="userSpaceOnUse"><path d="M0 36h36V0H0v36z"/></clipPath></defs><g clip-path="url(#a)" transform="matrix(1.25 0 0 -1.25 0 45)"><path d="M30 21a.987.987 0 00-.371.072c-5.229 2.09-7.372 5.24-7.461 5.374a1 1 0 001.662 1.112c.019-.028 1.93-2.786 6.541-4.63A1 1 0 0030 21M6 21a1.001 1.001 0 00-.372 1.929c4.612 1.844 6.523 4.602 6.542 4.63a1 1 0 001.662-1.113c-.089-.134-2.233-3.283-7.46-5.374A.99.99 0 006 21" fill="#664500"/></g></svg>