<svg xmlns="http://www.w3.org/2000/svg" viewBox="0 0 45 45" width="100" height="100"><defs><clipPath id="a" clipPathUnits="userSpaceOnUse"><path d="M0 36h36V0H0v36z"/></clipPath></defs><g clip-path="url(#a)" transform="matrix(1.25 0 0 -1.25 0 45)"><path d="M20.001 23a1 1 0 00-.987 1.165C19.407 26.529 21.584 31 27 31a1 1 0 100-2c-5.095 0-5.979-4.954-6.014-5.165a1 1 0 00-.985-.835M15.999 23a1 1 0 00-.985.833C14.978 24.044 14.059 29 9 29a1 1 0 000 2c5.416 0 7.592-4.471 7.986-6.835A1 1 0 0015.999 23" fill="#664500"/></g></svg>