<svg xmlns="http://www.w3.org/2000/svg" viewBox="0 0 45 45" width="100" height="100"><defs><clipPath id="a" clipPathUnits="userSpaceOnUse"><path d="M0 36h36V0H0v36z"/></clipPath></defs><g clip-path="url(#a)" transform="matrix(1.25 0 0 -1.25 0 45)"><path d="M29.001 22a.997.997 0 00-.801.4c-2.431 3.244-6.513.846-6.685.743a1 1 0 10-1.03 1.714c1.998 1.199 6.514 2.477 9.315-1.257a1 1 0 00-.799-1.6M6.999 22a1 1 0 00-.799 1.6c2.801 3.735 7.318 2.456 9.315 1.257a1 1 0 00-1.028-1.715c-.178.106-4.274 2.475-6.687-.742a1 1 0 00-.801-.4" fill="#664500"/></g></svg>