<svg xmlns="http://www.w3.org/2000/svg" viewBox="0 0 45 45" width="100" height="100"><defs><clipPath id="a" clipPathUnits="userSpaceOnUse"><path d="M0 36h36V0H0v36z"/></clipPath></defs><g clip-path="url(#a)" transform="matrix(1.25 0 0 -1.25 0 45)"><path d="M30.001 25a.997.997 0 00-.801.4c-2.64 3.521-6.061 3.599-6.206 3.6-.55.006-.994.456-.991 1.005A.997.997 0 0023 31c.184 0 4.537-.05 7.8-4.4a1 1 0 00-.799-1.6M5.999 25a1 1 0 00-.799 1.6C8.462 30.95 12.816 31 13 31a1 1 0 00.004-2c-.155-.002-3.569-.086-6.204-3.6a1 1 0 00-.801-.4" fill="#664500"/></g></svg>