<svg xmlns="http://www.w3.org/2000/svg" viewBox="0 0 45 45" width="100" height="100"><defs><clipPath id="a" clipPathUnits="userSpaceOnUse"><path d="M0 36h36V0H0v36z"/></clipPath></defs><g clip-path="url(#a)" transform="matrix(1.25 0 0 -1.25 0 45)"><path d="M5.999 23.542a1 1 0 00-.799 1.6c3.262 4.35 7.616 4.4 7.8 4.4a1 1 0 00.004-2c-.155-.002-3.569-.086-6.204-3.6a1 1 0 00-.801-.4M29.001 21.416a.997.997 0 00-.801.4c-2.592 3.456-6.961 2.627-7.004 2.62a.998.998 0 10-.392 1.96c.23.047 5.657 1.072 8.996-3.38a1 1 0 00-.799-1.6" fill="#664500"/></g></svg>