<svg xmlns="http://www.w3.org/2000/svg" viewBox="0 0 45 45" width="100" height="100"><defs><clipPath id="a" clipPathUnits="userSpaceOnUse"><path d="M0 36h36V0H0v36z"/></clipPath></defs><g clip-path="url(#a)" transform="matrix(1.25 0 0 -1.25 0 45)"><path d="M31 20c-.396 0-.772.238-.929.629-1.778 4.445-6.222 5.38-6.267 5.39a.999.999 0 10.392 1.96c.226-.043 5.556-1.167 7.733-6.607A1 1 0 0031 20M5 20a1 1 0 00-.928 1.372c2.176 5.44 7.507 6.564 7.732 6.608a1 1 0 00.396-1.96c-.185-.038-4.507-.98-6.271-5.391a1.003 1.003 0 00-.93-.63" fill="#664500"/></g></svg>