<svg xmlns="http://www.w3.org/2000/svg" viewBox="0 0 45 45" width="100" height="100"><defs><clipPath id="a" clipPathUnits="userSpaceOnUse"><path d="M0 36h36V0H0v36z"/></clipPath></defs><g clip-path="url(#a)" transform="matrix(1.25 0 0 -1.25 0 45)"><path d="M31.001 20a.997.997 0 00-.801.4c-2.64 3.521-6.061 3.599-6.206 3.6-.55.006-.994.456-.991 1.005A.997.997 0 0024 26c.184 0 4.537-.05 7.8-4.4a1 1 0 00-.799-1.6M4.999 20a1 1 0 00-.799 1.6C7.462 25.95 11.816 26 12 26a1 1 0 00.004-2c-.155-.002-3.568-.086-6.204-3.6a1 1 0 00-.801-.4" fill="#664500"/></g></svg>