<svg xmlns="http://www.w3.org/2000/svg" viewBox="0 0 45 45" width="100" height="100"><defs><clipPath id="a" clipPathUnits="userSpaceOnUse"><path d="M0 36h36V0H0v36z"/></clipPath></defs><g clip-path="url(#a)" transform="matrix(1.25 0 0 -1.25 0 45)"><path d="M29.001 23a.997.997 0 00-.801.4c-2.592 3.456-6.961 2.628-7.004 2.62a.998.998 0 10-.392 1.96c.23.048 5.657 1.072 8.996-3.38a1 1 0 00-.799-1.6M6.999 23a1 1 0 00-.799 1.6c3.34 4.454 8.766 3.426 8.996 3.38a1 1 0 00-.389-1.961c-.187.034-4.437.807-7.007-2.619a1 1 0 00-.801-.4" fill="#664500"/></g></svg>