<svg xmlns="http://www.w3.org/2000/svg" viewBox="0 0 45 45" width="100" height="100"><defs><clipPath id="a" clipPathUnits="userSpaceOnUse"><path d="M0 36h36V0H0v36z"/></clipPath></defs><g clip-path="url(#a)" transform="matrix(1.25 0 0 -1.25 0 45)"><path d="M13.114 29.998A1 1 0 0013.04 28c-.156.004-3.57.053-6.34-3.357a1 1 0 10-1.552 1.262c3.429 4.22 7.782 4.101 7.965 4.094M22.517 28.326c.18.033 4.473.763 8.46-2.933a.998.998 0 00.055-1.413.997.997 0 00-1.413-.054c-3.228 2.99-6.607 2.456-6.75 2.43a1.003 1.003 0 00-1.155.813.997.997 0 00.803 1.157" fill="#664500"/></g></svg>