<?xml version="1.0" encoding="UTF-8" standalone="no"?>
<svg
    xmlns:dc="http://purl.org/dc/elements/1.1/"
    xmlns:cc="http://creativecommons.org/ns#"
    xmlns:rdf="http://www.w3.org/1999/02/22-rdf-syntax-ns#"
    xmlns:svg="http://www.w3.org/2000/svg"
    xmlns="http://www.w3.org/2000/svg" viewBox="0 0 45 45" style="enable-background:new 0 0 45 45;" width="100" height="100" xml:space="preserve" version="1.1" id="svg2">
    <defs id="defs6">
        <clipPath id="clipPath16" clipPathUnits="userSpaceOnUse">
            <path id="path18" d="M 0,36 36,36 36,0 0,0 0,36 Z"/>
        </clipPath>
    </defs>
    <g transform="matrix(1.25,0,0,-1.25,0,45)" id="g10">
        <g id="g12">
            <g clip-path="url(#clipPath16)" id="g14">
                <g transform="translate(15.3911,15.9199)" id="g44">
                    <path id="path46" style="fill:#f5f8fa;fill-opacity:1;fill-rule:nonzero;stroke:none" d="m 0,0 c -0.453,0.195 -0.979,0.027 -1.239,-0.39 l -5,-8 c -0.193,-0.308 -0.203,-0.697 -0.027,-1.014 0.177,-0.319 0.511,-0.516 0.875,-0.516 l 3,0 c 0.459,0 0.859,0.313 0.97,0.758 l 2,8 C 0.698,-0.686 0.453,-0.192 0,0"/>
                </g>
                <g transform="translate(26.8477,7.5303)" id="g48">
                    <path id="path50" style="fill:#f5f8fa;fill-opacity:1;fill-rule:nonzero;stroke:none" d="M 0,0 -5,8 C -5.262,8.418 -5.787,8.584 -6.238,8.39 -6.691,8.197 -6.937,7.704 -6.817,7.228 l 2,-8 c 0.111,-0.446 0.51,-0.758 0.969,-0.758 l 3,0 c 0.364,0 0.698,0.197 0.875,0.515 C 0.203,-0.697 0.193,-0.309 0,0"/>
                </g>
                <g transform="translate(31.9824,5.8223)" id="g52">
                    <path id="path54" style="fill:#e1e8ed;fill-opacity:1;fill-rule:nonzero;stroke:none" d="m 0,0 c 0.003,0.06 0.018,0.117 0.018,0.178 0,1.656 -1.344,3 -3,3 -1.028,0 -1.932,-0.518 -2.473,-1.305 -0.471,0.194 -0.986,0.305 -1.527,0.305 -2.209,0 -4,-1.791 -4,-4 0,-2.209 1.791,-4 4,-4 1.365,0 2.568,0.686 3.29,1.731 0.479,-1.02 1.507,-1.731 2.71,-1.731 1.657,0 3,1.343 3,3 C 2.018,-1.511 1.172,-0.408 0,0"/>
                </g>
                <g transform="translate(11,8)" id="g56">
                    <path id="path58" style="fill:#e1e8ed;fill-opacity:1;fill-rule:nonzero;stroke:none" d="M 0,0 C -0.542,0 -1.056,-0.11 -1.527,-0.305 -2.068,0.482 -2.973,1 -4,1 -5.656,1 -7,-0.344 -7,-2 -7,-2.061 -6.986,-2.118 -6.982,-2.178 -8.154,-2.586 -9,-3.688 -9,-5 c 0,-1.657 1.343,-3 3,-3 1.202,0 2.231,0.711 2.709,1.731 C -2.568,-7.313 -1.366,-8 0,-8 c 2.209,0 4,1.791 4,4 0,2.209 -1.791,4 -4,4"/>
                </g>
            </g>
        </g>
    </g>
</svg>
