<?xml version="1.0" encoding="UTF-8" standalone="no"?>
<svg
    xmlns:dc="http://purl.org/dc/elements/1.1/"
    xmlns:cc="http://creativecommons.org/ns#"
    xmlns:rdf="http://www.w3.org/1999/02/22-rdf-syntax-ns#"
    xmlns:svg="http://www.w3.org/2000/svg"
    xmlns="http://www.w3.org/2000/svg" viewBox="0 0 45 45" style="enable-background:new 0 0 45 45;" width="100" height="100" xml:space="preserve" version="1.1" id="svg2">
    <defs id="defs6">
        <clipPath id="clipPath40" clipPathUnits="userSpaceOnUse">
            <path id="path42" d="M 18,36 C 8.059,36 0,27.941 0,18 l 0,0 C 0,8.059 8.059,0 18,0 l 0,0 c 9.941,0 18,8.059 18,18 l 0,0 c 0,9.941 -8.059,18 -18,18 z"/>
        </clipPath>
    </defs>
    <g transform="matrix(1.25,0,0,-1.25,0,45)" id="g10">
        <g id="g36">
            <g clip-path="url(#clipPath40)" id="g38">
                <g transform="translate(43.4307,20.2417)" id="g44">
                    <path id="path46" style="fill:#e6e7e8;fill-opacity:1;fill-rule:nonzero;stroke:none" d="m 0,0 -45.835,8.342 0.379,2.083 L 0.379,2.083 0,0 Z"/>
                </g>
                <g transform="translate(43.8096,22.3252)" id="g48">
                    <path id="path50" style="fill:#bcbec0;fill-opacity:1;fill-rule:nonzero;stroke:none" d="M 0,0 -45.835,8.342 -45.646,9.384 0.189,1.042 0,0 Z"/>
                </g>
                <g transform="translate(43.999,23.3672)" id="g52">
                    <path id="path54" style="fill:#e6e7e8;fill-opacity:1;fill-rule:nonzero;stroke:none" d="m 0,0 -45.835,8.342 0.379,2.083 L 0.38,2.083 0,0 Z"/>
                </g>
                <g transform="translate(44.3789,25.4507)" id="g56">
                    <path id="path58" style="fill:#d1d3d4;fill-opacity:1;fill-rule:nonzero;stroke:none" d="m 0,0 -45.836,8.342 0.19,1.041 L 0.188,1.041 0,0 Z"/>
                </g>
                <g transform="translate(44.5674,26.4922)" id="g60">
                    <path id="path62" style="fill:#e6e7e8;fill-opacity:1;fill-rule:nonzero;stroke:none" d="m 0,0 -45.834,8.342 0.378,2.083 L 0.38,2.083 0,0 Z"/>
                </g>
                <g transform="translate(-6.8877,23.3252)" id="g64">
                    <path id="path66" style="fill:#bcbec0;fill-opacity:1;fill-rule:nonzero;stroke:none" d="M 0,0 45.835,8.342 45.645,9.384 -0.189,1.042 0,0 Z"/>
                </g>
                <g transform="translate(-7.0771,24.3672)" id="g68">
                    <path id="path70" style="fill:#e6e7e8;fill-opacity:1;fill-rule:nonzero;stroke:none" d="M 0,0 45.835,8.342 45.456,10.425 -0.38,2.083 0,0 Z"/>
                </g>
                <g transform="translate(-7.457,26.4507)" id="g72">
                    <path id="path74" style="fill:#d1d3d4;fill-opacity:1;fill-rule:nonzero;stroke:none" d="M 0,0 45.836,8.342 45.647,9.383 -0.188,1.042 0,0 Z"/>
                </g>
                <g transform="translate(-7.6455,27.4922)" id="g76">
                    <path id="path78" style="fill:#e6e7e8;fill-opacity:1;fill-rule:nonzero;stroke:none" d="M 0,0 45.835,8.342 45.456,10.425 -0.38,2.083 0,0 Z"/>
                </g>
            </g>
        </g>
    </g>
</svg>
