<?xml version="1.0" encoding="UTF-8" standalone="no"?>
<svg
    xmlns:dc="http://purl.org/dc/elements/1.1/"
    xmlns:cc="http://creativecommons.org/ns#"
    xmlns:rdf="http://www.w3.org/1999/02/22-rdf-syntax-ns#"
    xmlns:svg="http://www.w3.org/2000/svg"
    xmlns="http://www.w3.org/2000/svg" viewBox="0 0 45 45" style="enable-background:new 0 0 45 45;" xml:space="preserve" width="100" height="100" version="1.1" id="svg2">
    <defs id="defs6">
        <clipPath id="clipPath16" clipPathUnits="userSpaceOnUse">
            <path id="path18" d="M 0,36 36,36 36,0 0,0 0,36 Z"/>
        </clipPath>
    </defs>
    <g transform="matrix(1.25,0,0,-1.25,0,45)" id="g10">
        <g id="g12">
            <g clip-path="url(#clipPath16)" id="g14">
                <g transform="translate(18.4059,17.9672)" id="g36">
                    <path id="path38" style="fill:#ccd6dd;fill-opacity:1;fill-rule:nonzero;stroke:none" d="m 0,0 c 2.678,-2.676 -3.974,-15.524 -5.25,-16.8 -1.05,-1.05 -4.2,-1.05 -5.25,1.05 -1.05,2.1 -4.2,0 -5.25,1.05 -2.1,2.1 1.05,3.15 0,5.25 -1.05,2.1 -3.15,3.15 -1.05,5.25 2.1,2.1 7.35,1.05 10.5,3.15 3.15,2.1 5.249,2.1 6.3,1.05"/>
                </g>
                <g transform="translate(17.3217,16.128)" id="g40">
                    <path id="path42" style="fill:#f5f8fa;fill-opacity:1;fill-rule:nonzero;stroke:none" d="m 0,0 c -0.016,0.062 -0.053,0.113 -0.079,0.17 -0.03,0.066 -0.051,0.135 -0.094,0.194 -0.161,0.217 -0.405,0.374 -0.694,0.415 0,0 -0.001,0 -0.001,0 C -1.005,0.798 -1.142,0.79 -1.274,0.757 -1.364,0.734 -1.443,0.685 -1.523,0.64 -1.561,0.619 -1.604,0.61 -1.639,0.584 -1.75,0.502 -1.845,0.399 -1.917,0.279 c -2.934,-4.89 -9.942,-7.944 -10.013,-7.975 -0.532,-0.229 -0.778,-0.846 -0.55,-1.379 0.171,-0.398 0.558,-0.636 0.965,-0.636 0.138,0 0.279,0.027 0.413,0.085 0.224,0.096 4.056,1.771 7.426,4.713 -2.068,-3.825 -5.23,-5.996 -5.274,-6.025 -0.481,-0.323 -0.61,-0.974 -0.288,-1.456 0.203,-0.303 0.535,-0.467 0.874,-0.467 0.2,0 0.402,0.058 0.581,0.177 0.273,0.182 6.702,4.549 7.806,12.273 C 0.043,-0.272 0.034,-0.133 0,0"/>
                </g>
            </g>
        </g>
    </g>
</svg>
