<?xml version="1.0" encoding="UTF-8" standalone="no"?>
<svg
    xmlns:dc="http://purl.org/dc/elements/1.1/"
    xmlns:cc="http://creativecommons.org/ns#"
    xmlns:rdf="http://www.w3.org/1999/02/22-rdf-syntax-ns#"
    xmlns:svg="http://www.w3.org/2000/svg"
    xmlns="http://www.w3.org/2000/svg" viewBox="0 0 45 45" style="enable-background:new 0 0 45 45;" width="100" height="100" xml:space="preserve" version="1.1" id="svg2">
    <defs id="defs6">
        <clipPath id="clipPath16" clipPathUnits="userSpaceOnUse">
            <path id="path18" d="M 0,36 36,36 36,0 0,0 0,36 Z"/>
        </clipPath>
    </defs>
    <g transform="matrix(1.25,0,0,-1.25,0,45)" id="g10">
        <g id="g12">
            <g clip-path="url(#clipPath16)" id="g14">
                <g transform="translate(35.4043,8.7783)" id="g44">
                    <path id="path46" style="fill:#e75a70;fill-opacity:1;fill-rule:nonzero;stroke:none" d="m 0,0 c 0.739,1.516 0.11,3.347 -1.405,4.086 -0.922,0.449 -1.956,0.391 -2.793,-0.06 -0.16,0.937 -0.75,1.789 -1.67,2.238 -1.518,0.74 -3.348,0.109 -4.087,-1.407 -0.106,-0.214 -0.18,-0.436 -0.231,-0.659 -0.774,-2.555 0.64,-6.341 2.193,-7.948 2.223,-0.234 6.077,0.979 7.615,3.161 C -0.233,-0.41 -0.105,-0.215 0,0"/>
                </g>
            </g>
        </g>
    </g>
</svg>
