<?xml version="1.0" encoding="UTF-8" standalone="no"?>
<svg
    xmlns:dc="http://purl.org/dc/elements/1.1/"
    xmlns:cc="http://creativecommons.org/ns#"
    xmlns:rdf="http://www.w3.org/1999/02/22-rdf-syntax-ns#"
    xmlns:svg="http://www.w3.org/2000/svg"
    xmlns="http://www.w3.org/2000/svg" viewBox="0 0 45 45" style="enable-background:new 0 0 45 45;" width="100" height="100" xml:space="preserve" version="1.1" id="svg2">
    <defs id="defs6">
        <clipPath id="clipPath16" clipPathUnits="userSpaceOnUse">
            <path id="path18" d="M 0,36 36,36 36,0 0,0 0,36 Z"/>
        </clipPath>
    </defs>
    <g transform="matrix(1.25,0,0,-1.25,0,45)" id="g10">
        <g id="g12">
            <g clip-path="url(#clipPath16)" id="g14">
                <g transform="translate(27,13.9092)" id="g32">
                    <path id="path34" style="fill:#f5f8fa;fill-opacity:1;fill-rule:nonzero;stroke:none" d="M 0,0 9,4.091 C 9,4.751 8.959,5.4 8.891,6.041 L 0,2 0,3.091 c 0,1.104 -0.895,2 -2,2 l -14,0 c -1.104,0 -2,-0.896 -2,-2 L -18,2 -26.89,6.041 C -26.959,5.4 -27,4.751 -27,4.091 L -18,0 l 0,-4.546 -7.453,1.356 c 0.341,-0.77 0.741,-1.507 1.182,-2.215 l 6.271,-1.141 0,-1.363 c 0,-1.105 0.896,-2 2,-2 l 14,0 c 1.105,0 2,0.895 2,2 l 0,1.363 6.271,1.141 c 0.442,0.708 0.841,1.445 1.182,2.215 L 0,-4.546 0,0 Z"/>
                </g>
            </g>
        </g>
    </g>
</svg>
