<?xml version="1.0" encoding="UTF-8" standalone="no"?>
<svg
    xmlns:dc="http://purl.org/dc/elements/1.1/"
    xmlns:cc="http://creativecommons.org/ns#"
    xmlns:rdf="http://www.w3.org/1999/02/22-rdf-syntax-ns#"
    xmlns:svg="http://www.w3.org/2000/svg"
    xmlns="http://www.w3.org/2000/svg" viewBox="0 0 45 45" style="enable-background:new 0 0 45 45;" width="100" height="100" xml:space="preserve" version="1.1" id="svg2">
    <defs id="defs6">
        <clipPath id="clipPath16" clipPathUnits="userSpaceOnUse">
            <path id="path18" d="M 0,36 36,36 36,0 0,0 0,36 Z"/>
        </clipPath>
    </defs>
    <g transform="matrix(1.25,0,0,-1.25,0,45)" id="g10">
        <g id="g12">
            <g clip-path="url(#clipPath16)" id="g14">
                <g transform="translate(30.8916,22.9756)" id="g80">
                    <path id="path82" style="fill:#292f33;fill-opacity:1;fill-rule:nonzero;stroke:none" d="m 0,0 c -0.119,-0.954 -0.435,-3.515 -1.265,-4.134 -0.664,-0.495 -2.362,-0.842 -3.587,-0.842 l -10e-4,0 c -1.106,0 -2.163,0.282 -2.974,0.743 -1.323,0.753 -1.52,2.862 -1.597,3.967 -0.043,0.608 -0.176,1.85 0.829,2.468 1.135,0.698 3.462,0.746 4.155,0.746 1.513,0 2.992,-0.277 4.052,-0.638 C 0.28,2.082 0.076,0.607 0,0 m -16.277,-0.253 c -0.078,-1.105 -0.274,-3.227 -1.597,-3.98 -0.812,-0.461 -1.868,-0.743 -2.975,-0.743 l -0.001,0 c -1.225,0 -2.923,0.347 -3.587,0.842 -0.83,0.619 -1.145,3.167 -1.265,4.12 -0.076,0.607 -0.279,2.091 0.388,2.319 1.061,0.361 2.539,0.643 4.052,0.643 0.693,0 3.021,-0.043 4.155,-0.741 1.005,-0.618 0.872,-1.852 0.83,-2.46 M 3.917,3.397 C 3.746,3.564 2.65,3.123 1.541,3.688 -0.747,4.854 -6.529,5.98 -10.293,3.313 -10.696,3.027 -12.38,2.979 -12.851,3 c -0.47,-0.021 -2.155,0.027 -2.558,0.313 -3.763,2.667 -9.546,1.541 -11.833,0.375 -1.11,-0.565 -2.206,-0.124 -2.376,-0.291 -0.248,-0.239 -0.247,-1.196 0,-1.435 0.246,-0.239 1.477,-0.515 1.722,-1.233 0.247,-0.718 0.249,-4.958 2.214,-6.423 1.838,-1.372 6.128,-1.785 8.847,-0.239 2.373,1.35 2.289,4.19 2.724,5.881 0.155,0.604 0.592,0.908 1.26,0.908 0.669,0 1.105,-0.304 1.26,-0.908 0.435,-1.691 0.352,-4.531 2.724,-5.881 2.719,-1.546 7.009,-1.133 8.848,0.239 1.965,1.465 1.967,5.705 2.213,6.423 0.245,0.718 1.476,0.994 1.722,1.233 0.248,0.239 0.248,1.196 10e-4,1.435"/>
                </g>
            </g>
        </g>
    </g>
</svg>
