<?xml version="1.0" encoding="UTF-8" standalone="no"?>
<svg
    xmlns:dc="http://purl.org/dc/elements/1.1/"
    xmlns:cc="http://creativecommons.org/ns#"
    xmlns:rdf="http://www.w3.org/1999/02/22-rdf-syntax-ns#"
    xmlns:svg="http://www.w3.org/2000/svg"
    xmlns="http://www.w3.org/2000/svg" viewBox="0 0 45 45" style="enable-background:new 0 0 45 45;" width="100" height="100" xml:space="preserve" version="1.1" id="svg2">
    <defs id="defs6">
        <clipPath id="clipPath16" clipPathUnits="userSpaceOnUse">
            <path id="path18" d="M 0,36 36,36 36,0 0,0 0,36 Z"/>
        </clipPath>
    </defs>
    <g transform="matrix(1.25,0,0,-1.25,0,45)" id="g10">
        <g id="g12">
            <g clip-path="url(#clipPath16)" id="g14">
              <g transform="translate(17.2764,0.8682)" id="g44">
         <path id="path46" style="fill:#f4900c;fill-opacity:1;fill-rule:nonzero;stroke:none" d="m 0,0 c 0,0 1.265,0.411 1.429,1.352 0.173,0.971 -0.624,1.167 -0.624,1.167 0,0 1.041,0.208 1.172,1.376 0.123,1.1 -0.862,1.363 -0.862,1.363 0,0 0.97,0.4 1.016,1.539 0.038,0.959 -0.995,1.428 -0.995,1.428 0,0 5.038,1.22 5.555,1.34 0.516,0.121 1.321,0.616 1.07,1.695 -0.249,1.08 -1.204,1.118 -1.698,1.003 -0.494,-0.116 -6.744,-1.567 -8.9,-2.069 -0.23,-0.053 -1.308,-0.302 -1.439,-0.334 -0.54,-0.127 -0.785,0.111 -0.405,0.512 0.509,0.536 0.833,1.129 0.947,2.113 0.119,1.036 -0.232,2.314 -0.433,2.809 -0.374,0.921 -1.005,1.649 -1.734,1.899 -1.138,0.39 -1.946,-0.321 -1.542,-1.561 0.604,-1.855 0.209,-3.375 -0.833,-4.293 -2.449,-2.157 -3.589,-3.695 -2.83,-6.973 0.827,-3.575 4.377,-5.876 7.952,-5.048 C -2.965,-0.64 0,0 0,0" />
     </g>
            </g>
        </g>
    </g>
</svg>
