<?xml version="1.0" encoding="UTF-8"?>
<svg enable-background="new 0 0 45 45" version="1.1" viewBox="0 0 45 45" xml:space="preserve" xmlns="http://www.w3.org/2000/svg" xmlns:cc="http://creativecommons.org/ns#" xmlns:dc="http://purl.org/dc/elements/1.1/" xmlns:rdf="http://www.w3.org/1999/02/22-rdf-syntax-ns#"><metadata><rdf:RDF><cc:Work rdf:about=""><dc:format>image/svg+xml</dc:format><dc:type rdf:resource="http://purl.org/dc/dcmitype/StillImage"/><dc:title/></cc:Work></rdf:RDF></metadata><g transform="matrix(1.3056 0 0 1.3056 32.075 -19.817)"><g transform="translate(-2.8284 2.1213)" fill="#e75a70"><g transform="matrix(.56987 0 0 -.44821 -10.171 25.107)"><path d="m-0.27693 0.64579s-5.2652 3.0265-4.4271 10.127c0.74296 6.2943 7.223 7.41 7.223 7.41s0.6166-2.0607 1.4291-4.0125c-4.8186-2.5429-6.5586-5.8723-1.4312-10.431-1.6111-2.0721-2.7938-3.0932-2.7938-3.0932z" fill="#e75a70"/></g><g transform="matrix(0 .56987 .44821 0 -20.417 24.006)"><path d="m-0.27693 0.64579s-5.2652 3.0265-4.4271 10.127c0.74296 6.2943 7.223 7.41 7.223 7.41s0.6166-2.0607 1.4291-4.0125c-4.8186-2.5429-6.5586-5.8723-1.4312-10.431-1.6111-2.0721-2.7938-3.0932-2.7938-3.0932z" fill="#e75a70"/></g><g transform="matrix(-.56987 0 0 .44821 -19.053 13.983)"><path d="m-0.27693 0.64579s-5.2652 3.0265-4.4271 10.127c0.74296 6.2943 7.223 7.41 7.223 7.41s0.6166-2.0607 1.4291-4.0125c-4.8186-2.5429-6.5586-5.8723-1.4312-10.431-1.6111-2.0721-2.7938-3.0932-2.7938-3.0932z" fill="#e75a70"/></g><g transform="matrix(0 -.56987 -.44821 0 -9.1344 15.199)"><path d="m-0.27693 0.64579s-5.2652 3.0265-4.4271 10.127c0.74296 6.2943 7.223 7.41 7.223 7.41s0.6166-2.0607 1.4291-4.0125c-4.8186-2.5429-6.5586-5.8723-1.4312-10.431-1.6111-2.0721-2.7938-3.0932-2.7938-3.0932z" fill="#e75a70"/></g></g></g></svg>
