<svg xmlns="http://www.w3.org/2000/svg" viewBox="0 0 45 45" width="100" height="100"><defs><clipPath id="a" clipPathUnits="userSpaceOnUse"><path d="M0 36h36V0H0v36z"/></clipPath></defs><g clip-path="url(#a)" transform="matrix(1.25 0 0 -1.25 0 45)"><path d="M18 36C8.06 36 0 27.94 0 18 0 11.949 2.996 6.608 7.574 3.345 7.678 9.783 5.337 17 1.404 17c-.464 0-.84-.066-1.153-.183.303.757.96 1.182 2.189 1.182 4.27 0 6.666-8.506 6.093-15.287A17.885 17.885 0 0118 0c3.479 0 6.716 1.004 9.47 2.713C26.893 9.52 29.288 18 33.561 18c1.233 0 1.891-.426 2.192-1.183-.314.117-.691.183-1.157.183-3.938 0-6.279-7.199-6.17-13.655C33.005 6.608 36 11.949 36 18c0 9.94-8.059 18-18 18" fill="#ffcc4d"/><path d="M1.404 17c-.464 0-.84-.066-1.153-.183.072.179.167.336.281.477C-1.33 15.002 2.848 7.46.818 0H7.28c1.188 6.96-1.236 17-5.875 17m34.348-.183c-.313.116-.69.183-1.157.183-4.641 0-7.066-10.002-5.873-17h6.46c-1.906 7.045 1.656 14.088.57 16.817" fill="#fcab40"/></g></svg>