<svg xmlns="http://www.w3.org/2000/svg" viewBox="0 0 45 45" width="100" height="100"><defs><clipPath id="a" clipPathUnits="userSpaceOnUse"><path d="M0 36h36V0H0v36z"/></clipPath></defs><g clip-path="url(#a)" transform="matrix(1.25 0 0 -1.25 0 45)" fill="#ffcc4d"><path d="M36 18c0-9.941-8.059-18-18-18S0 8.059 0 18c0 9.94 8.059 18 18 18s18-8.06 18-18"/><path d="M10 32c-2.58 0-5.631 2.466-6.586 3.414A1.999 1.999 0 010 34c0-3.46 1.672-10 8-10 .757 0 1.45.428 1.789 1.105l2 4A1.999 1.999 0 0110 32m24.766 3.847a1.996 1.996 0 01-2.18-.434C31.7 34.528 28.589 32 26 32a2.001 2.001 0 01-1.79-2.894l2-4A2.003 2.003 0 0128 24c6.329 0 8 6.541 8 10a2 2 0 01-1.234 1.848"/></g></svg>