<svg xmlns="http://www.w3.org/2000/svg" viewBox="0 0 45 45" width="100" height="100"><defs><clipPath id="a" clipPathUnits="userSpaceOnUse"><path d="M0 36h36V0H0v36z"/></clipPath></defs><g clip-path="url(#a)" transform="matrix(1.25 0 0 -1.25 0 45)"><path d="M33.541 12.802c.364 1.578.243 3.266-.458 4.946a8.018 8.018 0 01-3.271 3.773c.319 1.193.235 2.475-.324 3.75-.84 1.92-2.66 3.202-4.712 3.563.249.572.329 1.288.036 2.167-1 3-5 1-8 4.999-2.439-1.464-2.969-3.64-2.877-5.487-2.422-.412-3.8-.936-3.8-.936v-.002a3.715 3.715 0 01-2.323-3.443c0-.88.318-1.676.829-2.312l-.692-.26.001-.002c-2.33-.87-3.975-2.976-3.975-5.44 0-1.046.3-2.026.82-2.877C1.971 13.973 0 11.219 0 8c0-4.418 3.691-8 8.244-8 3.269 0 6.559.703 9.531 1.665C20.018.625 23.47 0 28.667 0A7.333 7.333 0 0136 7.333a7.31 7.31 0 01-2.459 5.469" fill="#bf6952"/></g></svg>