<svg xmlns="http://www.w3.org/2000/svg" viewBox="0 0 45 45" width="100" height="100"><defs><clipPath id="a" clipPathUnits="userSpaceOnUse"><path d="M0 36h36V0H0v36z"/></clipPath></defs><g clip-path="url(#a)" transform="matrix(1.25 0 0 -1.25 0 45)"><path d="M34.964 24.045L35 24s1 10 0 11c-.91.91-6.771-.66-7.822-.951-2.426 1.234-5.443 1.95-9.178 1.95-3.73 0-6.742-.718-9.165-1.953-1.02.283-6.922 1.867-7.835.954-1-1 0-11 0-11l.047.059C.307 21.506 0 18.749 0 15.999c0-5.505 3.376-9.817 7.577-12.571C7.657 9.845 5.32 17 1.404 17c-.464 0-.84-.066-1.152-.183.302.757.96 1.183 2.189 1.183 4.245 0 6.638-8.411 6.102-15.174C11.688.99 15.17 0 18 0c2.83 0 6.315.982 9.46 2.812C26.916 9.602 29.31 18 33.56 18c1.234 0 1.892-.426 2.193-1.183-.313.117-.69.183-1.157.183-3.924 0-6.264-7.151-6.171-13.592C32.624 6.153 36 10.462 36 16c0 2.752-.306 5.502-1.036 8.045" fill="#ffcc4d"/><path d="M35.753 16.817c-.313.116-.69.183-1.157.183-4.641 0-7.066-10.002-5.873-17h6.46c-1.906 7.045 1.656 14.088.57 16.817M1.404 17c-.464 0-.84-.066-1.153-.183.072.179.167.336.281.477C-1.33 15.002 2.848 7.46.818 0H7.28c1.188 6.96-1.236 17-5.875 17" fill="#fcab40"/></g></svg>