<svg xmlns="http://www.w3.org/2000/svg" viewBox="0 0 47.5 47.5" width="100" height="100"><defs><clipPath id="a" clipPathUnits="userSpaceOnUse"><path d="M0 38h38V0H0v38z"/></clipPath></defs><g clip-path="url(#a)" transform="matrix(1.25 0 0 -1.25 0 47.5)"><path d="M36 19c0-9.389-7.611-17-17-17C9.612 2 2 9.611 2 19c0 9.388 7.612 17 17 17 9.389 0 17-7.612 17-17" fill="#ffcc4d"/><path d="M19 30c-6.627 0-12 .567-12 2.5S12.373 35 19 35s12-.567 12-2.5S25.627 30 19 30m0 7c-8.836 0-16-1.686-16-5 0-3.313 7.164-5 16-5s16 1.687 16 5c0 3.314-7.164 5-16 5" fill="#5dadec"/></g></svg>