<svg xmlns="http://www.w3.org/2000/svg" viewBox="0 0 45 45" width="100" height="100"><defs><clipPath id="a" clipPathUnits="userSpaceOnUse"><path d="M0 36h36V0H0v36z"/></clipPath></defs><g clip-path="url(#a)" transform="matrix(1.25 0 0 -1.25 0 45)"><path d="M1.063 30.875s4.875 5 10 5c6.124 0 7.936-4.938 7.936-4.938s.626 4 5 4c4.376 0 6.939-3.125 6.939-3.125s-3.563-2.124-4.625-2.562c-2.801-1.153-11.375-3.562-15.375-2.562-4 .999-9.876 4.187-9.876 4.187" fill="#5c913b"/><path d="M18 30s1.042.896 6 .896c6.542 0 12-4.813 12-12.927C36 6.438 21.042.088 21.042.088S1 1.167 1 18.023C1 27.982 7.75 31 12 31c4.958 0 6-1 6-1" fill="#ff886c"/><path d="M1.063 30.875s4.875 5 10 5c6.124 0 7.936-4.938 7.936-4.938s-4.061-5.249-8.061-4.249c-4 .999-9.876 4.187-9.876 4.187" fill="#77b255"/></g></svg>