<svg xmlns="http://www.w3.org/2000/svg" viewBox="0 0 45 45" width="100" height="100"><defs><clipPath id="a" clipPathUnits="userSpaceOnUse"><path d="M0 36h36V0H0v36z"/></clipPath></defs><g clip-path="url(#a)" transform="matrix(1.25 0 0 -1.25 0 45)"><path d="M18 31h6c7 0 11-7.887 11-16C35 0 26 0 18 0S1 0 1 15c0 9.958 6 16 11 16h6" fill="#f18f26"/><path d="M20.873 30.764a.637.637 0 00-.647-.764h-4.452a.636.636 0 00-.647.764l.746 4.472c.07.42.476.764.901.764h2.452a.948.948 0 00.901-.764l.746-4.472z" fill="#3f7123"/><path d="M16 30s2 5.001 8 5.001c5 0 7-5 7-5L16 30z" fill="#5c913b"/></g></svg>