<svg xmlns="http://www.w3.org/2000/svg" viewBox="0 0 45 45" width="100" height="100"><defs><clipPath id="a" clipPathUnits="userSpaceOnUse"><path d="M0 36h36V0H0v36z"/></clipPath></defs><g clip-path="url(#a)" transform="matrix(1.25 0 0 -1.25 0 45)"><path d="M6 16c0-2.209-1.119-4-2.5-4S1 13.791 1 16c0 2.21 1.119 4.001 2.5 4.001S6 18.21 6 16m29 0c0-2.209-1.119-4-2.5-4S30 13.791 30 16c0 2.21 1.119 4.001 2.5 4.001S35 18.21 35 16" fill="#ffdc5d"/><path d="M4 15.438c0 8.525 6.268 15.438 14 15.438s14-6.912 14-15.438C32 6.913 25.732 1 18 1S4 6.913 4 15.438" fill="#ffdc5d"/><path d="M18 35.645c-9.23 0-15-6.462-15-11.846 0-5.385 1.154-7.539 2.308-5.385l2.307 4.308s3.792.124 6.099 2.278c0 0-1.071-4 6.595-.125 0 0-.166-3.875 5.191.125 0 0 4.039-1.2 5.191-6.586.321-1.494 2.309 0 2.309 5.385 0 5.384-4.615 11.846-15 11.846" fill="#ffac33"/></g></svg>