<svg xmlns="http://www.w3.org/2000/svg" viewBox="0 0 45 45" width="100" height="100"><defs><clipPath id="a" clipPathUnits="userSpaceOnUse"><path d="M0 36h36V0H0v36z"/></clipPath></defs><g clip-path="url(#a)" transform="matrix(1.25 0 0 -1.25 0 45)"><path d="M32.733 25.367C32.733 21.299 26.136 18 18 18c-8.138 0-14.734 3.299-14.734 7.367C3.266 29.436 4.4 34 18 34s14.733-4.565 14.733-8.634" fill="#d1d3d4"/><path d="M32.167 22.534c-.318 0-.619-.103-.904-.258C29.903 29.892 24.486 35 18 35c-6.487 0-11.903-5.11-13.263-12.724-.285.154-.586.257-.904.257C2.269 22.534 1 20.504 1 18s1.269-4.533 2.833-4.533c.381 0 .744.124 1.075.342C6.503 6.426 11.753.999 18 .999c6.247 0 11.497 5.427 13.091 12.81a1.943 1.943 0 011.076-.342C33.731 13.467 35 15.496 35 18c0 2.504-1.269 4.534-2.833 4.534" fill="#ffdc5d"/></g></svg>