<svg viewBox="0 0 45 45" width="100" height="100" xmlns="http://www.w3.org/2000/svg"><g fill="#ffcc4d"><path d="M27.197 8.324C20.037 3.341 5.137-.4 2.08.074-.407.453-.02 13.43 1.977 20.855c8.464-8.888 25.22-12.53 25.22-12.53"/><path d="M17.975 9.461C14 5.691 5.727 2.86 4.03 3.22c-1.38.286-1.166 10.105-.057 15.724 4.699-6.725 14.001-9.482 14.001-9.482" fill="#ff7892"/><path d="M17.803 8.324C24.963 3.341 39.863-.4 42.92.074c2.487.379 2.1 13.355.103 20.781-8.464-8.888-25.22-12.53-25.22-12.53"/><path d="M27.025 9.461C31 5.691 39.273 2.86 40.97 3.22c1.38.286 1.166 10.105.057 15.724-4.699-6.725-14.001-9.482-14.001-9.482" fill="#ff7892"/></g><path d="M43.375 24.125C43.375 35.654 34.029 45 22.5 45 10.973 45 1.626 35.654 1.626 24.125 1.626 12.598 10.973 3.25 22.5 3.25c11.529 0 20.875 9.348 20.875 20.875" fill="#ffcc4d"/><g fill="#f4900c"><path d="M1.538 24.423c.133.158.353.243.617.215.04-.005 4.17-.398 8.488 3.028.326.258.891.149 1.262-.245.371-.395.404-.922.082-1.182a16.607 16.607 0 00-.655-.496c-4.537-3.255-8.722-2.822-8.905-2.801-.488.056-.944.48-1.019.949a.651.651 0 00.13.531m9.964 5.71c.299-.053.538-.345.579-.756.052-.528-.242-1.051-.655-1.17-4.375-1.253-8.978 1.394-9.178 1.51-.366.213-.5.787-.3 1.284s.656.727 1.024.517c.044-.026 4.379-2.512 8.264-1.4.092.025.181.03.266.015M43.462 24.423c-.133.158-.353.243-.617.215-.04-.005-4.17-.398-8.488 3.028-.326.258-.891.149-1.262-.245-.371-.395-.404-.922-.082-1.182.218-.174.437-.339.655-.496 4.537-3.255 8.722-2.822 8.905-2.801.488.056.944.48 1.019.949a.651.651 0 01-.13.531m-9.964 5.71c-.299-.053-.538-.345-.579-.756-.052-.528.242-1.051.655-1.17 4.375-1.253 8.978 1.394 9.178 1.51.366.213.5.787.3 1.284s-.656.727-1.024.517c-.044-.026-4.379-2.512-8.264-1.4a.607.607 0 01-.266.015"/></g></svg>