<svg viewBox="0 0 45 45" width="100" height="100" xmlns="http://www.w3.org/2000/svg"><defs><clipPath id="a"/></defs><path d="M45.046 22.5c0 12.426-10.074 22.5-22.5 22.5-12.425 0-22.5-10.074-22.5-22.5C.046 10.075 10.121 0 22.546 0c12.426 0 22.5 10.075 22.5 22.5" fill="#bdddf4"/><path d="M22.546 13.76c10.936 0 20.041 5.636 22.07 13.104.278-1.41.43-2.865.43-4.355 0-7.812-3.982-14.695-10.028-18.728A22.394 22.394 0 0022.546.01C10.121.01.046 10.085.046 22.51c0 1.49.154 2.945.43 4.355 2.029-7.469 11.135-13.105 22.07-13.105m16.991 18.638a.625.625 0 00-1.25 0v7.5a.625.625 0 001.25 0v-7.5z" fill="#5dadec"/><path d="M42.472 34.814a.626.626 0 00-.625-1.083l-6.495 3.75a.623.623 0 00-.229.854c.173.3.554.401.854.229l6.495-3.75z" fill="#5dadec"/><path d="M35.351 34.814a.626.626 0 01.625-1.083l6.495 3.75a.624.624 0 11-.625 1.082l-6.495-3.749zm-29.279.638a.625.625 0 01-1.25 0v-7.5a.625.625 0 011.25 0v7.5z" fill="#5dadec"/><path d="M9.007 33.036a.626.626 0 01-.625 1.082l-6.495-3.75a.623.623 0 01-.229-.853.624.624 0 01.854-.23l6.495 3.75z" fill="#5dadec"/><path d="M1.886 33.036a.626.626 0 00.625 1.082l6.495-3.75a.623.623 0 00.229-.853.624.624 0 00-.854-.23l-6.495 3.75z" fill="#5dadec"/><g clip-path="url(#a)" fill="#bdddf4"><path d="M40.722-15.195a2.076 2.076 0 00-4.15 0V9.703a2.076 2.076 0 004.15 0v-24.898z"/><path d="M57.793-3.018a2.078 2.078 0 00.76-2.834 2.072 2.072 0 00-2.835-.76L34.157 5.837a2.067 2.067 0 00-.76 2.834 2.071 2.071 0 002.835.76L57.793-3.02z"/><path d="M34.112 5.39a2.078 2.078 0 01-.76-2.834 2.072 2.072 0 012.835-.76l21.561 12.45a2.067 2.067 0 01.76 2.833 2.071 2.071 0 01-2.835.76L34.112 5.39z"/></g><g fill="#5dadec"><path d="M39.297 1.86a.625.625 0 00-1.25 0v7.5a.625.625 0 001.25 0v-7.5z"/><path d="M42.232 4.276a.626.626 0 00-.625-1.083l-6.495 3.75a.623.623 0 00-.229.854c.173.3.554.401.854.229l6.495-3.75z"/><path d="M35.111 4.276a.626.626 0 01.625-1.083l6.495 3.75a.624.624 0 11-.625 1.082l-6.495-3.749z"/></g></svg>