<svg xmlns="http://www.w3.org/2000/svg" viewBox="0 0 45 45" width="100" height="100"><defs><clipPath id="a"/></defs><path d="M45.046 22.5c0 12.426-10.074 22.5-22.5 22.5-12.425 0-22.5-10.074-22.5-22.5C.046 10.075 10.121 0 22.546 0c12.426 0 22.5 10.075 22.5 22.5" fill="#bdddf4"/><g clip-path="url(#a)" fill="#bdddf4"><path d="M40.722-15.195a2.076 2.076 0 00-4.15 0V9.703a2.076 2.076 0 004.15 0v-24.898z"/><path d="M57.793-3.018a2.078 2.078 0 00.76-2.834 2.072 2.072 0 00-2.835-.76L34.157 5.837a2.067 2.067 0 00-.76 2.834 2.071 2.071 0 002.835.76L57.793-3.02z"/><path d="M34.112 5.39a2.078 2.078 0 01-.76-2.834 2.072 2.072 0 012.835-.76l21.561 12.45a2.067 2.067 0 01.76 2.833 2.071 2.071 0 01-2.835.76L34.112 5.39z"/></g></svg>