<svg xmlns="http://www.w3.org/2000/svg" viewBox="0 0 45 45" width="100" height="100"><defs><clipPath id="a" clipPathUnits="userSpaceOnUse"><path d="M0 36h36V0H0v36z"/></clipPath></defs><g clip-path="url(#a)" transform="matrix(1.25 0 0 -1.25 0 45)"><path d="M36 18c0-9.941-8.059-18-18-18C8.06 0 0 8.059 0 18c0 9.94 8.06 18 18 18 9.941 0 18-8.06 18-18" fill="#ffcc4d"/><path d="M34 13a5 5 0 00-5-5 5 5 0 00-5 5 5 5 0 005 5 5 5 0 005-5m-22 0a5 5 0 00-5-5 5 5 0 00-5 5 5 5 0 005 5 5 5 0 005-5" fill="#ff7892"/></g></svg>