<svg xmlns="http://www.w3.org/2000/svg" viewBox="0 0 45 45" width="100" height="100"><defs><clipPath id="a" clipPathUnits="userSpaceOnUse"><path d="M0 36h36V0H0v36z"/></clipPath></defs><g clip-path="url(#a)" transform="matrix(1.25 0 0 -1.25 0 45)"><path d="M15.897 18.604c.023.052.059.096.073.154a1 1 0 01-.727 1.213c-.181.045-4.468 1.08-7.798-1.138a1.001 1.001 0 011.11-1.665c1.092.73 2.362.995 3.468 1.062-.009-.077-.023-.151-.023-.23a2 2 0 014 0c0 .212-.042.413-.103.604M27.896 18.605c.023.052.06.095.073.152a.998.998 0 01-.727 1.213c-.18.045-4.466 1.08-7.797-1.138a1 1 0 111.11-1.664c1.092.729 2.362.994 3.469 1.06-.01-.076-.023-.15-.023-.228a2 2 0 014 0c0 .212-.042.413-.104.605" fill="#664500"/></g></svg>