<svg xmlns="http://www.w3.org/2000/svg" viewBox="0 0 45 45" width="100" height="100"><defs><clipPath id="a" clipPathUnits="userSpaceOnUse"><path d="M0 36h36V0H0v36z"/></clipPath></defs><g clip-path="url(#a)" transform="matrix(1.25 0 0 -1.25 0 45)"><path d="M16.664 25.457a.501.501 0 01-.592-.148c-.01-.012-.979-1.202-3.335-1.844a8.543 8.543 0 00-2.244-.319c-.993 0-1.559.212-1.562.213a.5.5 0 01-.57-.781c.07-.088 1.778-2.148 4.123-2.148.351 0 .702.048 1.043.14 2.854.779 3.41 4.209 3.432 4.354a.501.501 0 01-.295.533M27.639 23.302a.502.502 0 01-.59.16c-.006-.004-.633-.257-1.737-.257-.661 0-1.36.09-2.073.266-2.37.582-3.37 1.748-3.377 1.758a.5.5 0 01-.88-.405c.027-.145.669-3.56 3.54-4.267.31-.076.629-.115.946-.115 2.397 0 4.099 2.16 4.17 2.252a.498.498 0 010 .608" fill="#664500"/></g></svg>