<svg xmlns="http://www.w3.org/2000/svg" viewBox="0 0 45 45" width="100" height="100"><defs><clipPath id="a" clipPathUnits="userSpaceOnUse"><path d="M0 36h36V0H0v36z"/></clipPath></defs><g clip-path="url(#a)" transform="matrix(1.25 0 0 -1.25 0 45)"><path d="M6.001 13a1 1 0 00-.601 1.8c.143.107 2.951 2.182 6.856 2.932C9.781 18.973 7.034 19 6.999 19A1 1 0 007 21c.221 0 5.452-.038 8.707-3.293A1 1 0 0015 16c-4.613 0-8.363-2.773-8.4-2.8a.996.996 0 00-.599-.2M29.999 13.001a.998.998 0 00-.598.198C29.363 13.227 25.59 16 21 16a.999.999 0 00-.707 1.707C23.549 20.962 28.779 21 29 21a1 1 0 00.002-2c-.036 0-2.783-.027-5.258-1.268 3.905-.75 6.713-2.825 6.856-2.932a1 1 0 00-.601-1.799" fill="#664500"/></g></svg>