<svg xmlns="http://www.w3.org/2000/svg" viewBox="0 0 45 45" width="100" height="100"><defs><clipPath id="a" clipPathUnits="userSpaceOnUse"><path d="M0 36h36V0H0v36z"/></clipPath></defs><g clip-path="url(#a)" transform="matrix(1.25 0 0 -1.25 0 45)"><path d="M26 17a.999.999 0 00-.948.684C24.849 18.283 24.033 20 23 20c-1.062 0-1.889-1.827-2.052-2.316a.996.996 0 00-1.264-.632.998.998 0 00-.632 1.264C19.177 18.693 20.355 22 23 22s3.823-3.307 3.948-3.684A.998.998 0 0026 17M16 17c-.419 0-.809.265-.949.684C14.848 18.283 14.034 20 13 20c-1.062 0-1.888-1.827-2.051-2.316a.998.998 0 00-1.265-.632.999.999 0 00-.633 1.264C9.177 18.693 10.355 22 13 22c2.645 0 3.823-3.307 3.949-3.684A.999.999 0 0016 17" fill="#664500"/></g></svg>