<svg xmlns="http://www.w3.org/2000/svg" viewBox="0 0 45 45" width="100" height="100"><defs><clipPath id="a" clipPathUnits="userSpaceOnUse"><path d="M0 36h36V0H0v36z"/></clipPath></defs><g clip-path="url(#a)" transform="matrix(1.25 0 0 -1.25 0 45)"><path d="M8 1l4 .046v18.953H8V1zm16 19h4V1l-4 .046V20z" fill="#5dadec"/><path d="M36 2c0-1.104-8.059-2-18-2S0 .896 0 2s8.059 2 18 2 18-.896 18-2" fill="#5dadec"/><path d="M14.999 18c-.15 0-.303.034-.446.105-3.512 1.757-7.071.019-7.106 0a1 1 0 10-.894 1.79c.182.089 4.498 2.196 8.894 0A1 1 0 0014.999 18M28.999 18c-.15 0-.303.034-.446.105-3.513 1.756-7.071.019-7.106 0a1 1 0 10-.894 1.79c.181.089 4.501 2.196 8.894 0A1 1 0 0028.999 18" fill="#664500"/></g></svg>