<svg xmlns="http://www.w3.org/2000/svg" viewBox="0 0 45 45" width="100" height="100"><defs><clipPath id="a" clipPathUnits="userSpaceOnUse"><path d="M0 36h36V0H0v36z"/></clipPath></defs><g clip-path="url(#a)" transform="matrix(1.25 0 0 -1.25 0 45)"><path d="M12.284 23.67c-.756.292-1.47.568-1.47.968 0 .659.884.693 1.061.693.625 0 .935-.235 1.21-.442.21-.158.428-.323.73-.323.565 0 .822.397.822.766 0 .736-.902 1.256-1.859 1.473v.395a.94.94 0 01-.939.939.941.941 0 01-.939-.94v-.425c-1.144-.333-1.845-1.174-1.845-2.235 0-1.311 1.293-1.85 2.433-2.323.817-.34 1.59-.661 1.59-1.162 0-.366-.46-.761-1.203-.761-.75 0-1.18.299-1.56.564-.262.183-.51.356-.805.356-.43 0-.767-.362-.767-.824 0-.68.931-1.356 2.157-1.594v-.47a.94.94 0 011.88 0l-.006.497c1.296.316 2.062 1.222 2.062 2.459 0 1.404-1.415 1.95-2.552 2.389M26.694 21.264c0 1.404-1.415 1.95-2.552 2.389-.756.292-1.469.567-1.469.967 0 .66.883.693 1.06.693.625 0 .936-.234 1.21-.441.211-.16.428-.323.73-.323.565 0 .823.397.823.765 0 .737-.903 1.257-1.859 1.474v.394a.94.94 0 01-1.88 0v-.426c-1.143-.332-1.844-1.174-1.844-2.235 0-1.311 1.293-1.848 2.433-2.323.818-.34 1.59-.66 1.59-1.161 0-.366-.46-.762-1.203-.762-.75 0-1.18.3-1.559.565-.262.183-.51.356-.805.356-.43 0-.768-.362-.768-.825 0-.68.931-1.355 2.156-1.593v-.471a.94.94 0 011.88 0l-.003.498c1.294.316 2.06 1.223 2.06 2.459" fill="#664500"/></g></svg>