<svg xmlns="http://www.w3.org/2000/svg" viewBox="0 0 45 45" width="100" height="100"><defs><clipPath id="a" clipPathUnits="userSpaceOnUse"><path d="M0 36h36V0H0v36z"/></clipPath></defs><g clip-path="url(#a)" transform="matrix(1.25 0 0 -1.25 0 45)"><path d="M7.347 24.09c-.946-3.176.107-6.293 2.353-6.962 2.246-.67 4.834 1.362 5.78 4.538.945 3.175-.108 6.293-2.352 6.962-2.246.669-4.834-1.363-5.78-4.538M28.652 24.09c.946-3.176-.107-6.293-2.352-6.962-2.247-.67-4.834 1.362-5.78 4.538-.946 3.175.107 6.293 2.351 6.962 2.246.669 4.834-1.363 5.781-4.538" fill="#f5f8fa"/></g></svg>