<svg xmlns="http://www.w3.org/2000/svg" viewBox="0 0 45 45" width="100" height="100"><defs><clipPath id="a" clipPathUnits="userSpaceOnUse"><path d="M0 36h36V0H0v36z"/></clipPath></defs><g clip-path="url(#a)" transform="matrix(1.25 0 0 -1.25 0 45)"><path d="M11.41 18.108c-2.335 0-3.87.997-3.964 1.06a1 1 0 101.109 1.664c.099-.064 2.602-1.636 5.998.063a1 1 0 00.895-1.79c-1.494-.746-2.867-.997-4.038-.997M24.59 18.108c-1.171 0-2.544.25-4.037.998a1 1 0 10.894 1.789c3.4-1.7 5.9-.126 6.004-.06.46.299 1.08.17 1.382-.288a.997.997 0 00-.278-1.38c-.095-.062-1.63-1.06-3.964-1.06" fill="#664500"/></g></svg>