<svg xmlns="http://www.w3.org/2000/svg" viewBox="0 0 45 45" width="100" height="100"><defs><clipPath id="a" clipPathUnits="userSpaceOnUse"><path d="M0 36h36V0H0v36z"/></clipPath></defs><g clip-path="url(#a)" transform="matrix(1.25 0 0 -1.25 0 45)"><path d="M14 20.5c0-1.934-1.119-3.5-2.5-3.5S9 18.566 9 20.5c0 1.933 1.119 3.5 2.5 3.5s2.5-1.567 2.5-3.5M28.457 18.203c-.059.135-1.499 3.297-4.457 3.297-2.957 0-4.397-3.162-4.457-3.297a.499.499 0 01.144-.59.504.504 0 01.611-.015c.012.01 1.262.902 3.702.902 2.426 0 3.674-.88 3.702-.9a.498.498 0 01.755.603" fill="#664500"/></g></svg>