<svg xmlns="http://www.w3.org/2000/svg" viewBox="0 0 45 45" width="100" height="100"><defs><clipPath id="a" clipPathUnits="userSpaceOnUse"><path d="M0 36h36V0H0v36z"/></clipPath></defs><g clip-path="url(#a)" transform="matrix(1.25 0 0 -1.25 0 45)"><path d="M13.914 20.5l1.793 1.793a.999.999 0 11-1.414 1.414L12.5 21.914l-1.793 1.793a.999.999 0 11-1.414-1.414l1.793-1.793-1.793-1.793a.999.999 0 111.414-1.414l1.793 1.793 1.793-1.793a.997.997 0 011.414 0 .999.999 0 010 1.414L13.914 20.5zM24.914 20.5l1.793 1.793a.999.999 0 11-1.414 1.414L23.5 21.914l-1.793 1.793a.999.999 0 11-1.414-1.414l1.793-1.793-1.793-1.793a.999.999 0 111.414-1.414l1.793 1.793 1.793-1.793a.997.997 0 011.414 0 .999.999 0 010 1.414L24.914 20.5z" fill="#664500"/></g></svg>