<svg xmlns="http://www.w3.org/2000/svg" viewBox="0 0 45 45" width="100" height="100"><defs><clipPath id="a" clipPathUnits="userSpaceOnUse"><path d="M0 36h36V0H0v36z"/></clipPath></defs><g clip-path="url(#a)" transform="matrix(1.25 0 0 -1.25 0 45)"><path d="M17.313 18.388a.501.501 0 01-.61.014c-.013-.01-1.261-.902-3.702-.902s-3.69.892-3.701.9a.5.5 0 01-.758-.603c.061-.135 1.5-3.297 4.458-3.297s4.397 3.162 4.457 3.297a.5.5 0 01-.144.591M27.313 18.388a.5.5 0 01-.61.014c-.012-.01-1.261-.902-3.702-.902s-3.691.892-3.701.9a.5.5 0 01-.758-.603c.06-.135 1.5-3.297 4.458-3.297 2.959 0 4.398 3.162 4.458 3.297a.5.5 0 01-.145.591" fill="#664500"/></g></svg>