<svg xmlns="http://www.w3.org/2000/svg" viewBox="0 0 45 45" width="100" height="100"><defs><clipPath id="a" clipPathUnits="userSpaceOnUse"><path d="M0 36h36V0H0v36z"/></clipPath></defs><g clip-path="url(#a)" transform="matrix(1.25 0 0 -1.25 0 45)"><path d="M15.457 20.185c-.06.135-1.499 3.297-4.457 3.297-2.957 0-4.397-3.162-4.457-3.297a.499.499 0 01.754-.605c.013.009 1.262.902 3.703.902 2.426 0 3.674-.881 3.702-.901a.498.498 0 01.755.604" fill="#664500"/><path d="M31 22.5a6.5 6.5 0 10-13 0 6.5 6.5 0 0013 0" fill="#f5f8fa"/><path d="M27 22.5a2.5 2.5 0 10-5 0 2.5 2.5 0 005 0" fill="#292f33"/></g></svg>