<svg xmlns="http://www.w3.org/2000/svg" viewBox="0 0 45 45" width="100" height="100"><defs><clipPath id="a" clipPathUnits="userSpaceOnUse"><path d="M0 36h36V0H0v36z"/></clipPath></defs><g clip-path="url(#a)" transform="matrix(1.25 0 0 -1.25 0 45)"><path d="M15.703 18.402c-.013-.01-1.262-.902-3.703-.902-2.442 0-3.69.893-3.7.9a.5.5 0 01-.716-.677C7.644 17.632 9.099 15.5 12 15.5c2.9 0 4.356 2.132 4.416 2.223a.499.499 0 01-.713.679M28.345 18.36a.5.5 0 01-.643.042c-.011-.01-1.261-.902-3.702-.902s-3.69.892-3.7.9a.5.5 0 01-.716-.678c.06-.09 1.515-2.222 4.416-2.222 2.9 0 4.356 2.131 4.416 2.222a.499.499 0 01-.071.638" fill="#664500"/></g></svg>