<svg xmlns="http://www.w3.org/2000/svg" viewBox="0 0 45 45" width="100" height="100"><defs><clipPath id="a" clipPathUnits="userSpaceOnUse"><path d="M0 36h36V0H0v36z"/></clipPath></defs><g clip-path="url(#a)" transform="matrix(1.25 0 0 -1.25 0 45)"><path d="M28.313 20.388a.503.503 0 01-.61.014c-.012-.01-1.261-.902-3.702-.902s-3.691.892-3.701.9a.5.5 0 01-.757-.603c.06-.135 1.5-3.297 4.458-3.297s4.397 3.162 4.457 3.297a.5.5 0 01-.145.591M15.702 20.402c-.012-.01-1.26-.902-3.702-.902-2.44 0-3.69.893-3.7.9a.5.5 0 01-.757-.603c.06-.135 1.5-3.297 4.457-3.297 2.958 0 4.397 3.162 4.457 3.297a.501.501 0 01-.755.605" fill="#664500"/></g></svg>