<svg xmlns="http://www.w3.org/2000/svg" viewBox="0 0 45 45" width="100" height="100"><defs><clipPath id="a" clipPathUnits="userSpaceOnUse"><path d="M0 36h36V0H0v36z"/></clipPath></defs><g clip-path="url(#a)" transform="matrix(1.25 0 0 -1.25 0 45)"><path d="M28.028 22.964c-.244.3-6.77 1.502-6.826 1.502-.118 0-.25-.088-.276-.204a4.083 4.083 0 01.466-2.941c.522-.876 1.337-1.47 2.296-1.673.233-.05.471-.074.707-.074 1.746 0 3.296 1.336 3.686 3.178a.262.262 0 01-.053.212M14.756 24.466c-.056 0-6.583-1.202-6.827-1.502a.258.258 0 01-.052-.214c.39-1.84 1.94-3.176 3.686-3.176.236 0 .474.025.707.074 1.972.416 3.211 2.486 2.762 4.613-.024.116-.157.205-.276.205" fill="#664500"/></g></svg>