<svg xmlns="http://www.w3.org/2000/svg" viewBox="0 0 45 45" width="100" height="100"><defs><clipPath id="a" clipPathUnits="userSpaceOnUse"><path d="M0 36h36V0H0v36z"/></clipPath></defs><g clip-path="url(#a)" transform="matrix(1.25 0 0 -1.25 0 45)"><path d="M30.6 17.8c-.114.085-1.931 1.426-4.646 2.344.027.115.046.233.046.356 0 .369-.138.703-.36.964 1.804.52 3.335.536 3.362.536A1 1 0 0129 24c-.22 0-5.451-.037-8.707-3.293A1 1 0 0121 19c4.59 0 8.364-2.772 8.402-2.801a1.001 1.001 0 011.399.203A1 1 0 0130.6 17.8M15.707 20.707C12.452 23.962 7.221 24 7 24a1 1 0 01-.001-2c.026 0 1.558-.016 3.36-.536A1.492 1.492 0 0110 20.5c0-.123.019-.241.047-.356-2.716-.918-4.533-2.259-4.647-2.344a1 1 0 011.2-1.6c.037.028 3.787 2.8 8.4 2.8a1.002 1.002 0 01.707 1.707" fill="#664500"/></g></svg>