<svg xmlns="http://www.w3.org/2000/svg" viewBox="0 0 45 45" width="100" height="100"><defs><clipPath id="a" clipPathUnits="userSpaceOnUse"><path d="M0 36h36V0H0v36z"/></clipPath></defs><g clip-path="url(#a)" transform="matrix(1.25 0 0 -1.25 0 45)"><path d="M16 18c-.419 0-.809.265-.949.684C14.848 19.283 14.034 21 13 21c-1.062 0-1.888-1.827-2.051-2.316a.998.998 0 00-1.265-.632.999.999 0 00-.633 1.264C9.177 19.693 10.355 23 13 23c2.645 0 3.823-3.307 3.949-3.684A.999.999 0 0016 18M26 18a.999.999 0 00-.948.684C24.849 19.283 24.033 21 23 21c-1.062 0-1.889-1.827-2.052-2.316a.996.996 0 00-1.264-.632.998.998 0 00-.632 1.264C19.177 19.693 20.355 23 23 23s3.823-3.307 3.948-3.684A.998.998 0 0026 18" fill="#664500"/></g></svg>