<svg xmlns="http://www.w3.org/2000/svg" viewBox="0 0 45 45" width="100" height="100"><defs><clipPath id="a" clipPathUnits="userSpaceOnUse"><path d="M0 36h36V0H0v36z"/></clipPath></defs><g clip-path="url(#a)" transform="matrix(1.25 0 0 -1.25 0 45)"><path d="M7.001 21a1 1 0 00-.556 1.832C6.578 22.92 9.746 25 14 25a1 1 0 000-2c-3.655 0-6.418-1.814-6.445-1.832A.996.996 0 007.001 21M28.999 21a.996.996 0 00-.552.167C28.419 21.185 25.628 23 22 23a1 1 0 100 2c4.254 0 7.422-2.08 7.555-2.168A1 1 0 0028.999 21" fill="#664500"/></g></svg>