<svg xmlns="http://www.w3.org/2000/svg" viewBox="0 0 45 45" width="100" height="100"><defs><clipPath id="a" clipPathUnits="userSpaceOnUse"><path d="M0 36h36V0H0v36z"/></clipPath></defs><g clip-path="url(#a)" transform="matrix(1.25 0 0 -1.25 0 45)"><path d="M7.999 21a1.001 1.001 0 00-.894 1.447C7.158 22.552 8.424 25 12 25c3.577 0 4.842-2.449 4.894-2.553a1 1 0 00-1.783-.905C15.068 21.621 14.281 23 12 23c-2.317 0-3.099-1.433-3.105-1.447A1 1 0 007.999 21M28.001 21a.999.999 0 00-.896.553C27.08 21.599 26.299 23 24 23s-3.08-1.401-3.112-1.46c-.26-.481-.86-.67-1.345-.42a.993.993 0 00-.438 1.327C19.157 22.551 20.423 25 24 25c3.577 0 4.843-2.449 4.894-2.553A1 1 0 0028.001 21" fill="#664500"/></g></svg>