<svg xmlns="http://www.w3.org/2000/svg" viewBox="0 0 45 45" width="100" height="100"><defs><clipPath id="a" clipPathUnits="userSpaceOnUse"><path d="M0 36h36V0H0v36z"/></clipPath></defs><g clip-path="url(#a)" transform="matrix(1.25 0 0 -1.25 0 45)"><path d="M17 20.5c0-2.485-1.567-4.5-3.5-4.5S10 18.015 10 20.5s1.567 4.5 3.5 4.5 3.5-2.015 3.5-4.5M27 20.5c0-2.485-1.566-4.5-3.5-4.5S20 18.015 20 20.5s1.566 4.5 3.5 4.5 3.5-2.015 3.5-4.5" fill="#f5f8fa"/><path d="M16 20.5c0-1.381-.895-2.5-2-2.5-1.104 0-2 1.119-2 2.5s.896 2.5 2 2.5c1.105 0 2-1.119 2-2.5M25 20.5c0-1.381-.895-2.5-2-2.5-1.104 0-2 1.119-2 2.5s.896 2.5 2 2.5c1.105 0 2-1.119 2-2.5" fill="#292f33"/></g></svg>