<svg xmlns="http://www.w3.org/2000/svg" viewBox="0 0 45 45" width="100" height="100"><defs><clipPath id="a" clipPathUnits="userSpaceOnUse"><path d="M0 36h36V0H0v36z"/></clipPath></defs><g clip-path="url(#a)" transform="matrix(1.25 0 0 -1.25 0 45)"><path d="M28.416 18.277c-.061.091-1.515 2.223-4.416 2.223-2.9 0-4.355-2.132-4.416-2.223a.499.499 0 01.714-.679c.012.01 1.262.902 3.702.902 2.426 0 3.674-.882 3.702-.902a.5.5 0 01.714.68M12 20.5c-2.9 0-4.355-2.132-4.416-2.223a.499.499 0 01.713-.679c.013.009 1.262.902 3.703.902 2.426 0 3.674-.881 3.702-.901a.5.5 0 01.714.678c-.061.091-1.515 2.223-4.416 2.223" fill="#664500"/></g></svg>