<svg xmlns="http://www.w3.org/2000/svg" viewBox="0 0 45 45" width="100" height="100"><defs><clipPath id="a" clipPathUnits="userSpaceOnUse"><path d="M0 36h36V0H0v36z"/></clipPath></defs><g clip-path="url(#a)" transform="matrix(1.25 0 0 -1.25 0 45)"><path d="M13.503 21.155c3.124-3.124 4.39-6.923 2.828-8.485-1.561-1.562-5.361-.297-8.485 2.828-3.125 3.124-4.391 6.923-2.828 8.485 1.562 1.562 5.36.296 8.485-2.828M22.497 21.155c-3.124-3.124-4.39-6.923-2.828-8.485 1.561-1.563 5.361-.297 8.485 2.828 3.125 3.125 4.391 6.923 2.828 8.485-1.562 1.562-5.36.296-8.485-2.828" fill="#664500"/></g></svg>