<svg xmlns="http://www.w3.org/2000/svg" viewBox="0 0 45 45" width="100" height="100"><defs><clipPath id="a" clipPathUnits="userSpaceOnUse"><path d="M0 36h36V0H0v36z"/></clipPath></defs><g clip-path="url(#a)" transform="matrix(1.25 0 0 -1.25 0 45)"><path d="M6.999 19a1.001 1.001 0 00-.894 1.447C6.158 20.552 7.424 23 11 23c3.578 0 4.842-2.449 4.894-2.553a1 1 0 00-1.783-.905C14.067 19.622 13.28 21 11 21c-2.317 0-3.099-1.433-3.105-1.447A1 1 0 006.999 19M29 19a1.001 1.001 0 01.894 1.447c-.053.105-1.319 2.553-4.895 2.553-3.578 0-4.842-2.449-4.894-2.553a1 1 0 011.783-.905c.044.08.831 1.458 3.111 1.458 2.317 0 3.099-1.433 3.106-1.447A.998.998 0 0129 19" fill="#664500"/></g></svg>