<svg width="100" height="100" viewBox="0 0 45 45" xmlns="http://www.w3.org/2000/svg"><defs><clipPath id="a"><path d="M0 36h36V0H0v36z"/></clipPath><clipPath id="b"><path d="M2.406-2.123a1.101 1.101 0 01-1.998.639 1.101 1.101 0 01-1.97-.89c.154-.949 1.211-1.95 1.97-2.225.758.275 1.815 1.276 1.968 2.225.02.081.03.164.03.25zm-7.71-9.028a1.193 1.193 0 01-2.166.693 1.193 1.193 0 01-2.134-.964c.167-1.028 1.313-2.113 2.134-2.411.822.298 1.968 1.383 2.134 2.41.02.088.032.179.032.272zm8.547.819a.826.826 0 01-1.5.48.826.826 0 01-1.478-.667c.115-.713.908-1.464 1.477-1.67.57.206 1.363.957 1.478 1.67.014.06.023.122.023.187z" fill="#dd2e44" stroke-width=".36"/></clipPath></defs><g clip-path="url(#a)" transform="matrix(1.25 0 0 -1.25 0 45)"><path d="M30 22.5a5.5 5.5 0 10-11.001.001A5.5 5.5 0 0030 22.5M17 22.5a5.5 5.5 0 10-11.001.001A5.5 5.5 0 0017 22.5" fill="#f5f8fa"/><g transform="translate(11.101 22.048)" clip-path="url(#b)"><path d="M2.885-2.508a2.5 2.5 0 10-4.999 0 2.5 2.5 0 005 0" fill="#292f33"/></g><g transform="translate(24.246 22.008)" clip-path="url(#b)"><path d="M2.885-2.508a2.5 2.5 0 10-4.999 0 2.5 2.5 0 005 0" fill="#292f33"/></g></g></svg>