<svg xmlns="http://www.w3.org/2000/svg" viewBox="0 0 45 45"><path d="M29.43 17.668c-.23.098-2.413 1.182-2.513 2.533-.162 2.192 1.282 4.57 3.073 5.617 4.765 2.784 10.594-1.53 8.503-2.533-1.504-.722-3.623.92-6.804-2.587-.553-1.837-1.66-3.283-2.258-3.03z" fill="#664500"/><path d="M26.92 20.346c0 3.225 2.638 5.837 5.895 5.837 3.255 0 5.893-2.612 5.893-5.837 0-3.223-2.638-5.832-5.893-5.832-3.257 0-5.896 2.61-5.896 5.832" fill="#664500"/><path d="M29.36 20.347c0 1.89 1.547 3.42 3.455 3.42 1.906 0 3.452-1.53 3.452-3.42 0-1.888-1.546-3.417-3.452-3.417-1.908 0-3.454 1.53-3.454 3.417" fill="#f5f8fa"/><path d="M15.57 17.668c.23.098 2.413 1.182 2.513 2.533.162 2.192-1.282 4.57-3.073 5.617-4.765 2.784-10.594-1.53-8.503-2.533 1.504-.722 3.623.92 6.804-2.587.553-1.837 1.66-3.283 2.258-3.03z" fill="#664500"/><g fill="#f5f8fa"><path d="M18.08 20.346c0 3.225-2.638 5.837-5.895 5.837-3.255 0-5.893-2.612-5.893-5.837 0-3.223 2.638-5.832 5.893-5.832 3.257 0 5.896 2.61 5.896 5.832" fill="#664500"/><path d="M15.64 20.347c0 1.89-1.547 3.42-3.455 3.42-1.906 0-3.452-1.53-3.452-3.42 0-1.888 1.546-3.417 3.452-3.417 1.908 0 3.454 1.53 3.454 3.417"/></g><path d="M36.727 24.797c.156-.134.285-.344.362-.612.187-.658-.017-1.419-.455-1.7-4.318-2.768-7.595-.004-7.733.115-.413.358-.554 1.151-.316 1.77.238.619.764.832 1.177.477.116-.098 2.706-2.215 6.193.02.26.167.545.127.772-.07M16.1 24.797c.155-.134.285-.344.36-.612.189-.658-.016-1.419-.454-1.7-4.317-2.768-7.595-.004-7.733.115-.412.358-.554 1.151-.316 1.77.238.619.764.832 1.177.477.117-.098 2.706-2.215 6.194.02.26.167.544.127.771-.07" fill="#664500"/></svg>