<svg viewBox="0 0 45 45" xmlns="http://www.w3.org/2000/svg"><path d="M35.807 19.491c0 3.638-2.451 6.585-5.477 6.585s-5.476-2.947-5.476-6.585c0-3.637 2.451-6.585 5.476-6.585s5.477 2.948 5.477 6.585" fill="#664500"/><path d="M32.01 18.379c0 1.587-1.07 2.872-2.39 2.872s-2.388-1.285-2.388-2.872c0-1.586 1.07-2.872 2.389-2.872s2.389 1.286 2.389 2.872M33.905 22.268c0 .684-.46 1.237-1.03 1.237s-1.028-.553-1.028-1.237c0-.683.46-1.237 1.029-1.237s1.029.554 1.029 1.237" fill="#fff"/><path d="M20.145 19.226c0 3.638-2.45 6.584-5.476 6.584s-5.477-2.946-5.477-6.584c0-3.637 2.452-6.585 5.477-6.585s5.476 2.948 5.476 6.585" fill="#664500"/><path d="M16.348 18.114c0 1.587-1.069 2.872-2.389 2.872s-2.389-1.285-2.389-2.872 1.07-2.873 2.39-2.873 2.388 1.286 2.388 2.873M18.243 22.003c0 .684-.46 1.237-1.029 1.237s-1.029-.553-1.029-1.237c0-.683.461-1.237 1.03-1.237s1.028.554 1.028 1.237" fill="#fff"/><g><path d="M37.5 18.313c-.155 0-.313-.029-.464-.09-6.536-2.614-9.215-6.55-9.326-6.717a1.25 1.25 0 012.078-1.392c.023.035 2.412 3.483 8.176 5.788a1.25 1.25 0 01-.464 2.411" fill="#664500"/></g><g><path d="M7.5 18.313a1.252 1.252 0 01-.465-2.411c5.765-2.305 8.154-5.753 8.178-5.788a1.25 1.25 0 012.078 1.391c-.112.168-2.792 4.104-9.327 6.718-.152.061-.309.09-.464.09" fill="#664500"/></g><g fill="#5dadec"><path d="M38.468 26.086c0 1.312-1.96 2.375-4.378 2.375s-4.378-1.063-4.378-2.375 1.96-2.375 4.378-2.375 4.378 1.063 4.378 2.375M15.287 26.086c0 1.312-1.96 2.375-4.378 2.375s-4.378-1.063-4.378-2.375 1.96-2.375 4.378-2.375 4.378 1.063 4.378 2.375"/></g></svg>