<svg viewBox="0 0 45 45" xmlns="http://www.w3.org/2000/svg"><path d="M18.978 19.559c0 2.706-1.565 4.896-3.497 4.896s-3.498-2.19-3.498-4.896c0-2.704 1.566-4.896 3.498-4.896s3.497 2.192 3.497 4.896M33.017 19.559c0 2.706-1.565 4.896-3.497 4.896s-3.498-2.19-3.498-4.896c0-2.704 1.566-4.896 3.498-4.896s3.497 2.192 3.497 4.896" fill="#664500"/><path d="M37.738 14.054a1.686 1.686 0 00-1.2-.138c-5.672 1.438-9.532-.555-9.694-.642-.615-.326-1.459-.206-1.882.268-.425.476-.278 1.125.333 1.456.205.111 5.079 2.69 12.086.914.713-.18 1.1-.774.867-1.325a1.114 1.114 0 00-.51-.533M7.272 14.43a1.117 1.117 0 00-.51.533c-.234.55.155 1.144.867 1.325 7.006 1.777 11.88-.803 12.085-.913.613-.333.762-.988.333-1.463-.429-.474-1.27-.59-1.884-.26-.174.091-4.031 2.075-9.69.64a1.69 1.69 0 00-1.201.138" fill="#664500"/><g transform="translate(0 -.118)" fill="#fff"><path d="M12.975 19.595c-.218-.448-.1-.656.121-.825.361-.277 1.108.025 1.356.158.047-.276.291-.93.693-1.06.261-.085.552-.156.77.292a.878.878 0 01.069.195c.228.755-.19 1.873-.648 2.348-.657.069-1.795-.29-2.25-.934a.912.912 0 01-.111-.174"/><circle cx="16.705" cy="21.842" r=".619"/></g><g transform="translate(14.032 -.118)" fill="#fff"><path d="M12.975 19.595c-.218-.448-.1-.656.121-.825.361-.277 1.108.025 1.356.158.047-.276.291-.93.693-1.06.261-.085.552-.156.77.292a.878.878 0 01.069.195c.228.755-.19 1.873-.648 2.348-.657.069-1.795-.29-2.25-.934a.912.912 0 01-.111-.174"/><circle cx="16.705" cy="21.842" r=".619"/></g></svg>