<?xml version="1.0" encoding="UTF-8" standalone="no"?>
<svg
    xmlns:dc="http://purl.org/dc/elements/1.1/"
    xmlns:cc="http://creativecommons.org/ns#"
    xmlns:rdf="http://www.w3.org/1999/02/22-rdf-syntax-ns#"
    xmlns:svg="http://www.w3.org/2000/svg"
    xmlns="http://www.w3.org/2000/svg" viewBox="0 0 45 45" style="enable-background:new 0 0 45 45;" width="100" height="100" xml:space="preserve" version="1.1" id="svg2">
    <defs id="defs6">
        <clipPath id="clipPath16" clipPathUnits="userSpaceOnUse">
            <path id="path18" d="M 0,36 36,36 36,0 0,0 0,36 Z"/>
        </clipPath>
    </defs>
    <g transform="matrix(1.25,0,0,-1.25,0,45)" id="g10">
        <g id="g12">
            <g clip-path="url(#clipPath16)" id="g14">
                <g transform="translate(18,36)" id="g20">
                    <path id="path22" style="fill:#ffcc4d;fill-opacity:1;fill-rule:nonzero;stroke:none" d="m 0,0 c -9.94,0 -18,-8.06 -18,-18 0,-6.051 2.996,-11.392 7.574,-14.655 0.104,6.438 -2.237,13.655 -6.17,13.655 -0.464,0 -0.84,-0.066 -1.153,-0.183 0.303,0.757 0.96,1.182 2.189,1.182 4.27,0 6.666,-8.506 6.093,-15.287 C -6.714,-34.997 -3.478,-36 0,-36 c 3.479,0 6.716,1.004 9.47,2.713 -0.577,6.807 1.818,15.287 6.091,15.287 1.233,0 1.891,-0.426 2.192,-1.183 -0.314,0.117 -0.691,0.183 -1.157,0.183 -3.938,0 -6.279,-7.199 -6.17,-13.655 C 15.005,-29.392 18,-24.051 18,-18 18,-8.06 9.941,0 0,0"/>
                </g>
                <g transform="translate(1.4043,17)" id="g40">
                    <path id="path42" style="fill:#fcab40;fill-opacity:1;fill-rule:nonzero;stroke:none" d="m 0,0 c -0.464,0 -0.84,-0.066 -1.153,-0.183 0.072,0.179 0.167,0.336 0.281,0.477 C -2.734,-1.998 1.444,-9.54 -0.586,-17 l 6.461,0 C 7.063,-10.04 4.639,0 0,0"/>
                </g>
                <g transform="translate(35.7529,16.8174)" id="g44">
                    <path id="path46" style="fill:#fcab40;fill-opacity:1;fill-rule:nonzero;stroke:none" d="m 0,0 c -0.313,0.116 -0.69,0.183 -1.157,0.183 -4.641,0 -7.066,-10.002 -5.873,-17 l 6.46,0 C -2.476,-9.772 1.086,-2.729 0,0"/>
                </g>
            </g>
        </g>
    </g>
</svg>
