<?xml version="1.0" encoding="UTF-8" standalone="no"?>
<svg
    xmlns:dc="http://purl.org/dc/elements/1.1/"
    xmlns:cc="http://creativecommons.org/ns#"
    xmlns:rdf="http://www.w3.org/1999/02/22-rdf-syntax-ns#"
    xmlns:svg="http://www.w3.org/2000/svg"
    xmlns="http://www.w3.org/2000/svg" viewBox="0 0 45 45" style="enable-background:new 0 0 45 45;" width="100" height="100" xml:space="preserve" version="1.1" id="svg2">
    <defs id="defs6">
        <clipPath id="clipPath16" clipPathUnits="userSpaceOnUse">
            <path id="path18" d="M 0,36 36,36 36,0 0,0 0,36 Z"/>
        </clipPath>
    </defs>
    <g transform="matrix(1.25,0,0,-1.25,0,45)" id="g10">
        <g id="g12">
            <g clip-path="url(#clipPath16)" id="g14">
                <g transform="translate(36,17.9997)" id="g20">
                    <path id="path22" style="fill:#ffcc4d;fill-opacity:1;fill-rule:nonzero;stroke:none" d="m 0,0 c 0,-9.941 -8.059,-18 -18,-18 -9.941,0 -18,8.059 -18,18 0,9.941 8.059,18 18,18 C -8.059,18 0,9.941 0,0"/>
                </g>
                <g transform="translate(10,31.9997)" id="g24">
                    <path id="path26" style="fill:#ffcc4d;fill-opacity:1;fill-rule:nonzero;stroke:none" d="M 0,0 C -2.58,0 -5.631,2.466 -6.586,3.414 -7.157,3.986 -8.019,4.158 -8.765,3.848 -9.513,3.538 -10,2.809 -10,2 c 0,-3.459 1.672,-10 8,-10 0.757,0 1.45,0.428 1.789,1.105 l 2,4 c 0.31,0.621 0.277,1.357 -0.088,1.946 C 1.337,-0.359 0.693,0 0,0"/>
                </g>
                <g transform="translate(34.7656,35.8474)" id="g28">
                    <path id="path30" style="fill:#ffcc4d;fill-opacity:1;fill-rule:nonzero;stroke:none" d="m 0,0 c -0.75,0.311 -1.607,0.139 -2.18,-0.434 -0.885,-0.885 -3.997,-3.414 -6.586,-3.414 -0.693,0 -1.336,-0.359 -1.701,-0.948 -0.364,-0.59 -0.397,-1.326 -0.088,-1.946 l 2,-4 c 0.339,-0.677 1.032,-1.106 1.789,-1.106 6.329,0 8,6.541 8,10 C 1.234,-1.039 0.747,-0.31 0,0"/>
                </g>
            </g>
        </g>
    </g>
</svg>
