<?xml version="1.0" encoding="UTF-8" standalone="no"?>
<svg
    xmlns:dc="http://purl.org/dc/elements/1.1/"
    xmlns:cc="http://creativecommons.org/ns#"
    xmlns:rdf="http://www.w3.org/1999/02/22-rdf-syntax-ns#"
    xmlns:svg="http://www.w3.org/2000/svg"
    xmlns="http://www.w3.org/2000/svg" viewBox="0 0 45 45" style="enable-background:new 0 0 45 45;" xml:space="preserve" width="100" height="100" version="1.1" id="svg2">
    <defs id="defs6">
        <clipPath id="clipPath16" clipPathUnits="userSpaceOnUse">
            <path id="path18" d="M 0,36 36,36 36,0 0,0 0,36 Z"/>
        </clipPath>
    </defs>
    <g transform="matrix(1.25,0,0,-1.25,0,45)" id="g10">
        <g id="g12">
            <g clip-path="url(#clipPath16)" id="g14">
                <g transform="translate(33.541,12.8018)" id="g20">
                    <path id="path22" style="fill:#bf6952;fill-opacity:1;fill-rule:nonzero;stroke:none" d="m 0,0 c 0.364,1.578 0.243,3.266 -0.458,4.946 -0.678,1.625 -1.847,2.91 -3.271,3.773 0.319,1.193 0.235,2.475 -0.324,3.751 -0.84,1.92 -2.66,3.201 -4.712,3.562 0.249,0.572 0.329,1.288 0.036,2.167 -1,3 -5,1 -8,4.999 -2.439,-1.464 -2.969,-3.639 -2.877,-5.487 -2.422,-0.412 -3.8,-0.936 -3.8,-0.936 l 0,-0.002 c -1.361,-0.551 -2.323,-1.884 -2.323,-3.443 0,-0.879 0.318,-1.676 0.829,-2.312 l -0.692,-0.259 10e-4,-0.003 c -2.33,-0.87 -3.975,-2.976 -3.975,-5.439 0,-1.047 0.3,-2.027 0.82,-2.878 -2.824,-1.268 -4.795,-4.022 -4.795,-7.241 0,-4.418 3.691,-8 8.244,-8 3.269,0 6.559,0.703 9.531,1.665 2.243,-1.04 5.695,-1.665 10.892,-1.665 4.05,0 7.333,3.283 7.333,7.333 C 2.459,-3.293 1.506,-1.344 0,0"/>
                </g>
            </g>
        </g>
    </g>
</svg>
