<?xml version="1.0" encoding="UTF-8" standalone="no"?>
<svg
    xmlns:dc="http://purl.org/dc/elements/1.1/"
    xmlns:cc="http://creativecommons.org/ns#"
    xmlns:rdf="http://www.w3.org/1999/02/22-rdf-syntax-ns#"
    xmlns:svg="http://www.w3.org/2000/svg"
    xmlns="http://www.w3.org/2000/svg" viewBox="0 0 45 45" style="enable-background:new 0 0 45 45;" width="100" height="100" xml:space="preserve" version="1.1" id="svg2">
    <defs id="defs6">
        <clipPath id="clipPath16" clipPathUnits="userSpaceOnUse">
            <path id="path18" d="M 0,36 36,36 36,0 0,0 0,36 Z"/>
        </clipPath>
    </defs>
    <g transform="matrix(1.25,0,0,-1.25,0,45)" id="g10">
        <g id="g12">
            <g clip-path="url(#clipPath16)" id="g14">
                <g transform="translate(34.9639,24.0449)" id="g20">
                    <path id="path22" style="fill:#ffcc4d;fill-opacity:1;fill-rule:nonzero;stroke:none" d="m 0,0 0.036,-0.045 c 0,0 1,10 0,11 -0.91,0.91 -6.771,-0.66 -7.822,-0.951 -2.426,1.234 -5.443,1.951 -9.178,1.951 -3.729,0 -6.742,-0.719 -9.165,-1.954 -1.02,0.283 -6.922,1.867 -7.835,0.954 -1,-1 0,-11 0,-11 l 0.047,0.059 c -0.739,-2.553 -1.047,-5.31 -1.047,-8.059 0,-5.506 3.376,-9.818 7.577,-12.572 0.081,6.417 -2.257,13.572 -6.173,13.572 -0.464,0 -0.839,-0.066 -1.152,-0.183 0.302,0.757 0.96,1.183 2.189,1.183 4.245,0 6.638,-8.411 6.102,-15.174 3.145,-1.836 6.628,-2.826 9.457,-2.826 2.83,0 6.315,0.982 9.461,2.812 -0.546,6.79 1.848,15.188 6.1,15.188 1.233,0 1.891,-0.426 2.192,-1.183 -0.313,0.117 -0.69,0.183 -1.157,0.183 -3.924,0 -6.264,-7.151 -6.171,-13.592 4.199,2.745 7.575,7.054 7.575,12.592 C 1.036,-5.293 0.73,-2.543 0,0"/>
                </g>
                <g transform="translate(35.7529,16.8174)" id="g56">
                    <path id="path58" style="fill:#fcab40;fill-opacity:1;fill-rule:nonzero;stroke:none" d="m 0,0 c -0.313,0.116 -0.69,0.183 -1.157,0.183 -4.641,0 -7.066,-10.002 -5.873,-17 l 6.46,0 C -2.476,-9.772 1.086,-2.729 0,0"/>
                </g>
                <g transform="translate(1.4043,17)" id="g60">
                    <path id="path62" style="fill:#fcab40;fill-opacity:1;fill-rule:nonzero;stroke:none" d="m 0,0 c -0.464,0 -0.84,-0.066 -1.153,-0.183 0.072,0.179 0.167,0.336 0.281,0.477 C -2.734,-1.998 1.444,-9.54 -0.586,-17 l 6.461,0 C 7.063,-10.04 4.639,0 0,0"/>
                </g>
            </g>
        </g>
    </g>
</svg>
