<svg
    xmlns="http://www.w3.org/2000/svg" viewBox="0 0 36 36" width="100" height="100">
    <path fill="#FFCB4E" d="M33 17c1.072-6.084 1.262-15.048 0-15.864C31.738.322 22.928 3.353 21.086 7.4 20.081 7.132 18 7 18 7s-2.013.132-3.017.399C13.14 3.352 4.261.321 3 1.136 1.738 1.952 1.926 10.916 3 17c0 0-.967 1.979-.967 8.95l16-3.967 16 4C34.033 18.979 33 17 33 17z"/>
    <path fill="#FFD882" d="M23.946 19.282c-2.085 0-4.273.477-5.913 1.281-1.639-.805-3.827-1.281-5.912-1.281-9.932 0-10.088 5.1-10.088 6.664C2.033 27.505 4 35.979 18 35.979s16.033-8.441 16.033-10c0-1.564-.156-6.697-10.087-6.697z"/>
    <path fill="#F28F20" d="M23.406 8.054c2.17-2.383 6.681-4.172 7.607-3.945.752.182.635 6.387.031 9.938-2.562-4.251-7.638-5.993-7.638-5.993zm-10.746 0c-2.168-2.383-6.68-4.172-7.606-3.945-.754.182-.637 6.387-.031 9.938 2.563-4.251 7.637-5.993 7.637-5.993z"/>
    <path fill="#FAAA35" d="M22.04 20c0-4.693-1.809-13-4.04-13s-4.04 8.307-4.04 13c0 4.695 1.809 2 4.04 2s4.04 2.695 4.04-2z"/>
</svg>
