<?xml version="1.0" encoding="UTF-8" standalone="no"?>
<svg
    xmlns:dc="http://purl.org/dc/elements/1.1/"
    xmlns:cc="http://creativecommons.org/ns#"
    xmlns:rdf="http://www.w3.org/1999/02/22-rdf-syntax-ns#"
    xmlns:svg="http://www.w3.org/2000/svg"
    xmlns="http://www.w3.org/2000/svg" viewBox="0 0 47.5 47.5" style="enable-background:new 0 0 47.5 47.5;" width="100" height="100" xml:space="preserve" version="1.1" id="svg2">
    <metadata id="metadata8">
        <rdf:RDF>
            <cc:Work rdf:about="">
                <dc:format>image/svg+xml</dc:format>
                <dc:type rdf:resource="http://purl.org/dc/dcmitype/StillImage"/>
            </cc:Work>
        </rdf:RDF>
    </metadata>
    <defs id="defs6">
        <clipPath id="clipPath16" clipPathUnits="userSpaceOnUse">
            <path id="path18" d="M 0,38 38,38 38,0 0,0 0,38 Z"/>
        </clipPath>
    </defs>
    <g transform="matrix(1.25,0,0,-1.25,0,47.5)" id="g10">
        <g id="g12">
            <g clip-path="url(#clipPath16)" id="g14">
                <g transform="translate(36,19)" id="g20">
                    <path id="path22" style="fill:#ffcc4d;fill-opacity:1;fill-rule:nonzero;stroke:none" d="m 0,0 c 0,-9.389 -7.611,-17 -17,-17 -9.388,0 -17,7.611 -17,17 0,9.388 7.612,17 17,17 C -7.611,17 0,9.388 0,0"/>
                </g>
                <g transform="translate(19,30)" id="g28">
                    <path id="path30" style="fill:#5dadec;fill-opacity:1;fill-rule:nonzero;stroke:none" d="M 0,0 C -6.627,0 -12,0.567 -12,2.5 -12,4.433 -6.627,5 0,5 6.627,5 12,4.433 12,2.5 12,0.567 6.627,0 0,0 m 0,7 c -8.836,0 -16,-1.686 -16,-5 0,-3.313 7.164,-5 16,-5 8.836,0 16,1.687 16,5 0,3.314 -7.164,5 -16,5"/>
                </g>

            </g>
        </g>
    </g>
</svg>
