<svg xmlns:dc="http://purl.org/dc/elements/1.1/" xmlns:cc="http://creativecommons.org/ns#" xmlns:rdf="http://www.w3.org/1999/02/22-rdf-syntax-ns#" xmlns:svg="http://www.w3.org/2000/svg" xmlns="http://www.w3.org/2000/svg" viewBox="0 0 45 45" style="enable-background:new 0 0 45 45;" width="100" height="100" xml:space="preserve" version="1.1" id="svg2"><metadata id="metadata8"><rdf:RDF><cc:Work rdf:about=""><dc:format>image/svg+xml</dc:format><dc:type rdf:resource="http://purl.org/dc/dcmitype/StillImage"/></cc:Work></rdf:RDF></metadata><defs id="defs6"><clipPath id="clipPath16" clipPathUnits="userSpaceOnUse"><path id="path18" d="M 0,36 36,36 36,0 0,0 0,36 Z"/></clipPath></defs><g transform="matrix(1.25,0,0,-1.25,0,45)" id="g10"><g id="g12"><g clip-path="url(#clipPath16)" id="g14"><g transform="translate(1.0625,30.875)" id="g20"><path id="path22" style="fill:#5c913b;fill-opacity:1;fill-rule:nonzero;stroke:none" d="m 0,0 c 0,0 4.875,5 10,5 6.125,0 7.937,-4.938 7.937,-4.938 0,0 0.625,4 5,4 4.375,0 6.938,-3.125 6.938,-3.125 0,0 -3.563,-2.124 -4.625,-2.562 C 22.449,-2.778 13.875,-5.187 9.875,-4.187 5.875,-3.188 0,0 0,0"/></g><g transform="translate(18,30)" id="g24"><path id="path26" style="fill:#ff886c;fill-opacity:1;fill-rule:nonzero;stroke:none" d="m 0,0 c 0,0 1.042,0.896 6,0.896 6.542,0 12,-4.813 12,-12.927 0,-11.531 -14.958,-17.881 -14.958,-17.881 0,0 -20.042,1.079 -20.042,17.935 C -17,-2.018 -10.25,1 -6,1 -1.042,1 0,0 0,0"/></g><g transform="translate(1.0625,30.875)" id="g28"><path id="path30" style="fill:#77b255;fill-opacity:1;fill-rule:nonzero;stroke:none" d="m 0,0 c 0,0 4.875,5 10,5 6.125,0 7.937,-4.938 7.937,-4.938 0,0 -4.062,-5.249 -8.062,-4.249 C 5.875,-3.188 0,0 0,0"/></g></g></g></g></svg>
