<svg xmlns:dc="http://purl.org/dc/elements/1.1/" xmlns:cc="http://creativecommons.org/ns#" xmlns:rdf="http://www.w3.org/1999/02/22-rdf-syntax-ns#" xmlns:svg="http://www.w3.org/2000/svg" xmlns="http://www.w3.org/2000/svg" viewBox="0 0 45 45" style="enable-background:new 0 0 45 45;" width="100" height="100" xml:space="preserve" version="1.1" id="svg2"><metadata id="metadata8"><rdf:RDF><cc:Work rdf:about=""><dc:format>image/svg+xml</dc:format><dc:type rdf:resource="http://purl.org/dc/dcmitype/StillImage"/></cc:Work></rdf:RDF></metadata><defs id="defs6"><clipPath id="clipPath16" clipPathUnits="userSpaceOnUse"><path id="path18" d="M 0,36 36,36 36,0 0,0 0,36 Z"/></clipPath></defs><g transform="matrix(1.25,0,0,-1.25,0,45)" id="g10"><g id="g12"><g clip-path="url(#clipPath16)" id="g14"><g transform="translate(18,31.0005)" id="g20"><path id="path22" style="fill:#f18f26;fill-opacity:1;fill-rule:nonzero;stroke:none" d="m 0,0 6,0 c 7,0 11,-7.887 11,-16.001 0,-15 -9,-15 -17,-15 -8,0 -17,0 -17,15 C -17,-6.042 -11,0 -6,0 l 6,0"/></g><g transform="translate(20.873,30.7642)" id="g28"><path id="path30" style="fill:#3f7123;fill-opacity:1;fill-rule:nonzero;stroke:none" d="m 0,0 c 0.069,-0.42 -0.222,-0.764 -0.647,-0.764 l -4.452,0 c -0.425,0 -0.717,0.344 -0.647,0.764 L -5,4.472 c 0.07,0.42 0.476,0.764 0.901,0.764 l 2.452,0 c 0.425,0 0.832,-0.344 0.901,-0.764 L 0,0 Z"/></g><g transform="translate(16,30)" id="g32"><path id="path34" style="fill:#5c913b;fill-opacity:1;fill-rule:nonzero;stroke:none" d="m 0,0 c 0,0 2,5.001 8,5.001 5,0 7,-5 7,-5 L 0,0 Z"/></g><g transform="translate(8.6914,24.8911)" id="g36"/></g></g></g></svg>
