<svg xmlns:dc="http://purl.org/dc/elements/1.1/" xmlns:cc="http://creativecommons.org/ns#" xmlns:rdf="http://www.w3.org/1999/02/22-rdf-syntax-ns#" xmlns:svg="http://www.w3.org/2000/svg" xmlns="http://www.w3.org/2000/svg" viewBox="0 0 45 45" style="enable-background:new 0 0 45 45;" width="100" height="100" xml:space="preserve" version="1.1" id="svg2"><metadata id="metadata8"><rdf:RDF><cc:Work rdf:about=""><dc:format>image/svg+xml</dc:format><dc:type rdf:resource="http://purl.org/dc/dcmitype/StillImage"/></cc:Work></rdf:RDF></metadata><defs id="defs6"><clipPath id="clipPath16" clipPathUnits="userSpaceOnUse"><path id="path18" d="M 0,36 36,36 36,0 0,0 0,36 Z"/></clipPath></defs><g transform="matrix(1.25,0,0,-1.25,0,45)" id="g10"><g id="g12"><g clip-path="url(#clipPath16)" id="g14"><g transform="translate(6,16)" id="g20"><path id="path22" style="fill:#ffdc5d;fill-opacity:1;fill-rule:nonzero;stroke:none" d="M 0,0 C 0,-2.209 -1.119,-4 -2.5,-4 -3.881,-4 -5,-2.209 -5,0 -5,2.21 -3.881,4.001 -2.5,4.001 -1.119,4.001 0,2.21 0,0"/></g><g transform="translate(35,16)" id="g24"><path id="path26" style="fill:#ffdc5d;fill-opacity:1;fill-rule:nonzero;stroke:none" d="M 0,0 C 0,-2.209 -1.119,-4 -2.5,-4 -3.881,-4 -5,-2.209 -5,0 -5,2.21 -3.881,4.001 -2.5,4.001 -1.119,4.001 0,2.21 0,0"/></g><g transform="translate(4,15.4375)" id="g28"><path id="path30" style="fill:#ffdc5d;fill-opacity:1;fill-rule:nonzero;stroke:none" d="M 0,0 C 0,8.526 6.268,15.438 14,15.438 21.732,15.438 28,8.526 28,0 28,-8.525 21.732,-14.438 14,-14.438 6.268,-14.438 0,-8.525 0,0"/></g><g transform="translate(12,14)" id="g32"/><g transform="translate(24,14)" id="g36"/><g transform="translate(18,6)" id="g40"/><g transform="translate(19,11)" id="g44"/><g transform="translate(18,35.6455)" id="g48"><path id="path50" style="fill:#ffac33;fill-opacity:1;fill-rule:nonzero;stroke:none" d="m 0,0 c -9.23,0 -15,-6.462 -15,-11.846 0,-5.385 1.154,-7.539 2.308,-5.385 1.154,2.154 2.307,4.308 2.307,4.308 0,0 3.792,0.124 6.099,2.278 0,0 -1.071,-4 6.595,-0.125 0,0 -0.166,-3.875 5.191,0.125 0,0 4.039,-1.201 5.191,-6.586 0.321,-1.494 2.309,0 2.309,5.385 C 15,-6.462 10.385,0 0,0"/></g></g></g></g></svg>
