<svg xmlns:dc="http://purl.org/dc/elements/1.1/" xmlns:cc="http://creativecommons.org/ns#" xmlns:rdf="http://www.w3.org/1999/02/22-rdf-syntax-ns#" xmlns:svg="http://www.w3.org/2000/svg" xmlns="http://www.w3.org/2000/svg" viewBox="0 0 45 45" style="enable-background:new 0 0 45 45;" width="100" height="100" xml:space="preserve" version="1.1" id="svg2"><metadata id="metadata8"><rdf:RDF><cc:Work rdf:about=""><dc:format>image/svg+xml</dc:format><dc:type rdf:resource="http://purl.org/dc/dcmitype/StillImage"/></cc:Work></rdf:RDF></metadata><defs id="defs6"><clipPath id="clipPath16" clipPathUnits="userSpaceOnUse"><path id="path18" d="M 0,36 36,36 36,0 0,0 0,36 Z"/></clipPath></defs><g transform="matrix(1.25,0,0,-1.25,0,45)" id="g10"><g id="g12"><g clip-path="url(#clipPath16)" id="g14"><g transform="translate(29.96,12.9131)" id="g20"><path id="path22" style="fill:#ffac33;fill-opacity:1;fill-rule:nonzero;stroke:none" d="m 0,0 c 4.04,-3.913 4.083,-10.935 3.061,-10.935 -1.021,0 -4.115,1.852 -6.068,3.937 -1.953,2.085 -1.75,6.779 -1.75,6.779 l 1.586,4.32 C -3.171,4.101 -4.04,3.913 0,0"/></g><g transform="translate(26.96,12.9131)" id="g24"><path id="path26" style="fill:#ffac33;fill-opacity:1;fill-rule:nonzero;stroke:none" d="m 0,0 c 4.04,-3.913 4.083,-10.935 3.061,-10.935 -1.021,0 -4.115,1.852 -6.068,3.937 -1.953,2.085 -1.75,6.779 -1.75,6.779 l 1.586,4.32 C -3.171,4.101 -4.04,3.913 0,0"/></g><g transform="translate(3,2)" id="g28"><path id="path30" style="fill:#ffac33;fill-opacity:1;fill-rule:nonzero;stroke:none" d="m 0,0 c -1,0 -1,7 3,11 4,4.001 3,4.001 3,4.001 L 8,11 C 8,11 8,6 6,4 4,2 1,0 0,0"/></g><g transform="translate(6,2)" id="g32"><path id="path34" style="fill:#ffac33;fill-opacity:1;fill-rule:nonzero;stroke:none" d="m 0,0 c -1,0 -1,7 3,11 4,4.001 3,4.001 3,4.001 L 8,11 C 8,11 8,6 6,4 4,2 1,0 0,0"/></g><g transform="translate(6.9141,17.647)" id="g36"><path id="path38" style="fill:#ffdc5d;fill-opacity:1;fill-rule:nonzero;stroke:none" d="M 0,0 C -0.571,2.134 -2.116,3.575 -3.45,3.217 -4.784,2.86 -5.4,0.84 -4.829,-1.294 -4.258,-3.428 -2.713,-4.868 -1.379,-4.51 -0.045,-4.153 0.572,-2.133 0,0"/></g><g transform="translate(33.915,16.3525)" id="g40"><path id="path42" style="fill:#ffdc5d;fill-opacity:1;fill-rule:nonzero;stroke:none" d="M 0,0 C 0.571,2.134 -0.046,4.154 -1.38,4.512 -2.713,4.868 -4.258,3.429 -4.829,1.294 -5.401,-0.84 -4.784,-2.859 -3.45,-3.217 -2.116,-3.574 -0.571,-2.134 0,0"/></g><g transform="translate(31,17)" id="g44"><path id="path46" style="fill:#ffdc5d;fill-opacity:1;fill-rule:nonzero;stroke:none" d="m 0,0 c 0,9.389 -5.82,16 -13,16 -7.18,0 -13,-6.611 -13,-16 0,-9.389 5.82,-15 13,-15 7.18,0 13,5.611 13,15"/></g><g transform="translate(32,26.0005)" id="g64"><path id="path66" style="fill:#ffac33;fill-opacity:1;fill-rule:nonzero;stroke:none" d="m 0,0 c -2,7 -7,9 -10,9 -2,0 -4,-2 -4,-2 0,0 -2.001,2 -4,2 -3,0 -8,-2 -10,-9 -1.648,-5.769 1,-11 1,-11 0,3.001 2,9 7,9 5,0 6,4 6,4 0,0 0.786,-4 5.786,-4 5,0 7.214,-5.999 7.214,-9 0,0 2.648,5.231 1,11"/></g></g></g></g></svg>
