<svg xmlns:dc="http://purl.org/dc/elements/1.1/" xmlns:cc="http://creativecommons.org/ns#" xmlns:rdf="http://www.w3.org/1999/02/22-rdf-syntax-ns#" xmlns:svg="http://www.w3.org/2000/svg" xmlns="http://www.w3.org/2000/svg" viewBox="0 0 45 45" style="enable-background:new 0 0 45 45;" width="100" height="100" xml:space="preserve" version="1.1" id="svg2"><metadata id="metadata8"><rdf:RDF><cc:Work rdf:about=""><dc:format>image/svg+xml</dc:format><dc:type rdf:resource="http://purl.org/dc/dcmitype/StillImage"/></cc:Work></rdf:RDF></metadata><defs id="defs6"><clipPath id="clipPath16" clipPathUnits="userSpaceOnUse"><path id="path18" d="M 0,36 36,36 36,0 0,0 0,36 Z"/></clipPath></defs><g transform="matrix(1.25,0,0,-1.25,0,45)" id="g10"><g id="g12"><g clip-path="url(#clipPath16)" id="g14"><g transform="translate(32.7334,25.3667)" id="g20"><path id="path22" style="fill:#d1d3d4;fill-opacity:1;fill-rule:nonzero;stroke:none" d="m 0,0 c 0,-4.068 -6.597,-7.367 -14.733,-7.367 -8.138,0 -14.734,3.299 -14.734,7.367 0,4.069 1.134,8.634 14.734,8.634 C -1.134,8.634 0,4.069 0,0"/></g><g transform="translate(32.167,22.5337)" id="g24"><path id="path26" style="fill:#ffdc5d;fill-opacity:1;fill-rule:nonzero;stroke:none" d="m 0,0 c -0.318,0 -0.619,-0.103 -0.904,-0.258 -1.36,7.616 -6.777,12.725 -13.263,12.725 -6.487,0 -11.903,-5.109 -13.263,-12.724 -0.285,0.154 -0.586,0.257 -0.904,0.257 -1.564,0 -2.833,-2.03 -2.833,-4.534 0,-2.504 1.269,-4.533 2.833,-4.533 0.381,0 0.744,0.124 1.075,0.342 1.595,-7.383 6.845,-12.809 13.092,-12.809 6.247,0 11.497,5.426 13.091,12.81 0.332,-0.219 0.695,-0.343 1.076,-0.343 1.564,0 2.833,2.029 2.833,4.533 C 2.833,-2.03 1.564,0 0,0"/></g><g transform="translate(11.2012,17)" id="g28"/><g transform="translate(24.7988,17)" id="g32"/><g transform="translate(18,5.667)" id="g44"/></g></g></g></svg>
