<?xml version="1.0" encoding="UTF-8"?>
<svg enable-background="new 0 0 45 45" version="1.1" viewBox="0 0 45 45" width="100" height="100" xml:space="preserve" xmlns="http://www.w3.org/2000/svg" xmlns:cc="http://creativecommons.org/ns#" xmlns:dc="http://purl.org/dc/elements/1.1/" xmlns:rdf="http://www.w3.org/1999/02/22-rdf-syntax-ns#"><metadata><rdf:RDF><cc:Work rdf:about=""><dc:format>image/svg+xml</dc:format><dc:type rdf:resource="http://purl.org/dc/dcmitype/StillImage"/><dc:title/></cc:Work></rdf:RDF></metadata><g transform="matrix(1 0 0 1.0954 .10401 -.34551)" fill="#ffcc4d"><g transform="translate(.125 .21228)"><g transform="matrix(3.3023 0 0 -1.9091 26.968 7.7025)"><path d="M 0,0 C -2.168,2.383 -6.68,4.172 -7.606,3.945 -8.359,3.764 -8.242,-2.441 -7.637,-5.992 -5.074,-1.742 0,0 0,0" fill="#ffcc4d"/></g><g transform="matrix(2.3131 0 0 -1.4446 14.712 10.078)"><path d="m1.3115 0.92596c-1.7184 2.383-5.2947 4.172-6.0287 3.945-0.59684-0.181-0.50411-6.386-0.024571-9.937 2.0315 4.25 6.0532 5.992 6.0532 5.992" fill="#ff7892"/></g></g><g transform="matrix(-1 0 0 1 44.667 .21228)"><g transform="matrix(3.3023 0 0 -1.9091 26.968 7.7025)"><path d="M 0,0 C -2.168,2.383 -6.68,4.172 -7.606,3.945 -8.359,3.764 -8.242,-2.441 -7.637,-5.992 -5.074,-1.742 0,0 0,0" fill="#ffcc4d"/></g><g transform="matrix(2.3131 0 0 -1.4446 14.712 10.078)"><path d="m1.3115 0.92596c-1.7184 2.383-5.2947 4.172-6.0287 3.945-0.59684-0.181-0.50411-6.386-0.024571-9.937 2.0315 4.25 6.0532 5.992 6.0532 5.992" fill="#ff7892"/></g></g></g><g transform="matrix(1.1597 0 0 -1.1597 43.375 24.125)"><path d="m0 0c0-9.941-8.059-18-18-18-9.94 0-18 8.059-18 18 0 9.94 8.06 18 18 18 9.941 0 18-8.06 18-18" fill="#ffcc4d"/></g><g transform="translate(.197)" fill="#f4900c"><g transform="translate(0 .4967)"><g transform="matrix(.25547 .70189 .92582 -.33697 2.9378 19.648)"><path d="m4.6507-3.0078c0.26029 0.071824 0.46777 0.25145 0.55277 0.51329 0.012401 0.040669 1.4093 4.1156 7.6961 7.0444 0.47473 0.22145 0.59564 0.79861 0.26989 1.2887-0.3262 0.49103-0.97424 0.70596-1.4489 0.48879-0.3196-0.14778-0.62665-0.29955-0.92438-0.45301-6.1719-3.1971-7.5432-7.3385-7.6016-7.5206-0.1525-0.48478 0.17303-1.0675 0.72771-1.3008 0.25204-0.10604 0.50941-0.12122 0.72836-0.060808" fill="#f4900c"/></g><g transform="matrix(.73559 -.1297 -.17108 -.97027 11.305 29.635)"><path d="m0 0c0.406 0 0.789 0.25 0.939 0.653 0.191 0.519-0.075 1.094-0.592 1.285-5.477 2.024-12.161 0.189-12.451 0.109-0.532-0.149-0.842-0.699-0.695-1.231s0.697-0.842 1.23-0.697c0.064 0.018 6.358 1.739 11.222-0.058 0.115-0.041 0.232-0.061 0.347-0.061" fill="#f4900c"/></g></g><g transform="matrix(-1 0 0 1 44.606 .4967)"><g transform="matrix(.25547 .70189 .92582 -.33697 2.9378 19.648)"><path d="m4.6507-3.0078c0.26029 0.071824 0.46777 0.25145 0.55277 0.51329 0.012401 0.040669 1.4093 4.1156 7.6961 7.0444 0.47473 0.22145 0.59564 0.79861 0.26989 1.2887-0.3262 0.49103-0.97424 0.70596-1.4489 0.48879-0.3196-0.14778-0.62665-0.29955-0.92438-0.45301-6.1719-3.1971-7.5432-7.3385-7.6016-7.5206-0.1525-0.48478 0.17303-1.0675 0.72771-1.3008 0.25204-0.10604 0.50941-0.12122 0.72836-0.060808" fill="#f4900c"/></g><g transform="matrix(.73559 -.1297 -.17108 -.97027 11.305 29.635)"><path d="m0 0c0.406 0 0.789 0.25 0.939 0.653 0.191 0.519-0.075 1.094-0.592 1.285-5.477 2.024-12.161 0.189-12.451 0.109-0.532-0.149-0.842-0.699-0.695-1.231s0.697-0.842 1.23-0.697c0.064 0.018 6.358 1.739 11.222-0.058 0.115-0.041 0.232-0.061 0.347-0.061" fill="#f4900c"/></g></g></g></svg>
