<?xml version="1.0" encoding="UTF-8"?>
<svg enable-background="new 0 0 45 45" version="1.1" viewBox="0 0 45 45" width="100" height="100" xml:space="preserve" xmlns="http://www.w3.org/2000/svg" xmlns:cc="http://creativecommons.org/ns#" xmlns:dc="http://purl.org/dc/elements/1.1/" xmlns:osb="http://www.openswatchbook.org/uri/2009/osb" xmlns:rdf="http://www.w3.org/1999/02/22-rdf-syntax-ns#"><metadata><rdf:RDF><cc:Work rdf:about=""><dc:format>image/svg+xml</dc:format><dc:type rdf:resource="http://purl.org/dc/dcmitype/StillImage"/><dc:title/></cc:Work></rdf:RDF></metadata><defs><clipPath id="clipPath4202"><g transform="matrix(1.25 0 0 -1.25 22.546 13.76)" fill="#5dadec"><path d="m0 0c8.749 0 16.033-4.509 17.656-10.484 0.222 1.128 0.344 2.292 0.344 3.484 0 6.2497-3.1858 11.756-8.0222 14.983-2.8558 1.9057-6.2871 3.0166-9.9778 3.0166-9.94 0-18-8.06-18-18 0-1.192 0.123-2.356 0.344-3.484 1.623 5.975 8.908 10.484 17.656 10.484" fill="#5dadec"/></g></clipPath></defs><path d="m45.046 22.5c0 12.426-10.074 22.5-22.5 22.5-12.425 0-22.5-10.074-22.5-22.5 0-12.425 10.075-22.5 22.5-22.5 12.426 0 22.5 10.075 22.5 22.5" fill="#bdddf4"/><g transform="matrix(1.25 0 0 -1.25 22.546 13.939)" fill="#5dadec"><path d="m0 0.14375c8.749 0 16.033-4.509 17.656-10.484 0.222 1.128 0.344 2.292 0.344 3.484 0 6.2497-3.1858 11.756-8.0222 14.983-2.8558 1.9057-6.2871 3.0166-9.9778 3.0166-9.94 0-18-8.06-18-18 0-1.192 0.123-2.356 0.344-3.484 1.623 5.975 8.908 10.484 17.656 10.484" fill="#5dadec"/></g><g transform="matrix(1 0 0 -1 5.7872 76.773)"><g transform="matrix(1.25,0,0,-1.25,33.75,44.375)"><path d="m0 0c0-0.276-0.224-0.5-0.5-0.5s-0.5 0.224-0.5 0.5v6c0 0.276 0.224 0.5 0.5 0.5s0.5-0.224 0.5-0.5v-6z" fill="#5dadec"/></g><g transform="matrix(1.25 0 0 -1.25 36.685 41.959)"><path d="m0 0c0.239-0.138 0.32-0.443 0.183-0.683-0.138-0.24-0.444-0.321-0.683-0.183l-5.196 3c-0.24 0.138-0.322 0.443-0.183 0.683 0.138 0.24 0.443 0.321 0.683 0.183l5.196-3z" fill="#5dadec"/></g><g transform="matrix(1.25 0 0 -1.25 29.564 41.959)"><path d="m0 0c-0.239-0.138-0.32-0.443-0.183-0.683 0.138-0.24 0.444-0.321 0.683-0.183l5.196 3c0.24 0.138 0.322 0.443 0.183 0.683-0.138 0.24-0.443 0.321-0.683 0.183l-5.196-3z" fill="#5dadec"/></g></g><g transform="translate(-27.678 -8.9231)"><g transform="matrix(1.25,0,0,-1.25,33.75,44.375)"><path d="m0 0c0-0.276-0.224-0.5-0.5-0.5s-0.5 0.224-0.5 0.5v6c0 0.276 0.224 0.5 0.5 0.5s0.5-0.224 0.5-0.5v-6z" fill="#5dadec"/></g><g transform="matrix(1.25 0 0 -1.25 36.685 41.959)"><path d="m0 0c0.239-0.138 0.32-0.443 0.183-0.683-0.138-0.24-0.444-0.321-0.683-0.183l-5.196 3c-0.24 0.138-0.322 0.443-0.183 0.683 0.138 0.24 0.443 0.321 0.683 0.183l5.196-3z" fill="#5dadec"/></g><g transform="matrix(1.25 0 0 -1.25 29.564 41.959)"><path d="m0 0c-0.239-0.138-0.32-0.443-0.183-0.683 0.138-0.24 0.444-0.321 0.683-0.183l5.196 3c0.24 0.138 0.322 0.443 0.183 0.683-0.138 0.24-0.443 0.321-0.683 0.183l-5.196-3z" fill="#5dadec"/></g></g><g clip-path="url(#clipPath4202)" fill="#bdddf4"><g transform="matrix(4.1496 0 0 4.1496 40.722 -15.195)"><path d="m0 0c0-0.276-0.224-0.5-0.5-0.5s-0.5 0.224-0.5 0.5v6c0 0.276 0.224 0.5 0.5 0.5s0.5-0.224 0.5-0.5v-6z" fill="#bdddf4"/></g><g transform="matrix(4.1496 0 0 4.1496 57.793 -3.0183)"><path d="m0 0c0.239-0.138 0.32-0.443 0.183-0.683-0.138-0.24-0.444-0.321-0.683-0.183l-5.196 3c-0.24 0.138-0.322 0.443-0.183 0.683 0.138 0.24 0.443 0.321 0.683 0.183l5.196-3z" fill="#bdddf4"/></g><g transform="matrix(4.1496 0 0 4.1496 34.112 5.39)"><path d="m0 0c-0.239-0.138-0.32-0.443-0.183-0.683 0.138-0.24 0.444-0.321 0.683-0.183l5.196 3c0.24 0.138 0.322 0.443 0.183 0.683-0.138 0.24-0.443 0.321-0.683 0.183l-5.196-3z" fill="#bdddf4"/></g></g><g transform="matrix(1 0 0 -1 5.547 46.235)"><g transform="matrix(1.25,0,0,-1.25,33.75,44.375)"><path d="m0 0c0-0.276-0.224-0.5-0.5-0.5s-0.5 0.224-0.5 0.5v6c0 0.276 0.224 0.5 0.5 0.5s0.5-0.224 0.5-0.5v-6z" fill="#5dadec"/></g><g transform="matrix(1.25 0 0 -1.25 36.685 41.959)"><path d="m0 0c0.239-0.138 0.32-0.443 0.183-0.683-0.138-0.24-0.444-0.321-0.683-0.183l-5.196 3c-0.24 0.138-0.322 0.443-0.183 0.683 0.138 0.24 0.443 0.321 0.683 0.183l5.196-3z" fill="#5dadec"/></g><g transform="matrix(1.25 0 0 -1.25 29.564 41.959)"><path d="m0 0c-0.239-0.138-0.32-0.443-0.183-0.683 0.138-0.24 0.444-0.321 0.683-0.183l5.196 3c0.24 0.138 0.322 0.443 0.183 0.683-0.138 0.24-0.443 0.321-0.683 0.183l-5.196-3z" fill="#5dadec"/></g></g></svg>
