<svg xmlns:dc="http://purl.org/dc/elements/1.1/" xmlns:cc="http://creativecommons.org/ns#" xmlns:rdf="http://www.w3.org/1999/02/22-rdf-syntax-ns#" xmlns:svg="http://www.w3.org/2000/svg" xmlns="http://www.w3.org/2000/svg" viewBox="0 0 45 45" style="enable-background:new 0 0 45 45;" width="100" height="100" xml:space="preserve" version="1.1" id="svg2"><metadata id="metadata8"><rdf:RDF><cc:Work rdf:about=""><dc:format>image/svg+xml</dc:format><dc:type rdf:resource="http://purl.org/dc/dcmitype/StillImage"/></cc:Work></rdf:RDF></metadata><defs id="defs6"><clipPath id="clipPath16" clipPathUnits="userSpaceOnUse"><path id="path18" d="M 0,36 36,36 36,0 0,0 0,36 Z"/></clipPath></defs><g transform="matrix(1.25,0,0,-1.25,0,45)" id="g10"><g id="g12"><g clip-path="url(#clipPath16)" id="g14"><g transform="translate(34.1934,22.6709)" id="g20"><path id="path22" style="fill:#f4abba;fill-opacity:1;fill-rule:nonzero;stroke:none" d="m 0,0 c 0.387,0.371 0.733,0.795 1.02,1.28 1.685,2.853 0.269,10.292 -0.592,10.8 -0.696,0.411 -5.53,-1.05 -8.246,-3.132 -2.499,1.497 -5.344,2.381 -8.375,2.381 -3.022,0 -5.856,-0.879 -8.349,-2.367 -2.721,2.075 -7.533,3.528 -8.227,3.118 -0.861,-0.508 -2.276,-7.947 -0.592,-10.8 0.278,-0.471 0.615,-0.884 0.989,-1.249 -1.156,-2.551 -1.821,-5.342 -1.821,-8.18 0,-9.99 8.01,-12.522 18,-12.522 9.989,0 18,2.532 18,12.522 C 1.807,-5.322 1.146,-2.544 0,0"/></g><g transform="translate(7.3979,30.0352)" id="g24"><path id="path26" style="fill:#ea596e;fill-opacity:1;fill-rule:nonzero;stroke:none" d="M 0,0 C -2.166,1.268 -4.402,2.08 -4.8,1.845 -5.37,1.509 -5.883,-3.153 -5.151,-6.419 -3.879,-3.938 -2.112,-1.738 0,0"/></g><g transform="translate(33.7529,23.6157)" id="g28"><path id="path30" style="fill:#ea596e;fill-opacity:1;fill-rule:nonzero;stroke:none" d="M 0,0 C 0.732,3.267 0.219,7.928 -0.351,8.265 -0.749,8.499 -2.985,7.687 -5.151,6.419 -3.038,4.682 -1.271,2.482 0,0"/></g><g transform="translate(9,19)" id="g44"/><g transform="translate(31,19)" id="g48"/></g></g></g></svg>
