<svg xmlns="http://www.w3.org/2000/svg" viewBox="0 0 45 45" width="100" height="100"><defs><clipPath id="a" clipPathUnits="userSpaceOnUse"><path d="M0 36h36V0H0v36z"/></clipPath></defs><g clip-path="url(#a)" transform="matrix(1.25 0 0 -1.25 0 45)"><path d="M15.391 15.92a.997.997 0 01-1.239-.39l-5-8A.998.998 0 0110 6h3a1 1 0 01.97.758l2 8a1 1 0 01-.579 1.162M26.848 7.53l-5 8a.999.999 0 01-1.817-.772l2-8A.998.998 0 0123 6h3a1 1 0 01.848 1.53" fill="#f5f8fa"/><path d="M31.982 5.822c.003.06.018.117.018.178 0 1.656-1.344 3-3 3a2.995 2.995 0 01-2.473-1.305A4 4 0 1125 0c1.365 0 2.568.686 3.29 1.731A2.993 2.993 0 0131 .001a3 3 0 013 3 2.99 2.99 0 01-2.018 2.821M11 8c-.542 0-1.056-.11-1.527-.305A2.996 2.996 0 017 9C5.344 9 4 7.656 4 6c0-.061.014-.118.018-.178A2.99 2.99 0 012 3a3 3 0 013-3c1.202 0 2.231.711 2.709 1.731A3.996 3.996 0 0111 0a4 4 0 010 8" fill="#e1e8ed"/></g></svg>