<svg xmlns="http://www.w3.org/2000/svg" viewBox="0 0 45 45" width="100" height="100"><defs><clipPath id="a" clipPathUnits="userSpaceOnUse"><path d="M0 36h36V0H0v36z"/></clipPath></defs><g clip-path="url(#a)" transform="matrix(1.25 0 0 -1.25 0 45)"><path d="M18.406 17.967c2.678-2.676-3.974-15.524-5.25-16.8-1.05-1.05-4.2-1.05-5.25 1.05-1.05 2.1-4.2 0-5.25 1.05-2.1 2.1 1.05 3.15 0 5.25s-3.15 3.15-1.05 5.25c2.1 2.1 7.35 1.05 10.5 3.15 3.15 2.1 5.249 2.1 6.3 1.05" fill="#ccd6dd"/><path d="M17.322 16.128c-.016.062-.053.113-.08.17-.03.066-.05.135-.093.194a1.046 1.046 0 01-.694.415h-.001a1.066 1.066 0 01-.406-.022c-.09-.023-.17-.072-.25-.117-.037-.021-.08-.03-.115-.056a1.053 1.053 0 01-.278-.305c-2.934-4.89-9.942-7.944-10.013-7.975a1.051 1.051 0 01.828-1.93c.224.096 4.056 1.771 7.426 4.713-2.068-3.825-5.23-5.996-5.274-6.025a1.05 1.05 0 011.167-1.746c.273.182 6.702 4.549 7.806 12.273.02.139.01.278-.023.411" fill="#f5f8fa"/></g></svg>