<svg xmlns="http://www.w3.org/2000/svg" viewBox="0 0 45 45" width="100" height="100"><defs><clipPath id="a" clipPathUnits="userSpaceOnUse"><path d="M0 36h36V0H0v36z"/></clipPath></defs><g clip-path="url(#a)" transform="matrix(1.25 0 0 -1.25 0 45)"><path d="M27 13.91L36 18c0 .66-.041 1.31-.109 1.95L27 15.91V17a2 2 0 01-2 2H11a2 2 0 01-2-2v-1.09L.11 19.95C.041 19.31 0 18.66 0 18l9-4.09V9.362L1.547 10.72c.341-.77.741-1.507 1.182-2.215L9 7.364V6a2 2 0 012-2h14a2 2 0 012 2v1.363l6.271 1.141c.442.708.841 1.445 1.182 2.215L27 9.363v4.546z" fill="#f5f8fa"/></g></svg>