<svg xmlns="http://www.w3.org/2000/svg" viewBox="0 0 45 45" width="100" height="100"><defs><clipPath id="a" clipPathUnits="userSpaceOnUse"><path d="M0 36h36V0H0v36z"/></clipPath></defs><g clip-path="url(#a)" transform="matrix(1.25 0 0 -1.25 0 45)"><path d="M30.892 22.976c-.12-.954-.435-3.515-1.265-4.134-.664-.495-2.362-.842-3.587-.842h-.001c-1.106 0-2.163.282-2.974.743-1.323.753-1.52 2.862-1.597 3.967-.043.608-.176 1.85.829 2.468 1.135.698 3.462.746 4.155.746 1.513 0 2.992-.277 4.052-.638.668-.228.464-1.703.388-2.31m-16.277-.253c-.078-1.105-.274-3.227-1.597-3.98-.812-.461-1.868-.743-2.975-.743h-.001c-1.225 0-2.923.347-3.587.842-.83.619-1.145 3.167-1.265 4.12-.076.607-.28 2.09.388 2.319 1.06.36 2.539.643 4.052.643.693 0 3.02-.043 4.155-.741 1.005-.618.872-1.852.83-2.46m20.194 3.65c-.171.167-1.267-.274-2.376.29-2.288 1.167-8.07 2.293-11.834-.374-.403-.286-2.087-.334-2.558-.313-.47-.021-2.155.027-2.558.313-3.763 2.667-9.546 1.54-11.833.375-1.11-.565-2.206-.124-2.376-.291-.248-.24-.247-1.196 0-1.435.246-.24 1.477-.515 1.722-1.233.247-.718.249-4.958 2.214-6.423 1.838-1.372 6.128-1.785 8.847-.24 2.373 1.35 2.289 4.19 2.724 5.882.155.604.592.908 1.26.908.669 0 1.105-.304 1.26-.908.435-1.691.352-4.531 2.724-5.881 2.719-1.546 7.009-1.133 8.848.239 1.965 1.465 1.967 5.705 2.213 6.423.245.718 1.476.994 1.722 1.233.248.239.248 1.196 0 1.435" fill="#292f33"/></g></svg>