<svg xmlns="http://www.w3.org/2000/svg" viewBox="0 0 45 45" width="100" height="100"><defs><clipPath id="a" clipPathUnits="userSpaceOnUse"><path d="M0 36h36V0H0v36z"/></clipPath></defs><g clip-path="url(#a)" transform="matrix(1.25 0 0 -1.25 0 45)"><path d="M17.276.868s1.265.411 1.43 1.352c.172.971-.625 1.167-.625 1.167s1.041.208 1.172 1.376c.123 1.1-.862 1.363-.862 1.363s.97.4 1.016 1.54c.038.958-.995 1.427-.995 1.427s5.038 1.22 5.555 1.34c.516.121 1.321.616 1.07 1.695-.249 1.08-1.204 1.118-1.698 1.003-.494-.116-6.744-1.567-8.9-2.069-.23-.053-1.308-.302-1.439-.334-.54-.127-.785.111-.405.512.51.536.833 1.13.947 2.113.12 1.036-.232 2.314-.433 2.81-.374.92-1.005 1.648-1.734 1.898-1.138.39-1.946-.32-1.542-1.56.604-1.856.21-3.376-.833-4.294-2.449-2.157-3.589-3.695-2.83-6.973.827-3.575 4.377-5.876 7.952-5.048l3.154.682" fill="#f4900c"/></g></svg>