<svg xmlns="http://www.w3.org/2000/svg" viewBox="0 0 45 45" width="100" height="100"><defs><clipPath id="a" clipPathUnits="userSpaceOnUse"><path d="M0 36h36V0H0v36z"/></clipPath></defs><g clip-path="url(#a)" transform="matrix(1.25 0 0 -1.25 0 45)"><path d="M10.847 7.77A5 5 0 004.77 4.157a4.998 4.998 0 00-3.615 6.075c.68 2.678 6.337 8.709 7.307 8.463.968-.246 3.064-8.246 2.385-10.923M25.133 7.77a5 5 0 016.077-3.614 4.998 4.998 0 013.616 6.075c-.68 2.678-6.338 8.709-7.307 8.463-.97-.246-3.065-8.246-2.386-10.923" fill="#e75a70"/></g></svg>