<svg xmlns="http://www.w3.org/2000/svg" viewBox="0 0 36 36"><path fill="#DD2E44" d="M33.625 3.269A3.063 3.063 0 0030.562.206a3.057 3.057 0 00-2.489 1.282 3.063 3.063 0 00-5.47 2.477c.426 2.643 3.364 5.431 5.47 6.197 2.106-.766 5.044-3.554 5.469-6.196.053-.225.083-.457.083-.697zM12.208 28.408a3.319 3.319 0 00-3.319-3.319 3.312 3.312 0 00-2.697 1.389 3.311 3.311 0 00-2.697-1.389 3.319 3.319 0 00-3.23 4.073c.461 2.863 3.644 5.884 5.926 6.714 2.282-.829 5.465-3.85 5.926-6.713.058-.244.091-.496.091-.755zm23.74-2.281a2.299 2.299 0 00-4.167-1.337 2.299 2.299 0 00-4.105 1.859c.319 1.983 2.524 4.076 4.105 4.65 1.58-.574 3.786-2.667 4.104-4.65.04-.168.063-.342.063-.522z"/></svg>