<svg viewBox="0 0 45 45" xmlns="http://www.w3.org/2000/svg"><g fill="#e75a70"><path d="M14.897 15.354s-3.917-1.77-3.294-5.926c.553-3.683 5.374-4.336 5.374-4.336s.459 1.206 1.063 2.348c-3.585 1.488-4.88 3.436-1.064 6.104-1.2 1.213-2.08 1.81-2.08 1.81zM2.104 14.089s1.77-3.918 5.926-3.294c3.683.553 4.336 5.374 4.336 5.374s-1.206.459-2.348 1.063c-1.488-3.585-3.436-4.88-6.104-1.065-1.213-1.198-1.81-2.078-1.81-2.078zM3.713 1.587s3.917 1.77 3.294 5.926c-.553 3.683-5.375 4.336-5.375 4.336S1.174 10.643.57 9.501c3.585-1.488 4.88-3.436 1.065-6.104 1.199-1.213 2.079-1.81 2.079-1.81z"/><path d="M16.078 3.002s-1.77 3.918-5.926 3.294C6.47 5.744 5.816.922 5.816.922S7.022.463 8.164-.14c1.488 3.585 3.437 4.88 6.104 1.065 1.213 1.198 1.81 2.078 1.81 2.078z"/></g></svg>