<svg xmlns="http://www.w3.org/2000/svg" viewBox="0 0 45 45" width="100" height="100"><defs><clipPath id="a" clipPathUnits="userSpaceOnUse"><path d="M0 36h36V0H0v36z"/></clipPath></defs><g clip-path="url(#a)" transform="matrix(1.25 0 0 -1.25 0 45)"><path d="M18 6a1 1 0 00-.781.375l-3.194 3.992L11.8 7.4a.998.998 0 00-1.507-.107l-1 1a.999.999 0 101.414 1.414l.185-.184L13.2 12.6a1 1 0 001.581.025L18 8.601l3.219 4.024A1 1 0 0022.8 12.6l2.308-3.077.185.184a.999.999 0 101.414-1.414l-1-1a.974.974 0 00-.778-.29.998.998 0 00-.729.397l-2.225 2.967-3.194-3.992A1 1 0 0018 6" fill="#664500"/></g></svg>