<svg xmlns="http://www.w3.org/2000/svg" viewBox="0 0 45 45" width="100" height="100"><defs><clipPath id="a" clipPathUnits="userSpaceOnUse"><path d="M0 36h36V0H0v36z"/></clipPath></defs><g clip-path="url(#a)" transform="matrix(1.25 0 0 -1.25 0 45)"><path d="M7 14.737c0-3.964 4.596-9 11-9s11 5 11 9c0 0-10.333-2.756-22 0" fill="#664500"/><path d="M12 12.997v-6.96c0-3 2-6 6-6s6 3 6 6v6.92c-6.291-1.293-12 .04-12 .04" fill="#5d9040"/><path d="M20.97 4.93c0 1.369-1.38 1.902-2.487 2.33-.738.284-1.434.554-1.434.943 0 .643.862.675 1.034.675.61 0 .912-.228 1.18-.43.205-.155.418-.315.713-.315.55 0 .8.388.8.747 0 .717-.878 1.224-1.811 1.437v.384a.918.918 0 01-.916.916.918.918 0 01-.916-.916v-.415c-1.115-.325-1.8-1.145-1.8-2.18 0-1.278 1.262-1.802 2.374-2.264.797-.331 1.549-.643 1.549-1.132 0-.357-.448-.743-1.173-.743-.731 0-1.15.292-1.52.55-.255.179-.496.348-.784.348-.42 0-.748-.354-.748-.804 0-.663.907-1.322 2.102-1.554v-.46a.916.916 0 011.832 0l-.003.488c1.262.307 2.008 1.19 2.008 2.396" fill="#fff"/></g></svg>