<svg xmlns="http://www.w3.org/2000/svg" viewBox="0 0 45 45" width="100" height="100"><defs><clipPath id="a" clipPathUnits="userSpaceOnUse"><path d="M0 36h36V0H0v36z"/></clipPath></defs><g clip-path="url(#a)" transform="matrix(1.25 0 0 -1.25 0 45)"><path d="M20.871 8c1.335.412 2.63 1.156 2.63 2.5 0 2.619-4.913 2.968-5.473 2.999a.501.501 0 01-.063-.998C18 12.499 21.5 12.202 21.5 10.5S18 8.501 17.965 8.499c-.014-.001-.025-.009-.037-.011a.427.427 0 01-.147-.04c-.007-.003-.012-.008-.018-.011a.452.452 0 01-.125-.097c-.014-.015-.024-.031-.036-.048-.022-.032-.044-.063-.059-.102a.469.469 0 01-.024-.091c-.005-.024-.017-.044-.018-.068 0-.01.004-.02.004-.031s-.005-.021-.004-.031c.001-.025.013-.045.018-.069.006-.031.011-.06.023-.089.013-.031.031-.057.05-.084.016-.025.031-.05.052-.072.022-.023.05-.041.077-.06.025-.017.046-.034.074-.047a.39.39 0 01.1-.027c.024-.006.045-.018.07-.02C18 7.499 21.5 7.202 21.5 5.5S18 3.501 17.965 3.499a.501.501 0 01.063-.998c.56.031 5.472.38 5.472 2.999 0 1.344-1.294 2.088-2.629 2.5" fill="#664500"/></g></svg>