<svg xmlns="http://www.w3.org/2000/svg" viewBox="0 0 45 45" width="100" height="100"><defs><clipPath id="a" clipPathUnits="userSpaceOnUse"><path d="M0 36h36V0H0v36z"/></clipPath></defs><g clip-path="url(#a)" transform="matrix(1.25 0 0 -1.25 0 45)"><path d="M14.607 11.026c.903.595 2.064.953 3.33.953 1.259 0 2.412-.352 3.312-.94" fill="none" stroke="#664500" stroke-width="2.75" stroke-miterlimit="10"/><path d="M11.647 6.353a1.059 1.059 0 00-.335 2.063c.095.033 2.453.877 2.453 3.23 0 2.356-2.358 3.199-2.459 3.233-.55.192-.846.79-.658 1.343.187.552.78.852 1.334.664.16-.052 3.9-1.344 3.9-5.24 0-3.894-3.74-5.185-3.9-5.238a1.059 1.059 0 00-.335-.055M24.352 6.353c-.111 0-.223.018-.334.055-.16.053-3.9 1.344-3.9 5.239 0 3.895 3.74 5.187 3.9 5.239a1.06 1.06 0 00.675-2.007c-.1-.034-2.458-.877-2.458-3.232 0-2.354 2.358-3.198 2.458-3.232a1.058 1.058 0 00-.341-2.062" fill="#664500"/></g></svg>