<svg xmlns="http://www.w3.org/2000/svg" viewBox="0 0 45 45" width="100" height="100"><defs><clipPath id="a" clipPathUnits="userSpaceOnUse"><path d="M0 36h36V0H0v36z"/></clipPath></defs><g clip-path="url(#a)" transform="matrix(1.25 0 0 -1.25 0 45)"><path d="M18 14c-3.623 0-6.027.422-9 1-.679.131-2 0-2-2 0-4 4.595-9 11-9 6.404 0 11 5 11 9 0 2-1.321 2.132-2 2-2.973-.578-5.377-1-9-1" fill="#664500"/><path d="M9 13s3-1 9-1 9 1 9 1-1.344-6.75-9-6.75S9 13 9 13" fill="#fff"/><path d="M18 8.406c-3.596 0-6.272.372-7.937.745l-.826 1.871c.824-.31 3.889-.897 8.763-.897 4.954 0 8.037.616 8.864.937l-.701-1.842c-1.633-.379-4.418-.814-8.163-.814" fill="#664500"/></g></svg>