<svg xmlns="http://www.w3.org/2000/svg" viewBox="0 0 45 45" width="100" height="100"><defs><clipPath id="a" clipPathUnits="userSpaceOnUse"><path d="M0 36h36V0H0v36z"/></clipPath></defs><g clip-path="url(#a)" transform="matrix(1.25 0 0 -1.25 0 45)"><path d="M27.335 12.371a.501.501 0 01-.635.03c-.039-.03-3.922-2.9-8.7-2.9-4.766 0-8.662 2.87-8.7 2.9a.5.5 0 01-.729-.657C8.7 11.527 11.788 6.5 18 6.5s9.301 5.028 9.429 5.243a.499.499 0 01-.094.628" fill="#664500"/><path d="M27.335 12.371a.501.501 0 01-.635.03c-.039-.03-3.922-2.9-8.7-2.9-4.766 0-8.662 2.87-8.7 2.9a.5.5 0 01-.729-.657C8.7 11.527 11.788 6.5 18 6.5s9.301 5.028 9.429 5.243a.499.499 0 01-.094.628" fill="#664500"/><path d="M18 9.409c-.148 0-.29.011-.437.016V4.909h.874v4.517c-.146-.005-.289-.017-.437-.017" fill="#65471b"/><path d="M22 10c.016.004-1.45-.378-2.446-.486a13.95 13.95 0 00-1.117-.088V4.909H20c1.1 0 2 .9 2 2V10zM14 10c-.016.004 1.45-.378 2.446-.486a13.95 13.95 0 011.117-.088V4.909H16c-1.1 0-2 .9-2 2V10z" fill="#fff"/><path d="M27.335 12.371a.501.501 0 01-.635.03c-.029-.023-2.259-1.669-5.411-2.47-.443-.113-1.864-.43-3.286-.43-1.424 0-2.849.317-3.292.43-3.152.801-5.381 2.447-5.411 2.47a.501.501 0 01-.728-.658c.096-.162 1.884-3.067 5.428-4.48V9.09c-.016.004 1.45-.378 2.446-.486a13.95 13.95 0 011.117-.088c.146-.006.289-.017.437-.017.148 0 .291.011.438.016v.001c.379.013.75.046 1.116.088.996.108 2.462.49 2.446.486V7.262c3.544 1.414 5.332 4.32 5.429 4.481a.499.499 0 01-.094.628" fill="#65471b"/></g></svg>