<svg xmlns="http://www.w3.org/2000/svg" viewBox="0 0 45 45" width="100" height="100"><defs><clipPath id="a" clipPathUnits="userSpaceOnUse"><path d="M0 0h36v36H0V0z"/></clipPath></defs><g clip-path="url(#a)" transform="matrix(1.25 0 0 -1.25 0 45)"><path d="M25.001 8.996H10c-1 0-1 1-1 1v1S9 12 10 12l15.001-.003v-3z" fill="#664500"/><path d="M14 7.999h-2v3h2v-3zM16 12.999h-2v-3h2v3zM12 12.999h-2v-3h2v3z" fill="#9aaab4"/><path d="M17.999 7.999h-2v3h2v-3zM20 12.999h-2.001v-3H20v3zM22 7.999h-2v3h2v-3zM24 12.999h-2v-3h2v3z" fill="#9aaab4"/><path d="M31.483 3.845l2.308 4.186-3.338 1.13-1.615-3.068 2.645-2.248zm-5.172 7.493s.265.964 1.231.699l7.712-2.121s.964-.265.7-1.23c-.266-.964-3.177-6.314-3.915-6.984-.869-.787-1.769.08-1.769.08s-4.664 4.198-5.285 4.735c-.62.538-.373 1.275-.373 1.275l1.7 3.546z" fill="#99aab5"/><path d="M24.817 7.948l-1.754.84 1.668 3.486 1.754-.839-1.668-3.487z" fill="#99aab5"/></g></svg>