<svg xmlns="http://www.w3.org/2000/svg" viewBox="0 0 45 45" width="100" height="100"><defs><clipPath id="a" clipPathUnits="userSpaceOnUse"><path d="M0 36h36V0H0v36z"/></clipPath></defs><g clip-path="url(#a)" transform="matrix(1.25 0 0 -1.25 0 45)"><path d="M9.447 11.105c-.246.492.003.895.553.895h18c.55 0 .8-.403.552-.895C28.552 11.105 26 6 19 6s-9.553 5.105-9.553 5.105" fill="#664500"/><path d="M19 10c-2.77 0-5.157-.922-6.292-2.256C14.2 6.789 16.253 6 19 6s4.801.789 6.292 1.744C24.157 9.078 21.771 10 19 10" fill="#f2abba"/></g></svg>