<svg xmlns="http://www.w3.org/2000/svg" viewBox="0 0 45 45" width="100" height="100"><defs><clipPath id="a" clipPathUnits="userSpaceOnUse"><path d="M0 36h36V0H0v36z"/></clipPath></defs><g clip-path="url(#a)" transform="matrix(1.25 0 0 -1.25 0 45)"><path d="M18 14.5c-9.333 0-10.485-8.354-10.496-8.438a.5.5 0 01.654-.537C8.217 5.545 14.126 7.5 18 7.5c5.595 0 9.745-1.933 9.786-1.952a.5.5 0 01.71.514C28.485 6.146 27.333 14.5 18 14.5" fill="#664500"/><path d="M18 13c4 0 6-2 6-2H12s2 2 6 2" fill="#fff"/></g></svg>