<svg xmlns="http://www.w3.org/2000/svg" viewBox="0 0 45 45" width="100" height="100"><defs><clipPath id="a" clipPathUnits="userSpaceOnUse"><path d="M0 36h36V0H0v36z"/></clipPath></defs><g clip-path="url(#a)" transform="matrix(1.25 0 0 -1.25 0 45)"><path d="M33.175 8.691l-3.671 3.79c-.815-1.886-2.86-5.338-7.19-6.796L26 2c1.728-1.728 5-2 7 0s1.904 4.962.175 6.691" fill="#e75a70"/><path d="M29.503 12.48c.324.75.461 1.257.466 1.277a.998.998 0 01-.724 1.211 1.002 1.002 0 01-1.215-.723C27.956 13.95 26.081 7 18 7s-9.955 6.95-10.03 7.245a1.001 1.001 0 01-1.215.723.998.998 0 01-.724-1.21C6.05 13.67 8.33 5 18 5c1.649 0 3.069.266 4.314.685 4.33 1.458 6.374 4.91 7.188 6.795" fill="#664500"/></g></svg>