<svg xmlns="http://www.w3.org/2000/svg" viewBox="0 0 36 36"><path fill="#664500" d="M23.485 29.379C23.474 29.335 22.34 26.5 18 26.5s-5.474 2.835-5.485 2.879a.496.496 0 00.232.544.51.51 0 00.596-.06C13.352 29.855 14.356 29 18 29c3.59 0 4.617.83 4.656.863a.5.5 0 00.829-.484z"/><path fill="#CCD6DD" d="M35.474 15.729a2.502 2.502 0 00-3.501-.5L14.767 28.137c.646-.242 1.51-.444 2.615-.522.256-.018 2.66-.627 2.66-.627l1.293 1.036s.911.367 1.197.539l12.444-9.335a2.5 2.5 0 00.498-3.499z"/><path fill="#DA2F47" d="M28.686 20.87c-.448-.596-.787-1.145-1.383-.698l-9.922 7.443c.256-.018.5-.042.783-.044 1.36-.009 2.4.195 3.17.452l7.588-5.692c.596-.447.211-.864-.236-1.461z"/><path fill="#67757F" d="M18.599 25.228l1.234 1.598.741-.595-1.197-1.587zm2.223-1.661l1.235 1.598.741-.595-1.197-1.587zm2.184-1.619l1.234 1.598.741-.595-1.197-1.587zm2.181-1.66l1.235 1.597.741-.594-1.197-1.587zm2.238-1.641l1.235 1.598.74-.595-1.196-1.587zm2.14-1.618l1.235 1.598.74-.595-1.196-1.587z"/><path fill="#452E04" d="M22.531 28.563l.805.522s-.197-.362-.526-.726l-.279.204z"/></svg>