<svg viewBox="0 0 45 45" xmlns="http://www.w3.org/2000/svg"><g fill="#664500"><path d="M27.1 32.888c-1.614.374-3.994.692-5.566-3.035-.184-.656.122-1.362.685-1.576.56-.215 1.154.136 1.344.78.047.145.86 1.455 1.617 1.758.757.304 2.573-.286 1.968-1.399-1.142-2.1.495-2.626 1.724-1.266 1.469 1.625-.084 4.346-1.772 4.738z"/><path d="M17.9 32.888c1.615.374 3.994.692 5.566-3.035.184-.656-.122-1.362-.685-1.576-.56-.215-1.153.136-1.344.78-.047.145-.86 1.455-1.617 1.758-.757.304-2.573-.286-1.968-1.399 1.142-2.1-.495-2.626-1.724-1.266-1.469 1.625.084 4.346 1.773 4.738z"/></g></svg>