<svg xmlns="http://www.w3.org/2000/svg" viewBox="0 0 45 45"><path d="M29.289 33.975c0 2.688-3.093 2.919-6.907 2.919-3.816 0-6.907-.231-6.907-2.919 0-2.686 3.091-5.837 6.907-5.837 3.814 0 6.907 3.151 6.907 5.837" fill="#664500"/><path d="M37.534 42.635c0 1.38-6.784 2.5-15.152 2.5s-15.152-1.12-15.152-2.5 6.784-2.5 15.152-2.5 15.152 1.12 15.152 2.5" fill="#e75a70"/><path d="M28.583 37.837c0 4.438 1.78 5.356-6.201 5.356-7.98 0-6.201-.918-6.201-5.356s2.776-5.356 6.201-5.356 6.201.918 6.201 5.356" fill="#e75a70"/></svg>