<svg xmlns="http://www.w3.org/2000/svg" viewBox="0 0 45 45" width="100" height="100"><defs><clipPath id="a" clipPathUnits="userSpaceOnUse"><path d="M0 36h36V0H0v36z"/></clipPath></defs><g clip-path="url(#a)" transform="matrix(1.25 0 0 -1.25 0 45)"><path d="M28 12.875C28 8.388 24.903 3.5 18 3.5c-6.904 0-10 4.888-10 9.375S11.096 18.5 18 18.5c6.903 0 10-1.138 10-5.625" fill="#ea596e"/><path d="M15 11.4c0-1.857-.34-2.4-1.5-2.4s-1.5.543-1.5 2.4c0 1.856.34 2.4 1.5 2.4s1.5-.544 1.5-2.4M24 11.4c0-1.857-.34-2.4-1.5-2.4s-1.5.543-1.5 2.4c0 1.856.34 2.4 1.5 2.4s1.5-.544 1.5-2.4" fill="#662113"/></g></svg>