<?xml version="1.0" encoding="UTF-8" standalone="no"?>
<svg
    xmlns:dc="http://purl.org/dc/elements/1.1/"
    xmlns:cc="http://creativecommons.org/ns#"
    xmlns:rdf="http://www.w3.org/1999/02/22-rdf-syntax-ns#"
    xmlns:svg="http://www.w3.org/2000/svg"
    xmlns="http://www.w3.org/2000/svg" viewBox="0 0 45 45" style="enable-background:new 0 0 45 45;" width="100" height="100" xml:space="preserve" version="1.1" id="svg2">
    <defs id="defs6">
        <clipPath id="clipPath16" clipPathUnits="userSpaceOnUse">
            <path id="path18" d="M 0,36 36,36 36,0 0,0 0,36 Z"/>
        </clipPath>
    </defs>
    <g transform="matrix(1.25,0,0,-1.25,0,45)" id="g10">
        <g id="g12">
            <g clip-path="url(#clipPath16)" id="g14">
                <g transform="translate(15.897,18.6035)" id="g36">
                    <path id="path38" style="fill:#664500;fill-opacity:1;fill-rule:nonzero;stroke:none" d="m 0,0 c 0.023,0.052 0.059,0.096 0.073,0.154 0.134,0.536 -0.192,1.079 -0.727,1.213 -0.181,0.045 -4.468,1.08 -7.798,-1.138 -0.459,-0.307 -0.583,-0.928 -0.277,-1.387 0.193,-0.289 0.51,-0.446 0.833,-0.446 0.19,0 0.383,0.055 0.554,0.168 1.092,0.73 2.362,0.995 3.468,1.062 -0.009,-0.077 -0.023,-0.151 -0.023,-0.23 0,-1.104 0.896,-2 2,-2 1.105,0 2,0.896 2,2 C 0.103,-0.392 0.061,-0.191 0,0"/>
                </g>
                <g transform="translate(27.8965,18.605)" id="g40">
                    <path id="path42" style="fill:#664500;fill-opacity:1;fill-rule:nonzero;stroke:none" d="M 0,0 C 0.023,0.052 0.059,0.095 0.073,0.152 0.208,0.689 -0.118,1.231 -0.654,1.365 -0.834,1.41 -5.12,2.445 -8.451,0.227 -8.911,-0.079 -9.035,-0.7 -8.729,-1.16 c 0.193,-0.289 0.51,-0.445 0.834,-0.445 0.19,0 0.382,0.055 0.553,0.168 1.092,0.729 2.362,0.994 3.469,1.06 -0.009,-0.076 -0.023,-0.15 -0.023,-0.228 0,-1.104 0.895,-2 2,-2 1.104,0 2,0.896 2,2 C 0.104,-0.393 0.062,-0.192 0,0"/>
                </g>
            </g>
        </g>
    </g>
</svg>
