<?xml version="1.0" encoding="UTF-8" standalone="no"?>
<svg
    xmlns:dc="http://purl.org/dc/elements/1.1/"
    xmlns:cc="http://creativecommons.org/ns#"
    xmlns:rdf="http://www.w3.org/1999/02/22-rdf-syntax-ns#"
    xmlns:svg="http://www.w3.org/2000/svg"
    xmlns="http://www.w3.org/2000/svg" viewBox="0 0 45 45" style="enable-background:new 0 0 45 45;" width="100" height="100" xml:space="preserve" version="1.1" id="svg2">
    <defs id="defs6">
        <clipPath id="clipPath16" clipPathUnits="userSpaceOnUse">
            <path id="path18" d="M 0,36 36,36 36,0 0,0 0,36 Z"/>
        </clipPath>
    </defs>
    <g transform="matrix(1.25,0,0,-1.25,0,45)" id="g10">
        <g id="g12">
            <g clip-path="url(#clipPath16)" id="g14">
                <g transform="translate(16.6641,25.457)" id="g24">
                    <path id="path26" style="fill:#664500;fill-opacity:1;fill-rule:nonzero;stroke:none" d="m 0,0 c -0.207,0.09 -0.451,0.03 -0.592,-0.148 -0.01,-0.012 -0.979,-1.202 -3.335,-1.844 -0.775,-0.212 -1.531,-0.319 -2.244,-0.319 -0.993,0 -1.559,0.212 -1.562,0.213 -0.21,0.084 -0.453,0.014 -0.587,-0.17 -0.135,-0.184 -0.128,-0.435 0.016,-0.611 0.071,-0.088 1.779,-2.148 4.124,-2.148 0.351,0 0.702,0.048 1.043,0.14 2.854,0.779 3.41,4.209 3.432,4.354 C 0.329,-0.309 0.207,-0.091 0,0"/>
                </g>
                <g transform="translate(27.6387,23.3022)" id="g28">
                    <path id="path30" style="fill:#664500;fill-opacity:1;fill-rule:nonzero;stroke:none" d="m 0,0 c -0.138,0.181 -0.38,0.245 -0.59,0.159 -0.006,-0.003 -0.633,-0.256 -1.737,-0.256 -0.661,0 -1.359,0.09 -2.073,0.266 C -6.77,0.751 -7.77,1.917 -7.777,1.927 -7.923,2.103 -8.165,2.16 -8.373,2.064 -8.58,1.969 -8.696,1.746 -8.656,1.522 c 0.026,-0.145 0.668,-3.56 3.539,-4.267 0.31,-0.076 0.629,-0.115 0.946,-0.115 2.397,0 4.099,2.159 4.17,2.252 C 0.138,-0.43 0.137,-0.18 0,0"/>
                </g>
            </g>
        </g>
    </g>
</svg>
