<?xml version="1.0" encoding="UTF-8" standalone="no"?>
<svg
    xmlns:dc="http://purl.org/dc/elements/1.1/"
    xmlns:cc="http://creativecommons.org/ns#"
    xmlns:rdf="http://www.w3.org/1999/02/22-rdf-syntax-ns#"
    xmlns:svg="http://www.w3.org/2000/svg"
    xmlns="http://www.w3.org/2000/svg" viewBox="0 0 45 45" style="enable-background:new 0 0 45 45;" width="100" height="100" xml:space="preserve" version="1.1" id="svg2">
    <defs id="defs6">
        <clipPath id="clipPath16" clipPathUnits="userSpaceOnUse">
            <path id="path18" d="M 0,36 36,36 36,0 0,0 0,36 Z"/>
        </clipPath>
    </defs>
    <g transform="matrix(1.25,0,0,-1.25,0,45)" id="g10">
        <g id="g12">
            <g clip-path="url(#clipPath16)" id="g14">
                <g transform="translate(8,1)" id="g36">
                    <path id="path38" style="fill:#5dadec;fill-opacity:1;fill-rule:nonzero;stroke:none" d="m 0,0 4,0.046 0,18.953 -4,0 L 0,0 Z M 16,19 20,19 20,0 16,0.046 16,19 Z"/>
                </g>
                <g transform="translate(36,2)" id="g48">
                    <path id="path50" style="fill:#5dadec;fill-opacity:1;fill-rule:nonzero;stroke:none" d="m 0,0 c 0,-1.104 -8.059,-2 -18,-2 -9.941,0 -18,0.896 -18,2 0,1.104 8.059,2 18,2 C -8.059,2 0,1.104 0,0"/>
                </g>
                <g transform="translate(14.999,18)" id="g40">
                    <path id="path42" style="fill:#664500;fill-opacity:1;fill-rule:nonzero;stroke:none" d="m 0,0 c -0.15,0 -0.303,0.034 -0.446,0.105 -3.512,1.757 -7.071,0.019 -7.106,0 -0.495,-0.248 -1.094,-0.046 -1.342,0.448 -0.247,0.494 -0.046,1.095 0.448,1.342 0.182,0.089 4.498,2.196 8.894,0 C 0.942,1.648 1.143,1.047 0.896,0.553 0.72,0.202 0.367,0 0,0"/>
                </g>
                <g transform="translate(28.999,18)" id="g44">
                    <path id="path46" style="fill:#664500;fill-opacity:1;fill-rule:nonzero;stroke:none" d="m 0,0 c -0.15,0 -0.303,0.034 -0.446,0.105 -3.513,1.756 -7.071,0.019 -7.106,0 -0.494,-0.247 -1.094,-0.047 -1.342,0.448 -0.247,0.494 -0.046,1.095 0.448,1.342 0.181,0.089 4.501,2.196 8.894,0 C 0.942,1.648 1.143,1.047 0.895,0.553 0.72,0.202 0.367,0 0,0"/>
                </g>
            </g>
        </g>
    </g>
</svg>
