<?xml version="1.0" encoding="UTF-8" standalone="no"?>
<svg
    xmlns:dc="http://purl.org/dc/elements/1.1/"
    xmlns:cc="http://creativecommons.org/ns#"
    xmlns:rdf="http://www.w3.org/1999/02/22-rdf-syntax-ns#"
    xmlns:svg="http://www.w3.org/2000/svg"
    xmlns="http://www.w3.org/2000/svg" viewBox="0 0 45 45" style="enable-background:new 0 0 45 45;" width="100" height="100" xml:space="preserve" version="1.1" id="svg2">
    <defs id="defs6">
        <clipPath id="clipPath16" clipPathUnits="userSpaceOnUse">
            <path id="path18" d="M 0,36 36,36 36,0 0,0 0,36 Z"/>
        </clipPath>
    </defs>
    <g transform="matrix(1.25,0,0,-1.25,0,45)" id="g10">
        <g id="g12">
            <g clip-path="url(#clipPath16)" id="g14">
                <g transform="translate(12.2842,23.6699)" id="g32">
                    <path id="path34" style="fill:#664500;fill-opacity:1;fill-rule:nonzero;stroke:none" d="m 0,0 c -0.756,0.292 -1.471,0.568 -1.471,0.968 0,0.659 0.885,0.693 1.062,0.693 0.625,0 0.935,-0.235 1.209,-0.442 0.211,-0.158 0.429,-0.323 0.731,-0.323 0.565,0 0.822,0.397 0.822,0.766 0,0.736 -0.902,1.256 -1.859,1.473 l 0,0.395 c 0,0.517 -0.421,0.939 -0.939,0.939 -0.517,0 -0.939,-0.422 -0.939,-0.939 l 0,-0.426 C -2.528,2.771 -3.229,1.93 -3.229,0.869 c 0,-1.311 1.293,-1.849 2.433,-2.323 0.817,-0.34 1.589,-0.661 1.589,-1.162 0,-0.366 -0.459,-0.761 -1.202,-0.761 -0.75,0 -1.18,0.299 -1.56,0.564 -0.262,0.183 -0.51,0.356 -0.805,0.356 -0.43,0 -0.767,-0.362 -0.767,-0.824 0,-0.679 0.931,-1.356 2.157,-1.594 l 0,-0.47 c 0,-0.518 0.422,-0.939 0.94,-0.939 0.517,0 0.939,0.421 0.939,0.939 L 0.49,-4.848 c 1.296,0.316 2.062,1.222 2.062,2.459 C 2.552,-0.985 1.137,-0.439 0,0"/>
                </g>
                <g transform="translate(26.6943,21.2637)" id="g36">
                    <path id="path38" style="fill:#664500;fill-opacity:1;fill-rule:nonzero;stroke:none" d="m 0,0 c 0,1.404 -1.415,1.95 -2.552,2.389 -0.756,0.292 -1.469,0.567 -1.469,0.967 0,0.66 0.883,0.693 1.06,0.693 0.625,0 0.936,-0.234 1.21,-0.441 0.211,-0.159 0.428,-0.323 0.73,-0.323 0.565,0 0.823,0.397 0.823,0.765 0,0.737 -0.903,1.257 -1.859,1.474 l 0,0.394 c 0,0.518 -0.422,0.939 -0.939,0.939 -0.519,0 -0.941,-0.421 -0.941,-0.939 l 0,-0.426 C -5.08,5.16 -5.781,4.318 -5.781,3.257 c 0,-1.311 1.293,-1.848 2.433,-2.323 0.818,-0.339 1.589,-0.66 1.589,-1.161 0,-0.366 -0.459,-0.762 -1.202,-0.762 -0.75,0 -1.18,0.3 -1.559,0.565 -0.262,0.183 -0.51,0.356 -0.805,0.356 -0.431,0 -0.768,-0.362 -0.768,-0.825 0,-0.679 0.931,-1.355 2.156,-1.593 l 0,-0.471 c 0,-0.517 0.423,-0.938 0.942,-0.938 0.517,0 0.938,0.421 0.938,0.938 L -2.06,-2.459 C -0.766,-2.143 0,-1.236 0,0"/>
                </g>
            </g>
        </g>
    </g>
</svg>
