<?xml version="1.0" encoding="UTF-8" standalone="no"?>
<svg
    xmlns:dc="http://purl.org/dc/elements/1.1/"
    xmlns:cc="http://creativecommons.org/ns#"
    xmlns:rdf="http://www.w3.org/1999/02/22-rdf-syntax-ns#"
    xmlns:svg="http://www.w3.org/2000/svg"
    xmlns="http://www.w3.org/2000/svg" viewBox="0 0 45 45" style="enable-background:new 0 0 45 45;" width="100" height="100" xml:space="preserve" version="1.1" id="svg2">
    <defs id="defs6">
        <clipPath id="clipPath16" clipPathUnits="userSpaceOnUse">
            <path id="path18" d="M 0,36 36,36 36,0 0,0 0,36 Z"/>
        </clipPath>
    </defs>
    <g transform="matrix(1.25,0,0,-1.25,0,45)" id="g10">
        <g id="g12">
            <g clip-path="url(#clipPath16)" id="g14">
                <g transform="translate(7.3472,24.0898)" id="g28">
                    <path id="path30" style="fill:#f5f8fa;fill-opacity:1;fill-rule:nonzero;stroke:none" d="M 0,0 C -0.946,-3.176 0.107,-6.293 2.353,-6.962 4.599,-7.632 7.187,-5.6 8.132,-2.424 9.078,0.751 8.025,3.869 5.781,4.538 3.535,5.207 0.947,3.175 0,0"/>
                </g>
                <g transform="translate(28.6523,24.0898)" id="g32">
                    <path id="path34" style="fill:#f5f8fa;fill-opacity:1;fill-rule:nonzero;stroke:none" d="m 0,0 c 0.946,-3.176 -0.107,-6.293 -2.352,-6.962 -2.247,-0.67 -4.834,1.362 -5.78,4.538 -0.946,3.175 0.107,6.293 2.351,6.962 C -3.535,5.207 -0.947,3.175 0,0"/>
                </g>
            </g>
        </g>
    </g>
</svg>
