<?xml version="1.0" encoding="UTF-8" standalone="no"?>
<svg
    xmlns:dc="http://purl.org/dc/elements/1.1/"
    xmlns:cc="http://creativecommons.org/ns#"
    xmlns:rdf="http://www.w3.org/1999/02/22-rdf-syntax-ns#"
    xmlns:svg="http://www.w3.org/2000/svg"
    xmlns="http://www.w3.org/2000/svg" viewBox="0 0 45 45" style="enable-background:new 0 0 45 45;" width="100" height="100" xml:space="preserve" version="1.1" id="svg2">
    <defs id="defs6">
        <clipPath id="clipPath16" clipPathUnits="userSpaceOnUse">
            <path id="path18" d="M 0,36 36,36 36,0 0,0 0,36 Z"/>
        </clipPath>
    </defs>
    <g transform="matrix(1.25,0,0,-1.25,0,45)" id="g10">
        <g id="g12">
            <g clip-path="url(#clipPath16)" id="g14">
                <g transform="translate(11.4097,18.1079)" id="g32">
                    <path id="path34" style="fill:#664500;fill-opacity:1;fill-rule:nonzero;stroke:none" d="m 0,0 c -2.335,0 -3.87,0.997 -3.964,1.06 -0.46,0.306 -0.584,0.927 -0.278,1.387 0.306,0.46 0.927,0.585 1.387,0.277 C -2.756,2.66 -0.253,1.088 3.143,2.787 3.638,3.034 4.238,2.833 4.485,2.339 4.732,1.845 4.532,1.245 4.038,0.998 2.544,0.251 1.171,0 0,0"/>
                </g>
                <g transform="translate(24.5908,18.1079)" id="g36">
                    <path id="path38" style="fill:#664500;fill-opacity:1;fill-rule:nonzero;stroke:none" d="m 0,0 c -1.172,0 -2.545,0.251 -4.038,0.998 -0.494,0.247 -0.694,0.847 -0.447,1.341 0.248,0.495 0.847,0.695 1.341,0.448 C 0.257,1.087 2.756,2.661 2.86,2.728 3.32,3.026 3.941,2.898 4.242,2.439 4.544,1.98 4.421,1.365 3.964,1.06 3.869,0.997 2.334,0 0,0"/>
                </g>
            </g>
        </g>
    </g>
</svg>
