<?xml version="1.0" encoding="UTF-8" standalone="no"?>
<svg
    xmlns:dc="http://purl.org/dc/elements/1.1/"
    xmlns:cc="http://creativecommons.org/ns#"
    xmlns:rdf="http://www.w3.org/1999/02/22-rdf-syntax-ns#"
    xmlns:svg="http://www.w3.org/2000/svg"
    xmlns="http://www.w3.org/2000/svg" viewBox="0 0 45 45" style="enable-background:new 0 0 45 45;" width="100" height="100" xml:space="preserve" version="1.1" id="svg2">
    <defs id="defs6">
        <clipPath id="clipPath16" clipPathUnits="userSpaceOnUse">
            <path id="path18" d="M 0,36 36,36 36,0 0,0 0,36 Z"/>
        </clipPath>
    </defs>
    <g transform="matrix(1.25,0,0,-1.25,0,45)" id="g10">
        <g id="g12">
            <g clip-path="url(#clipPath16)" id="g14">
                <g transform="translate(29,20)" id="g36">
                    <path id="path38" style="fill:#664500;fill-opacity:1;fill-rule:nonzero;stroke:none" d="m 0,0 c 0,0.552 -0.447,1 -1,1 l -7,0 c -0.553,0 -1,-0.448 -1,-1 0,-0.552 0.447,-1 1,-1 l 5.092,0 c 0.207,-0.581 0.756,-1 1.408,-1 0.828,0 1.5,0.671 1.5,1.5 0,0.11 -0.014,0.217 -0.036,0.321 C -0.024,-0.119 0,-0.063 0,0"/>
                </g>
                <g transform="translate(16,20)" id="g40">
                    <path id="path42" style="fill:#664500;fill-opacity:1;fill-rule:nonzero;stroke:none" d="m 0,0 c 0,0.552 -0.448,1 -1,1 l -7,0 c -0.552,0 -1,-0.448 -1,-1 0,-0.552 0.448,-1 1,-1 l 5.092,0 c 0.207,-0.581 0.756,-1 1.408,-1 0.828,0 1.5,0.671 1.5,1.5 0,0.11 -0.014,0.217 -0.036,0.321 C -0.025,-0.119 0,-0.063 0,0"/>
                </g>
            </g>
        </g>
    </g>
</svg>
