<?xml version="1.0" encoding="UTF-8" standalone="no"?>
<svg
    xmlns:dc="http://purl.org/dc/elements/1.1/"
    xmlns:cc="http://creativecommons.org/ns#"
    xmlns:rdf="http://www.w3.org/1999/02/22-rdf-syntax-ns#"
    xmlns:svg="http://www.w3.org/2000/svg"
    xmlns="http://www.w3.org/2000/svg" viewBox="0 0 45 45" style="enable-background:new 0 0 45 45;" width="100" height="100" xml:space="preserve" version="1.1" id="svg2">
    <defs id="defs6">
        <clipPath id="clipPath16" clipPathUnits="userSpaceOnUse">
            <path id="path18" d="M 0,36 36,36 36,0 0,0 0,36 Z"/>
        </clipPath>
    </defs>
    <g transform="matrix(1.25,0,0,-1.25,0,45)" id="g10">
        <g id="g12">
            <g clip-path="url(#clipPath16)" id="g14">
                <g transform="translate(13.9141,20.5)" id="g36">
                    <path id="path38" style="fill:#664500;fill-opacity:1;fill-rule:nonzero;stroke:none" d="m 0,0 1.793,1.793 c 0.391,0.391 0.391,1.023 0,1.414 -0.391,0.391 -1.023,0.391 -1.414,0 L -1.414,1.414 -3.207,3.207 c -0.391,0.391 -1.023,0.391 -1.414,0 -0.391,-0.391 -0.391,-1.023 0,-1.414 L -2.828,0 -4.621,-1.793 c -0.391,-0.391 -0.391,-1.023 0,-1.414 0.195,-0.195 0.451,-0.293 0.707,-0.293 0.256,0 0.512,0.098 0.707,0.293 l 1.793,1.793 1.793,-1.793 C 0.574,-3.402 0.83,-3.5 1.086,-3.5 c 0.256,0 0.512,0.098 0.707,0.293 0.391,0.391 0.391,1.023 0,1.414 L 0,0 Z"/>
                </g>
                <g transform="translate(24.9141,20.5)" id="g40">
                    <path id="path42" style="fill:#664500;fill-opacity:1;fill-rule:nonzero;stroke:none" d="m 0,0 1.793,1.793 c 0.391,0.391 0.391,1.023 0,1.414 -0.391,0.391 -1.024,0.391 -1.414,0 L -1.414,1.414 -3.207,3.207 c -0.391,0.391 -1.024,0.391 -1.414,0 -0.391,-0.391 -0.391,-1.023 0,-1.414 L -2.828,0 -4.621,-1.793 c -0.391,-0.391 -0.391,-1.023 0,-1.414 0.195,-0.195 0.451,-0.293 0.707,-0.293 0.256,0 0.512,0.098 0.707,0.293 l 1.793,1.793 1.793,-1.793 C 0.574,-3.402 0.83,-3.5 1.086,-3.5 c 0.256,0 0.512,0.098 0.707,0.293 0.391,0.391 0.391,1.023 0,1.414 L 0,0 Z"/>
                </g>
            </g>
        </g>
    </g>
</svg>
