<?xml version="1.0" encoding="UTF-8" standalone="no"?>
<svg
    xmlns:dc="http://purl.org/dc/elements/1.1/"
    xmlns:cc="http://creativecommons.org/ns#"
    xmlns:rdf="http://www.w3.org/1999/02/22-rdf-syntax-ns#"
    xmlns:svg="http://www.w3.org/2000/svg"
    xmlns="http://www.w3.org/2000/svg" viewBox="0 0 45 45" style="enable-background:new 0 0 45 45;" width="100" height="100" xml:space="preserve" version="1.1" id="svg2">
    <defs id="defs6">
        <clipPath id="clipPath16" clipPathUnits="userSpaceOnUse">
            <path id="path18" d="M 0,36 36,36 36,0 0,0 0,36 Z"/>
        </clipPath>
    </defs>
    <g transform="matrix(1.25,0,0,-1.25,0,45)" id="g10">
        <g id="g12">
            <g clip-path="url(#clipPath16)" id="g14">
                <g transform="translate(15.457,20.185)" id="g24">
                    <path id="path26" style="fill:#664500;fill-opacity:1;fill-rule:nonzero;stroke:none" d="m 0,0 c -0.06,0.135 -1.499,3.297 -4.457,3.297 -2.957,0 -4.397,-3.162 -4.457,-3.297 -0.092,-0.207 -0.032,-0.449 0.144,-0.591 0.177,-0.143 0.427,-0.147 0.61,-0.014 0.013,0.009 1.262,0.902 3.703,0.902 2.426,0 3.674,-0.881 3.702,-0.901 0.088,-0.066 0.194,-0.099 0.298,-0.099 0.11,0 0.221,0.036 0.311,0.109 C 0.033,-0.452 0.092,-0.208 0,0"/>
                </g>
                <g transform="translate(31,22.4999)" id="g28">
                    <path id="path30" style="fill:#f5f8fa;fill-opacity:1;fill-rule:nonzero;stroke:none" d="m 0,0 c 0,-3.59 -2.91,-6.5 -6.5,-6.5 -3.59,0 -6.5,2.91 -6.5,6.5 0,3.59 2.91,6.5 6.5,6.5 C -2.91,6.5 0,3.59 0,0"/>
                </g>
                <g transform="translate(27,22.5)" id="g32">
                    <path id="path34" style="fill:#292f33;fill-opacity:1;fill-rule:nonzero;stroke:none" d="M 0,0 C 0,-1.381 -1.119,-2.5 -2.5,-2.5 -3.881,-2.5 -5,-1.381 -5,0 -5,1.381 -3.881,2.5 -2.5,2.5 -1.119,2.5 0,1.381 0,0"/>
                </g>
            </g>
        </g>
    </g>
</svg>
