<?xml version="1.0" encoding="UTF-8" standalone="no"?>
<svg
    xmlns:dc="http://purl.org/dc/elements/1.1/"
    xmlns:cc="http://creativecommons.org/ns#"
    xmlns:rdf="http://www.w3.org/1999/02/22-rdf-syntax-ns#"
    xmlns:svg="http://www.w3.org/2000/svg"
    xmlns="http://www.w3.org/2000/svg" viewBox="0 0 45 45" style="enable-background:new 0 0 45 45;" width="100" height="100" xml:space="preserve" version="1.1" id="svg2">
    <defs id="defs6">
        <clipPath id="clipPath16" clipPathUnits="userSpaceOnUse">
            <path id="path18" d="M 0,36 36,36 36,0 0,0 0,36 Z"/>
        </clipPath>
    </defs>
    <g transform="matrix(1.25,0,0,-1.25,0,45)" id="g10">
        <g id="g12">
            <g clip-path="url(#clipPath16)" id="g14">
                <g transform="translate(15.7026,18.4019)" id="g28">
                    <path id="path30" style="fill:#664500;fill-opacity:1;fill-rule:nonzero;stroke:none" d="m 0,0 c -0.013,-0.009 -1.262,-0.902 -3.703,-0.902 -2.442,0 -3.69,0.893 -3.699,0.9 -0.195,0.145 -0.467,0.132 -0.644,-0.037 -0.177,-0.167 -0.208,-0.438 -0.073,-0.64 0.061,-0.091 1.515,-2.223 4.416,-2.223 2.901,0 4.356,2.132 4.416,2.223 0.135,0.201 0.104,0.469 -0.071,0.637 C 0.466,0.128 0.194,0.143 0,0"/>
                </g>
                <g transform="translate(28.3447,18.3604)" id="g32">
                    <path id="path34" style="fill:#664500;fill-opacity:1;fill-rule:nonzero;stroke:none" d="m 0,0 c -0.175,0.169 -0.447,0.186 -0.643,0.042 -0.011,-0.01 -1.261,-0.902 -3.702,-0.902 -2.441,0 -3.69,0.892 -3.7,0.9 -0.193,0.145 -0.466,0.131 -0.643,-0.037 -0.177,-0.168 -0.207,-0.438 -0.073,-0.641 0.061,-0.091 1.515,-2.222 4.416,-2.222 2.901,0 4.356,2.131 4.416,2.222 C 0.206,-0.436 0.175,-0.168 0,0"/>
                </g>
            </g>
        </g>
    </g>
</svg>
