<?xml version="1.0" encoding="UTF-8" standalone="no"?>
<svg
    xmlns:dc="http://purl.org/dc/elements/1.1/"
    xmlns:cc="http://creativecommons.org/ns#"
    xmlns:rdf="http://www.w3.org/1999/02/22-rdf-syntax-ns#"
    xmlns:svg="http://www.w3.org/2000/svg"
    xmlns="http://www.w3.org/2000/svg" viewBox="0 0 45 45" style="enable-background:new 0 0 45 45;" width="100" height="100" xml:space="preserve" version="1.1" id="svg2">
    <defs id="defs6">
        <clipPath id="clipPath16" clipPathUnits="userSpaceOnUse">
            <path id="path18" d="M 0,36 36,36 36,0 0,0 0,36 Z"/>
        </clipPath>
    </defs>
    <g transform="matrix(1.25,0,0,-1.25,0,45)" id="g10">
        <g id="g12">
            <g clip-path="url(#clipPath16)" id="g14">
                <g transform="translate(28.0283,22.9639)" id="g28">
                    <path id="path30" style="fill:#664500;fill-opacity:1;fill-rule:nonzero;stroke:none" d="m 0,0 c -0.244,0.3 -6.771,1.502 -6.826,1.502 -0.118,0 -0.251,-0.088 -0.276,-0.204 -0.217,-1.027 -0.051,-2.071 0.466,-2.941 0.522,-0.876 1.337,-1.47 2.296,-1.673 0.233,-0.049 0.471,-0.074 0.707,-0.074 1.746,0 3.296,1.336 3.686,3.178 C 0.067,-0.139 0.048,-0.058 0,0"/>
                </g>
                <g transform="translate(14.7563,24.4663)" id="g32">
                    <path id="path34" style="fill:#664500;fill-opacity:1;fill-rule:nonzero;stroke:none" d="m 0,0 c -0.056,0 -6.583,-1.202 -6.827,-1.502 -0.048,-0.059 -0.068,-0.14 -0.052,-0.214 0.389,-1.84 1.94,-3.176 3.686,-3.176 0.236,0 0.474,0.025 0.707,0.074 1.972,0.416 3.211,2.486 2.762,4.613 C 0.252,-0.089 0.119,0 0,0"/>
                </g>
            </g>
        </g>
    </g>
</svg>
