<?xml version="1.0" encoding="UTF-8" standalone="no"?>
<svg
    xmlns:dc="http://purl.org/dc/elements/1.1/"
    xmlns:cc="http://creativecommons.org/ns#"
    xmlns:rdf="http://www.w3.org/1999/02/22-rdf-syntax-ns#"
    xmlns:svg="http://www.w3.org/2000/svg"
    xmlns="http://www.w3.org/2000/svg" viewBox="0 0 45 45" style="enable-background:new 0 0 45 45;" width="100" height="100" xml:space="preserve" version="1.1" id="svg2">
    <defs id="defs6">
        <clipPath id="clipPath16" clipPathUnits="userSpaceOnUse">
            <path id="path18" d="M 0,36 36,36 36,0 0,0 0,36 Z"/>
        </clipPath>
    </defs>
    <g transform="matrix(1.25,0,0,-1.25,0,45)" id="g10">
        <g id="g12">
            <g clip-path="url(#clipPath16)" id="g14">
                <g transform="translate(7.001,21)" id="g24">
                    <path id="path26" style="fill:#664500;fill-opacity:1;fill-rule:nonzero;stroke:none" d="M 0,0 C -0.323,0 -0.64,0.156 -0.833,0.445 -1.139,0.905 -1.015,1.526 -0.556,1.832 -0.423,1.92 2.745,4 6.999,4 c 0.552,0 1,-0.448 1,-1 0,-0.552 -0.448,-1 -1,-1 C 3.344,2 0.581,0.186 0.554,0.168 0.383,0.054 0.19,0 0,0"/>
                </g>
                <g transform="translate(28.999,21)" id="g28">
                    <path id="path30" style="fill:#664500;fill-opacity:1;fill-rule:nonzero;stroke:none" d="M 0,0 C -0.189,0 -0.382,0.054 -0.552,0.167 -0.58,0.185 -3.371,2 -6.999,2 c -0.553,0 -1,0.448 -1,1 0,0.552 0.447,1 1,1 C -2.745,4 0.423,1.92 0.556,1.832 1.016,1.526 1.14,0.905 0.833,0.445 0.641,0.156 0.323,0 0,0"/>
                </g>
            </g>
        </g>
    </g>
</svg>
