<?xml version="1.0" encoding="UTF-8" standalone="no"?>
<svg
    xmlns:dc="http://purl.org/dc/elements/1.1/"
    xmlns:cc="http://creativecommons.org/ns#"
    xmlns:rdf="http://www.w3.org/1999/02/22-rdf-syntax-ns#"
    xmlns:svg="http://www.w3.org/2000/svg"
    xmlns="http://www.w3.org/2000/svg" viewBox="0 0 45 45" style="enable-background:new 0 0 45 45;" width="100" height="100" xml:space="preserve" version="1.1" id="svg2">
    <defs id="defs6">
        <clipPath id="clipPath16" clipPathUnits="userSpaceOnUse">
            <path id="path18" d="M 0,36 36,36 36,0 0,0 0,36 Z"/>
        </clipPath>
    </defs>
    <g transform="matrix(1.25,0,0,-1.25,0,45)" id="g10">
        <g id="g12">
            <g clip-path="url(#clipPath16)" id="g14">
                <g transform="translate(7.999,21)" id="g36">
                    <path id="path38" style="fill:#664500;fill-opacity:1;fill-rule:nonzero;stroke:none" d="M 0,0 C -0.15,0 -0.303,0.034 -0.446,0.105 -0.94,0.353 -1.141,0.954 -0.894,1.447 -0.841,1.552 0.425,4 4.001,4 7.578,4 8.843,1.551 8.895,1.447 9.143,0.953 8.942,0.353 8.448,0.105 7.957,-0.139 7.363,0.057 7.112,0.542 7.069,0.621 6.282,2 4.001,2 1.684,2 0.902,0.567 0.896,0.553 0.72,0.202 0.367,0 0,0"/>
                </g>
                <g transform="translate(28.001,21)" id="g40">
                    <path id="path42" style="fill:#664500;fill-opacity:1;fill-rule:nonzero;stroke:none" d="M 0,0 C -0.367,-0.001 -0.72,0.202 -0.896,0.553 -0.921,0.599 -1.702,2 -4.001,2 -6.3,2 -7.081,0.599 -7.113,0.54 -7.373,0.059 -7.973,-0.13 -8.458,0.12 -8.943,0.372 -9.14,0.958 -8.896,1.447 -8.844,1.551 -7.578,4 -4.001,4 -0.424,4 0.842,1.551 0.893,1.447 1.141,0.953 0.94,0.353 0.446,0.105 0.303,0.034 0.15,0 0,0"/>
                </g>
            </g>
        </g>
    </g>
</svg>
