<?xml version="1.0" encoding="UTF-8" standalone="no"?>
<svg
    xmlns:dc="http://purl.org/dc/elements/1.1/"
    xmlns:cc="http://creativecommons.org/ns#"
    xmlns:rdf="http://www.w3.org/1999/02/22-rdf-syntax-ns#"
    xmlns:svg="http://www.w3.org/2000/svg"
    xmlns="http://www.w3.org/2000/svg" viewBox="0 0 45 45" style="enable-background:new 0 0 45 45;" width="100" height="100" xml:space="preserve" version="1.1" id="svg2">
    <defs id="defs6">
        <clipPath id="clipPath16" clipPathUnits="userSpaceOnUse">
            <path id="path18" d="M 0,36 36,36 36,0 0,0 0,36 Z"/>
        </clipPath>
    </defs>
    <g transform="matrix(1.25,0,0,-1.25,0,45)" id="g10">
        <g id="g12">
            <g clip-path="url(#clipPath16)" id="g14">
                <g transform="translate(17,20.5)" id="g24">
                    <path id="path26" style="fill:#f5f8fa;fill-opacity:1;fill-rule:nonzero;stroke:none" d="M 0,0 C 0,-2.485 -1.567,-4.5 -3.5,-4.5 -5.433,-4.5 -7,-2.485 -7,0 -7,2.485 -5.433,4.5 -3.5,4.5 -1.567,4.5 0,2.485 0,0"/>
                </g>
                <g transform="translate(27,20.5)" id="g28">
                    <path id="path30" style="fill:#f5f8fa;fill-opacity:1;fill-rule:nonzero;stroke:none" d="M 0,0 C 0,-2.485 -1.566,-4.5 -3.5,-4.5 -5.434,-4.5 -7,-2.485 -7,0 -7,2.485 -5.434,4.5 -3.5,4.5 -1.566,4.5 0,2.485 0,0"/>
                </g>
                <g transform="translate(16,20.5)" id="g32">
                    <path id="path34" style="fill:#292f33;fill-opacity:1;fill-rule:nonzero;stroke:none" d="m 0,0 c 0,-1.381 -0.895,-2.5 -2,-2.5 -1.104,0 -2,1.119 -2,2.5 0,1.381 0.896,2.5 2,2.5 1.105,0 2,-1.119 2,-2.5"/>
                </g>
                <g transform="translate(25,20.5)" id="g36">
                    <path id="path38" style="fill:#292f33;fill-opacity:1;fill-rule:nonzero;stroke:none" d="m 0,0 c 0,-1.381 -0.895,-2.5 -2,-2.5 -1.104,0 -2,1.119 -2,2.5 0,1.381 0.896,2.5 2,2.5 1.105,0 2,-1.119 2,-2.5"/>
                </g>
            </g>
        </g>
    </g>
</svg>
