<?xml version="1.0" encoding="UTF-8" standalone="no"?>
<svg
    xmlns:dc="http://purl.org/dc/elements/1.1/"
    xmlns:cc="http://creativecommons.org/ns#"
    xmlns:rdf="http://www.w3.org/1999/02/22-rdf-syntax-ns#"
    xmlns:svg="http://www.w3.org/2000/svg"
    xmlns="http://www.w3.org/2000/svg" viewBox="0 0 45 45" style="enable-background:new 0 0 45 45;" width="100" height="100" xml:space="preserve" version="1.1" id="svg2">
    <defs id="defs6">
        <clipPath id="clipPath16" clipPathUnits="userSpaceOnUse">
            <path id="path18" d="M 0,36 36,36 36,0 0,0 0,36 Z"/>
        </clipPath>
    </defs>
    <g transform="matrix(1.25,0,0,-1.25,0,45)" id="g10">
        <g id="g12">
            <g clip-path="url(#clipPath16)" id="g14">
                <g transform="translate(6.001,17)" id="g40">
                    <path id="path42" style="fill:#664500;fill-opacity:1;fill-rule:nonzero;stroke:none" d="m 0,0 c -0.304,0 -0.604,0.138 -0.801,0.4 -0.331,0.442 -0.242,1.069 0.2,1.4 C -0.458,1.907 2.35,3.982 6.255,4.732 3.78,5.973 1.033,6 0.998,6 0.446,6.001 -0.001,6.45 0,7.001 0,7.553 0.447,8 0.999,8 1.22,8 6.451,7.962 9.706,4.707 9.992,4.421 10.078,3.991 9.923,3.617 9.768,3.244 9.403,3 8.999,3 4.386,3 0.636,0.228 0.599,0.2 0.419,0.065 0.208,0 0,0"/>
                </g>
                <g transform="translate(29.999,17.001)" id="g44">
                    <path id="path46" style="fill:#664500;fill-opacity:1;fill-rule:nonzero;stroke:none" d="m 0,0 c -0.208,0 -0.418,0.064 -0.598,0.198 -0.038,0.029 -3.811,2.801 -8.401,2.801 -0.404,0 -0.77,0.244 -0.924,0.617 -0.155,0.374 -0.069,0.804 0.217,1.09 3.256,3.255 8.486,3.293 8.707,3.293 C -0.447,7.999 -0.001,7.552 0,7 0.001,6.449 -0.446,6 -0.997,5.999 -1.033,5.999 -3.78,5.972 -6.255,4.731 -2.35,3.981 0.458,1.906 0.601,1.799 1.042,1.468 1.132,0.843 0.802,0.4 0.605,0.139 0.305,0 0,0"/>
                </g>
            </g>
        </g>
    </g>
</svg>
