<?xml version="1.0" encoding="UTF-8" standalone="no"?>
<svg
    xmlns:dc="http://purl.org/dc/elements/1.1/"
    xmlns:cc="http://creativecommons.org/ns#"
    xmlns:rdf="http://www.w3.org/1999/02/22-rdf-syntax-ns#"
    xmlns:svg="http://www.w3.org/2000/svg"
    xmlns="http://www.w3.org/2000/svg" viewBox="0 0 45 45" style="enable-background:new 0 0 45 45;" width="100" height="100" xml:space="preserve" version="1.1" id="svg2">
    <defs id="defs6">
        <clipPath id="clipPath16" clipPathUnits="userSpaceOnUse">
            <path id="path18" d="M 0,36 36,36 36,0 0,0 0,36 Z"/>
        </clipPath>
    </defs>
    <g transform="matrix(1.25,0,0,-1.25,0,45)" id="g10">
        <g id="g12">
            <g clip-path="url(#clipPath16)" id="g14">
                <g transform="translate(28.416,18.2773)" id="g32">
                    <path id="path34" style="fill:#664500;fill-opacity:1;fill-rule:nonzero;stroke:none" d="m 0,0 c -0.061,0.091 -1.515,2.223 -4.416,2.223 -2.9,0 -4.355,-2.132 -4.416,-2.223 -0.135,-0.202 -0.104,-0.47 0.071,-0.638 0.174,-0.167 0.447,-0.184 0.643,-0.041 0.012,0.009 1.262,0.902 3.702,0.902 2.426,0 3.674,-0.882 3.702,-0.902 0.089,-0.066 0.194,-0.098 0.298,-0.098 0.124,0 0.248,0.046 0.344,0.136 C 0.105,-0.473 0.135,-0.203 0,0"/>
                </g>
                <g transform="translate(12,20.5)" id="g36">
                    <path id="path38" style="fill:#664500;fill-opacity:1;fill-rule:nonzero;stroke:none" d="M 0,0 C -2.9,0 -4.355,-2.132 -4.416,-2.223 -4.55,-2.424 -4.52,-2.692 -4.345,-2.86 -4.169,-3.027 -3.898,-3.045 -3.703,-2.902 -3.69,-2.893 -2.441,-2 0,-2 2.426,-2 3.674,-2.881 3.702,-2.901 3.791,-2.967 3.896,-3 4,-3 c 0.124,0 0.248,0.046 0.344,0.137 0.177,0.167 0.207,0.438 0.072,0.64 C 4.355,-2.132 2.901,0 0,0"/>
                </g>
            </g>
        </g>
    </g>
</svg>
