<?xml version="1.0" encoding="UTF-8" standalone="no"?>
<svg
    xmlns:dc="http://purl.org/dc/elements/1.1/"
    xmlns:cc="http://creativecommons.org/ns#"
    xmlns:rdf="http://www.w3.org/1999/02/22-rdf-syntax-ns#"
    xmlns:svg="http://www.w3.org/2000/svg"
    xmlns="http://www.w3.org/2000/svg" viewBox="0 0 45 45" style="enable-background:new 0 0 45 45;" width="100" height="100" xml:space="preserve" version="1.1" id="svg2">
    <defs id="defs6">
        <clipPath id="clipPath16" clipPathUnits="userSpaceOnUse">
            <path id="path18" d="M 0,36 36,36 36,0 0,0 0,36 Z"/>
        </clipPath>
    </defs>
    <g transform="matrix(1.25,0,0,-1.25,0,45)" id="g10">
        <g id="g12">
            <g clip-path="url(#clipPath16)" id="g14">
                <g transform="translate(13.5029,21.1548)" id="g24">
                    <path id="path26" style="fill:#664500;fill-opacity:1;fill-rule:nonzero;stroke:none" d="m 0,0 c 3.124,-3.124 4.39,-6.923 2.828,-8.485 -1.561,-1.562 -5.361,-0.297 -8.485,2.828 -3.125,3.124 -4.391,6.923 -2.828,8.485 C -6.923,4.39 -3.124,3.124 0,0"/>
                </g>
                <g transform="translate(22.4971,21.1553)" id="g28">
                    <path id="path30" style="fill:#664500;fill-opacity:1;fill-rule:nonzero;stroke:none" d="m 0,0 c -3.124,-3.124 -4.39,-6.923 -2.828,-8.485 1.561,-1.563 5.361,-0.297 8.485,2.828 3.125,3.125 4.391,6.923 2.828,8.485 C 6.923,4.39 3.124,3.124 0,0"/>
                </g>
            </g>
        </g>
    </g>
</svg>
