<?xml version="1.0" encoding="UTF-8"?>
<svg width="100" height="100" enable-background="new 0 0 45 45" version="1.1" viewBox="0 0 45 45" xml:space="preserve" xmlns="http://www.w3.org/2000/svg" xmlns:cc="http://creativecommons.org/ns#" xmlns:dc="http://purl.org/dc/elements/1.1/" xmlns:rdf="http://www.w3.org/1999/02/22-rdf-syntax-ns#"><metadata><rdf:RDF><cc:Work rdf:about=""><dc:format>image/svg+xml</dc:format><dc:type rdf:resource="http://purl.org/dc/dcmitype/StillImage"/><dc:title/></cc:Work></rdf:RDF></metadata>
    <defs>
        <clipPath id="clipPath16">
            <path d="m0 36h36v-36h-36v36z"/>
        </clipPath>
    </defs>
    <g transform="matrix(1.25,0,0,-1.25,0,45)">

            <g clip-path="url(#clipPath16)">
                <g transform="translate(30,22.5)">
                    <path d="m0 0c0-3.037-2.463-5.5-5.5-5.5s-5.5 2.463-5.5 5.5 2.463 5.5 5.5 5.5 5.5-2.463 5.5-5.5" fill="#f5f8fa"/>
                </g>
                <g transform="translate(17,22.5)">
                    <path d="m0 0c0-3.037-2.463-5.5-5.5-5.5s-5.5 2.463-5.5 5.5 2.463 5.5 5.5 5.5 5.5-2.463 5.5-5.5" fill="#f5f8fa"/>
                </g>
                <g transform="translate(16.038 24.524)">
                    <path d="m0 0c0-1.381-1.119-2.5-2.5-2.5s-2.5 1.119-2.5 2.5c0 1.38 1.119 2.5 2.5 2.5s2.5-1.12 2.5-2.5" fill="#292f33"/>
                </g>
                <g transform="translate(25.09 24.608)">
                    <path d="m0 0c0-1.381-1.119-2.5-2.5-2.5s-2.5 1.119-2.5 2.5c0 1.38 1.119 2.5 2.5 2.5s2.5-1.12 2.5-2.5" fill="#292f33"/>
                </g>
            </g>

    </g>
</svg>
