<?xml version="1.0" encoding="UTF-8"?>
<svg width="100" height="100" enable-background="new 0 0 45 45" version="1.1" viewBox="0 0 45 45" xml:space="preserve" xmlns="http://www.w3.org/2000/svg" xmlns:cc="http://creativecommons.org/ns#" xmlns:dc="http://purl.org/dc/elements/1.1/" xmlns:rdf="http://www.w3.org/1999/02/22-rdf-syntax-ns#"><metadata><rdf:RDF><cc:Work rdf:about=""><dc:format>image/svg+xml</dc:format><dc:type rdf:resource="http://purl.org/dc/dcmitype/StillImage"/><dc:title/></cc:Work></rdf:RDF></metadata>
    <defs>
        <clipPath id="clipPath16">
            <path d="m0 36h36v-36h-36v36z"/>
        </clipPath>
    <clipPath id="clipPath3967"><path d="m2.4063-2.1235c0 0.60761-0.49392 1.0999-1.1027 1.0999-0.36972 0-0.69588-0.18207-0.89604-0.46038-0.20016 0.27831-0.52632 0.46038-0.89604 0.46038-0.60912 0-1.1027-0.49234-1.1027-1.0999 0-0.08619 0.0108-0.1695 0.02952-0.24994 0.15336-0.94912 1.211-1.9503 1.9692-2.2254 0.75816 0.27508 1.8158 1.2763 1.9688 2.225 0.01908 0.0808 0.02988 0.16411 0.02988 0.2503zm-7.7101-9.0276c0 0.65824-0.53496 1.1919-1.1948 1.1919-0.40068 0-0.75384-0.19715-0.97092-0.4988-0.21672 0.30165-0.57024 0.4988-0.97092 0.4988-0.65988 0-1.1948-0.53363-1.1948-1.1919 0-0.09337 0.01188-0.1835 0.03204-0.27077 0.16596-1.0281 1.3118-2.113 2.1334-2.4111 0.82152 0.2977 1.9674 1.3826 2.1334 2.4107 0.02088 0.08762 0.03276 0.17812 0.03276 0.27113zm8.5464 0.81912c0 0.45607-0.37044 0.82559-0.82764 0.82559-0.27756 0-0.52236-0.13646-0.67248-0.34546-0.15012 0.209-0.39492 0.34546-0.67248 0.34546-0.4572 0-0.82764-0.36952-0.82764-0.82559 0-0.06464 0.008302-0.12712 0.02232-0.18745 0.11484-0.71211 0.90864-1.4637 1.4778-1.6699 0.5688 0.20613 1.363 0.95774 1.4774 1.6699 0.0144 0.06033 0.02268 0.12282 0.02268 0.18745z" fill="#dd2e44" stroke-width=".35955"/></clipPath></defs>
    <g transform="matrix(1.25,0,0,-1.25,0,45)">

            <g clip-path="url(#clipPath16)">
                <g transform="translate(30,22.5)">
                    <path d="m0 0c0-3.037-2.463-5.5-5.5-5.5s-5.5 2.463-5.5 5.5 2.463 5.5 5.5 5.5 5.5-2.463 5.5-5.5" fill="#f5f8fa"/>
                </g>
                <g transform="translate(17,22.5)">
                    <path d="m0 0c0-3.037-2.463-5.5-5.5-5.5s-5.5 2.463-5.5 5.5 2.463 5.5 5.5 5.5 5.5-2.463 5.5-5.5" fill="#f5f8fa"/>
                </g>
                <g transform="translate(11.152 25.134)" clip-path="url(#clipPath3967)">
                    <path d="m2.8854-2.5078c0-1.381-1.119-2.5-2.5-2.5-1.381 0-2.5 1.119-2.5 2.5 0 1.38 1.119 2.5 2.5 2.5 1.381 0 2.5-1.12 2.5-2.5" fill="#292f33"/>
                </g>

            <g transform="translate(24.246 25.015)" clip-path="url(#clipPath3967)">
                    <path d="m2.8854-2.5078c0-1.381-1.119-2.5-2.5-2.5-1.381 0-2.5 1.119-2.5 2.5 0 1.38 1.119 2.5 2.5 2.5 1.381 0 2.5-1.12 2.5-2.5" fill="#292f33"/>
                </g></g>

    </g>
</svg>
