<?xml version="1.0" encoding="UTF-8" standalone="no"?>
<svg
   xmlns:dc="http://purl.org/dc/elements/1.1/"
   xmlns:cc="http://creativecommons.org/ns#"
   xmlns:rdf="http://www.w3.org/1999/02/22-rdf-syntax-ns#"
   xmlns:svg="http://www.w3.org/2000/svg"
   xmlns="http://www.w3.org/2000/svg"
   id="svg2"
   version="1.1"
   xml:space="preserve"
   style="enable-background:new 0 0 45 45;"
   viewBox="0 0 45 45"><metadata
     id="metadata8"><rdf:RDF><cc:Work
         rdf:about=""><dc:format>image/svg+xml</dc:format><dc:type
           rdf:resource="http://purl.org/dc/dcmitype/StillImage" /><dc:title></dc:title></cc:Work></rdf:RDF></metadata><defs
     id="defs6"><clipPath
       clipPathUnits="userSpaceOnUse"
       id="clipPath16"><path
         d="M 0,36 36,36 36,0 0,0 0,36 Z"
         id="path18" /></clipPath></defs><g
     style="fill:#664500;fill-opacity:1"
     transform="matrix(-2.9187476,0,0,-2.9187476,26.919492,20.345569)"
     id="g44-2-1-2" /><g
     id="g5084"><g
       id="g32"
       transform="matrix(1.25,0,0,-2.90625,29.385036,37.340868)" /><g
       id="g40"
       transform="matrix(1.25,0,0,-1.25,22.529271,13.742519)" /><g
       id="g48-5-8"
       transform="matrix(0.68246468,2.7175923,-1.6380681,0.40553887,27.372054,29.47414)"><path
         d="m -3.9134163,-2.8872487 c 0.013978,0.1464047 0.2022927,1.5576896 0.6619933,1.8103104 0.7452858,0.40955941 1.6931608,-0.076916 2.2093513,-0.9554518 1.37298672,-2.3367695 0.37874438,-6.3096778 -0.1483075,-5.2528164 -0.379072,0.7601272 0.00784,2.2154198 -1.4797636,3.5372809 -0.6836604,0.053009 -1.2795907,0.4802904 -1.2432735,0.8606769 z"
         style="fill:#664500;fill-opacity:1;fill-rule:nonzero;stroke:none"
         id="path50-2-2" /></g><path
       id="path46-4-8-5"
       style="fill:#664500;fill-opacity:1;fill-rule:nonzero;stroke:none"
       d="m 26.919491,20.345569 c 0,3.225216 2.638548,5.837495 5.89587,5.837495 3.254404,0 5.892952,-2.612279 5.892952,-5.837495 0,-3.222297 -2.638548,-5.831658 -5.892952,-5.831658 -3.257322,0 -5.89587,2.609361 -5.89587,5.831658" /><path
       id="path46-4-9-8-7-3"
       style="fill:#f5f8fa;fill-opacity:1;fill-rule:nonzero;stroke:none"
       d="m 29.3608,20.346777 c 0,1.889417 1.545731,3.419759 3.453957,3.419759 1.906516,0 3.452247,-1.530342 3.452247,-3.419759 0,-1.887707 -1.545732,-3.416339 -3.452247,-3.416339 -1.908226,0 -3.453956,1.528632 -3.453956,3.416339" /><g
       id="g48-5-8-2"
       transform="matrix(-0.68246468,2.7175923,1.6380681,0.40553887,17.627946,29.47414)"><path
         d="m -3.9134163,-2.8872487 c 0.013978,0.1464047 0.2022927,1.5576896 0.6619933,1.8103104 0.7452858,0.40955941 1.6931608,-0.076916 2.2093513,-0.9554518 1.37298672,-2.3367695 0.37874438,-6.3096778 -0.1483075,-5.2528164 -0.379072,0.7601272 0.00784,2.2154198 -1.4797636,3.5372809 -0.6836604,0.053009 -1.2795907,0.4802904 -1.2432735,0.8606769 z"
         style="fill:#664500;fill-opacity:1;fill-rule:nonzero;stroke:none"
         id="path50-2-2-9" /></g><g
       id="g4329-1-8"
       transform="matrix(1.4389415,0,0,1.4389415,-7.2396127,-15.445183)"><g
         style="fill:#664500;fill-opacity:1"
         transform="matrix(2.0283991,0,0,-2.0283991,17.596352,24.872972)"
         id="g44-2-1-2-1" /><g
         style="fill:#f5f8fa;fill-opacity:1"
         transform="matrix(1.1882897,0,0,-1.1882897,15.899751,24.873812)"
         id="g44-2-0-1-2-9-5"><g
           id="g4394-8-1"><path
             transform="matrix(1.7069904,0,0,1.7069904,1.4277672,7.0656171e-4)"
             d="m 0,0 c 0,-1.105 -0.904,-2 -2.02,-2 -1.115,0 -2.019,0.895 -2.019,2 0,1.104 0.904,1.998 2.019,1.998 C -0.904,1.998 0,1.104 0,0"
             style="fill:#664500;fill-opacity:1;fill-rule:nonzero;stroke:none"
             id="path46-4-8-5-4" /><path
             d="m 0,0 c 0,-1.105 -0.904,-2 -2.02,-2 -1.115,0 -2.019,0.895 -2.019,2 0,1.104 0.904,1.998 2.019,1.998 C -0.904,1.998 0,1.104 0,0"
             style="fill:#f5f8fa;fill-opacity:1;fill-rule:nonzero;stroke:none"
             id="path46-4-9-8-7-3-3" /></g></g></g><path
       d="m 36.727159,24.797473 c 0.155549,-0.134745 0.285273,-0.344381 0.361594,-0.612471 0.18762,-0.657764 -0.01653,-1.418968 -0.454892,-1.700495 -4.317534,-2.767845 -7.595138,-0.0032 -7.732737,0.115946 -0.412798,0.357607 -0.554396,1.150533 -0.316067,1.769927 0.237898,0.618273 0.763672,0.831559 1.176591,0.476808 0.116775,-0.09817 2.706107,-2.215636 6.193809,0.02033 0.260444,0.166351 0.544369,0.126858 0.771709,-0.07008"
       style="fill:#664500;fill-opacity:1;fill-rule:nonzero;stroke:none"
       id="path58-5-1" /><path
       d="m 16.099355,24.797473 c 0.155549,-0.134745 0.285273,-0.344381 0.361594,-0.612471 0.18762,-0.657764 -0.01653,-1.418968 -0.454892,-1.700495 -4.317534,-2.767845 -7.5951384,-0.0032 -7.7327374,0.115946 -0.412798,0.357607 -0.554396,1.150533 -0.316067,1.769927 0.237898,0.618273 0.763672,0.831559 1.176591,0.476808 0.116775,-0.09817 2.7061074,-2.215636 6.1938094,0.02033 0.260444,0.166351 0.544369,0.126858 0.771709,-0.07008"
       style="fill:#664500;fill-opacity:1;fill-rule:nonzero;stroke:none"
       id="path58-5-1-5" /></g></svg>
