<?xml version="1.0" encoding="UTF-8"?>
<svg enable-background="new 0 0 45 45" version="1.1" viewBox="0 0 45 45" xml:space="preserve" xmlns="http://www.w3.org/2000/svg" xmlns:cc="http://creativecommons.org/ns#" xmlns:dc="http://purl.org/dc/elements/1.1/" xmlns:rdf="http://www.w3.org/1999/02/22-rdf-syntax-ns#"><metadata><rdf:RDF><cc:Work rdf:about=""><dc:format>image/svg+xml</dc:format><dc:type rdf:resource="http://purl.org/dc/dcmitype/StillImage"/><dc:title/></cc:Work></rdf:RDF></metadata><g transform="translate(-1.8066 2)"><g transform="translate(.35043 -.023955)"><g transform="matrix(2.1906 0 0 -1.8813 37.263 17.515)" fill="#664500"><path d="m0 0c0-1.934-1.119-3.5-2.5-3.5s-2.5 1.566-2.5 3.5c0 1.933 1.119 3.5 2.5 3.5s2.5-1.567 2.5-3.5" fill="#664500"/></g><g transform="matrix(.9556 0 0 -.82069 33.466 16.403)" fill="#fff"><path d="m0 0c0-1.934-1.119-3.5-2.5-3.5s-2.5 1.566-2.5 3.5c0 1.933 1.119 3.5 2.5 3.5s2.5-1.567 2.5-3.5" fill="#fff"/></g><g transform="matrix(.4116 0 0 -.35349 35.361 20.292)" fill="#fff"><path d="m0 0c0-1.934-1.119-3.5-2.5-3.5s-2.5 1.566-2.5 3.5c0 1.933 1.119 3.5 2.5 3.5s2.5-1.567 2.5-3.5" fill="#fff"/></g></g><g transform="translate(-15.311 -.28912)"><g transform="matrix(2.1906 0 0 -1.8813 37.263 17.515)" fill="#664500"><path d="m0 0c0-1.934-1.119-3.5-2.5-3.5s-2.5 1.566-2.5 3.5c0 1.933 1.119 3.5 2.5 3.5s2.5-1.567 2.5-3.5" fill="#664500"/></g><g transform="matrix(.9556 0 0 -.82069 33.466 16.403)" fill="#fff"><path d="m0 0c0-1.934-1.119-3.5-2.5-3.5s-2.5 1.566-2.5 3.5c0 1.933 1.119 3.5 2.5 3.5s2.5-1.567 2.5-3.5" fill="#fff"/></g><g transform="matrix(.4116 0 0 -.35349 35.361 20.292)" fill="#fff"><path d="m0 0c0-1.934-1.119-3.5-2.5-3.5s-2.5 1.566-2.5 3.5c0 1.933 1.119 3.5 2.5 3.5s2.5-1.567 2.5-3.5" fill="#fff"/></g></g></g><g transform="matrix(1.25 0 0 -1.25 37.5 18.313)"><path d="m0 0c-0.124 0-0.25 0.023-0.371 0.072-5.229 2.091-7.372 5.24-7.461 5.374-0.307 0.459-0.183 1.08 0.277 1.387 0.459 0.306 1.078 0.183 1.385-0.274 0.019-0.028 1.93-2.786 6.541-4.63 0.513-0.205 0.763-0.787 0.558-1.3-0.156-0.391-0.533-0.629-0.929-0.629" fill="#664500"/></g><g transform="matrix(1.25 0 0 -1.25 7.5004 18.313)"><path d="m 0,0 c -0.397,0 -0.772,0.238 -0.929,0.629 -0.205,0.513 0.044,1.095 0.557,1.3 C 4.24,3.773 6.151,6.531 6.17,6.559 6.478,7.015 7.099,7.136 7.557,6.829 8.013,6.521 8.137,5.904 7.832,5.446 7.743,5.312 5.599,2.163 0.371,0.072 0.249,0.023 0.124,0 0,0" fill="#664500"/></g><g transform="translate(.6875 .58579)" fill="#5dadec"><g transform="matrix(.87563 0 0 -.475 37.781 25.5)"><path d="m0 0c0-2.762-2.238-5-5-5s-5 2.238-5 5 2.238 5 5 5 5-2.238 5-5" fill="#5dadec"/></g><g transform="matrix(.87563 0 0 -.475 14.6 25.5)"><path d="m0 0c0-2.762-2.238-5-5-5s-5 2.238-5 5 2.238 5 5 5 5-2.238 5-5" fill="#5dadec"/></g></g></svg>
