<?xml version="1.0" encoding="UTF-8"?>
<svg enable-background="new 0 0 45 45" version="1.1" viewBox="0 0 45 45" xml:space="preserve" xmlns="http://www.w3.org/2000/svg" xmlns:cc="http://creativecommons.org/ns#" xmlns:dc="http://purl.org/dc/elements/1.1/" xmlns:rdf="http://www.w3.org/1999/02/22-rdf-syntax-ns#"><metadata><rdf:RDF><cc:Work rdf:about=""><dc:format>image/svg+xml</dc:format><dc:type rdf:resource="http://purl.org/dc/dcmitype/StillImage"/><dc:title/></cc:Work></rdf:RDF></metadata><g transform="translate(-.10788)"><g transform="matrix(1.399 0 0 -1.399 19.086 19.559)"><path d="m0 0c0-1.934-1.119-3.5-2.5-3.5s-2.5 1.566-2.5 3.5c0 1.933 1.119 3.5 2.5 3.5s2.5-1.567 2.5-3.5" fill="#664500"/></g><g transform="matrix(1.399 0 0 -1.399 33.125 19.559)"><path d="m0 0c0-1.934-1.119-3.5-2.5-3.5s-2.5 1.566-2.5 3.5c0 1.933 1.119 3.5 2.5 3.5s2.5-1.567 2.5-3.5" fill="#664500"/></g></g><path d="m37.738 14.054c-0.33877-0.18373-0.77932-0.24573-1.2008-0.1384-5.6708 1.4389-9.5312-0.55487-9.6931-0.64136-0.61557-0.32616-1.4587-0.20649-1.8824 0.26764-0.42516 0.47587-0.27736 1.1253 0.33358 1.4566 0.20438 0.11085 5.0783 2.6901 12.086 0.91334 0.71253-0.18026 1.1002-0.77391 0.86669-1.3249-0.09494-0.22458-0.27764-0.407-0.50978-0.53291" fill="#664500"/><g transform="matrix(1.1107 -.60241 .77774 .86033 7.2716 14.43)"><path d="m0 0c-0.208 0-0.419 0.065-0.599 0.2-0.442 0.331-0.531 0.958-0.2 1.4 3.262 4.35 7.616 4.4 7.8 4.4 0.552 0 1-0.448 1-1 0-0.551-0.445-0.998-0.996-1-0.155-2e-3 -3.569-0.086-6.204-3.6-0.197-0.262-0.497-0.4-0.801-0.4" fill="#664500"/></g><g transform="matrix(1.3182 0 0 1.3182 10.065 -5.5961)"/><g transform="translate(0 -.11775)" fill="#fff"><path d="m12.975 19.595c-0.21829-0.44781-0.09938-0.65597 0.12122-0.82514 0.36093-0.27679 1.108 0.02542 1.3553 0.15864 0.04726-0.27678 0.29187-0.92993 0.69357-1.0606 0.26124-0.08497 0.55221-0.1554 0.7705 0.2924 0.03131 0.06321 0.05318 0.12879 0.06824 0.19466 0.22863 0.75471-0.18905 1.873-0.64778 2.3477-0.65664 0.06912-1.7951-0.28918-2.2494-0.93372-0.04282-0.05288-0.08064-0.11048-0.11166-0.17398"/><circle cx="16.705" cy="21.842" r=".61872"/></g><g transform="translate(14.032 -.11775)" fill="#fff"><path d="m12.975 19.595c-0.21829-0.44781-0.09938-0.65597 0.12122-0.82514 0.36093-0.27679 1.108 0.02542 1.3553 0.15864 0.04726-0.27678 0.29187-0.92993 0.69357-1.0606 0.26124-0.08497 0.55221-0.1554 0.7705 0.2924 0.03131 0.06321 0.05318 0.12879 0.06824 0.19466 0.22863 0.75471-0.18905 1.873-0.64778 2.3477-0.65664 0.06912-1.7951-0.28918-2.2494-0.93372-0.04282-0.05288-0.08064-0.11048-0.11166-0.17398"/><circle cx="16.705" cy="21.842" r=".61872"/></g></svg>
